<?xml version="1.0" encoding="UTF-8" standalone="no"?>
<!-- Created with Inkscape (http://www.inkscape.org/) -->

<svg
   width="142.041mm"
   height="88.083mm"
   viewBox="0 0 142.041 88.083001"
   version="1.1"
   id="svg1"
   inkscape:version="1.3 (0e150ed6c4, 2023-07-21)"
   sodipodi:docname="Elipse.svg"
   xmlns:inkscape="http://www.inkscape.org/namespaces/inkscape"
   xmlns:sodipodi="http://sodipodi.sourceforge.net/DTD/sodipodi-0.dtd"
   xmlns="http://www.w3.org/2000/svg"
   xmlns:svg="http://www.w3.org/2000/svg">
  <sodipodi:namedview
     id="namedview1"
     pagecolor="#ffffff"
     bordercolor="#000000"
     borderopacity="0.25"
     inkscape:showpageshadow="2"
     inkscape:pageopacity="0.0"
     inkscape:pagecheckerboard="0"
     inkscape:deskcolor="#d1d1d1"
     inkscape:document-units="mm"
     inkscape:zoom="1.0544998"
     inkscape:cx="126.60031"
     inkscape:cy="137.98012"
     inkscape:window-width="1920"
     inkscape:window-height="1051"
     inkscape:window-x="-9"
     inkscape:window-y="-9"
     inkscape:window-maximized="1"
     inkscape:current-layer="g11" />
  <defs
     id="defs1">
    <marker
       style="overflow:visible"
       id="ArrowWideRounded"
       refX="0"
       refY="0"
       orient="auto-start-reverse"
       inkscape:stockid="Wide, rounded arrow"
       markerWidth="1"
       markerHeight="1"
       viewBox="0 0 1 1"
       inkscape:isstock="true"
       inkscape:collect="always"
       preserveAspectRatio="xMidYMid">
      <path
         style="fill:none;stroke:context-stroke;stroke-width:1;stroke-linecap:round"
         d="M 3,-3 0,0 3,3"
         transform="rotate(180,0.125,0)"
         sodipodi:nodetypes="ccc"
         id="path32" />
    </marker>
    <inkscape:path-effect
       effect="spiro"
       id="path-effect30"
       is_visible="true"
       lpeversion="1" />
    <inkscape:path-effect
       effect="spiro"
       id="path-effect29"
       is_visible="true"
       lpeversion="1" />
    <marker
       style="overflow:visible"
       id="marker8"
       refX="0"
       refY="0"
       orient="auto"
       inkscape:stockid="Stop"
       markerWidth="1"
       markerHeight="1"
       viewBox="0 0 1 1"
       inkscape:isstock="true"
       inkscape:collect="always"
       preserveAspectRatio="xMidYMid">
      <path
         style="fill:none;stroke:context-stroke;stroke-width:1"
         d="M 0,4 V -4"
         id="path8" />
    </marker>
    <marker
       style="overflow:visible"
       id="Stop"
       refX="0"
       refY="0"
       orient="auto"
       inkscape:stockid="Stop"
       markerWidth="1"
       markerHeight="1"
       viewBox="0 0 1 1"
       inkscape:isstock="true"
       inkscape:collect="always"
       preserveAspectRatio="xMidYMid">
      <path
         style="fill:none;stroke:context-stroke;stroke-width:1"
         d="M 0,4 V -4"
         id="path23" />
    </marker>
    <inkscape:path-effect
       effect="spiro"
       id="path-effect7"
       is_visible="true"
       lpeversion="1" />
    <inkscape:path-effect
       effect="spiro"
       id="path-effect6"
       is_visible="true"
       lpeversion="1" />
    <inkscape:path-effect
       effect="spiro"
       id="path-effect5"
       is_visible="true"
       lpeversion="1" />
    <inkscape:path-effect
       effect="spiro"
       id="path-effect4"
       is_visible="true"
       lpeversion="1" />
  </defs>
  <g
     inkscape:label="Capa 1"
     inkscape:groupmode="layer"
     id="layer1"
     style="display:none"
     sodipodi:insensitive="true"
     transform="translate(-52.041116,-105.3859)">
    <path
       d="M 0,0 V 296.99999 M 10.583333,0 V 296.99999 M 21.166666,0 V 296.99999 M 31.749999,0 V 296.99999 M 42.333332,0 V 296.99999 M 52.916665,0 V 296.99999 M 63.499999,0 V 296.99999 M 74.083332,0 V 296.99999 M 84.666665,0 V 296.99999 M 95.249998,0 V 296.99999 M 105.83333,0 V 296.99999 M 116.41666,0 V 296.99999 M 127,0 V 296.99999 M 137.58333,0 V 296.99999 M 148.16666,0 V 296.99999 M 158.75,0 V 296.99999 M 169.33333,0 V 296.99999 M 179.91666,0 V 296.99999 M 190.5,0 V 296.99999 M 201.08333,0 V 296.99999 M 0,0 H 210 M 0,10.583333 H 210 M 0,21.166666 H 210 M 0,31.749999 H 210 M 0,42.333332 H 210 M 0,52.916665 H 210 M 0,63.499999 H 210 M 0,74.083332 H 210 M 0,84.666665 H 210 M 0,95.249998 H 210 M 0,105.83333 H 210 M 0,116.41666 H 210 M 0,127 H 210 M 0,137.58333 H 210 M 0,148.16666 H 210 M 0,158.75 H 210 M 0,169.33333 H 210 M 0,179.91666 H 210 M 0,190.5 H 210 M 0,201.08333 H 210 M 0,211.66666 H 210 M 0,222.24999 H 210 M 0,232.83333 H 210 M 0,243.41666 H 210 M 0,253.99999 H 210 M 0,264.58333 H 210 M 0,275.16666 H 210 M 0,285.74999 H 210 M 0,296.33333 h 210"
       style="fill:none;stroke:#000000;stroke-width:0.264583px"
       id="path1" />
  </g>
  <g
     inkscape:groupmode="layer"
     id="layer2"
     inkscape:label="Elipse"
     transform="translate(-52.041116,-105.3859)">
    <ellipse
       style="fill:none;stroke:#ff000b;stroke-width:0.7;stroke-linecap:round;stroke-dasharray:none;stroke-opacity:1"
       id="path2"
       cx="123.47459"
       cy="139.17618"
       rx="68.844742"
       ry="31.852804" />
    <circle
       style="fill:#000000;fill-opacity:1;stroke:#000000;stroke-width:0.3;stroke-linecap:round;stroke-dasharray:none;stroke-opacity:1"
       id="path3"
       cx="149.82135"
       cy="139.26489"
       r="1.5" />
    <path
       style="fill:#000000;fill-opacity:1;stroke:#000000;stroke-width:0.5;stroke-linecap:round;stroke-dasharray:none;stroke-opacity:1"
       d="m 148.41259,137.49805 19.85985,-23.62978"
       id="path4"
       inkscape:path-effect="#path-effect4"
       inkscape:original-d="m 148.41259,137.49805 19.85985,-23.62978"
       sodipodi:nodetypes="cc"
       transform="translate(1.5875,1.5875)" />
    <path
       style="opacity:0.8;fill:#000000;fill-opacity:1;stroke:#000000;stroke-width:0.5;stroke-linecap:round;stroke-dasharray:4, 4;stroke-dashoffset:0;stroke-opacity:1"
       d="m 148.14516,137.58871 41.98958,-0.008"
       id="path5"
       inkscape:path-effect="#path-effect5"
       inkscape:original-d="m 148.14516,137.58871 41.98958,-0.008"
       sodipodi:nodetypes="cc"
       transform="translate(1.5875,1.5875)" />
    <path
       style="opacity:0.8;fill:#000000;fill-opacity:1;stroke:#000000;stroke-width:0.5;stroke-linecap:round;stroke-dasharray:4, 4;stroke-dashoffset:0;stroke-opacity:1"
       d="M 148.28713,137.62351 H 53.628616"
       id="path6"
       inkscape:path-effect="#path-effect6"
       inkscape:original-d="M 148.28713,137.62351 H 53.628616"
       sodipodi:nodetypes="cc"
       transform="translate(0,1.5875)" />
    <path
       style="opacity:0.8;fill:#000000;fill-opacity:1;stroke:#0300ff;stroke-width:0.55;stroke-linecap:round;stroke-dasharray:none;stroke-opacity:1;marker-start:url(#Stop);marker-end:url(#marker8)"
       d="M 52.693548,179.90322 H 190.19355"
       id="path7"
       inkscape:path-effect="#path-effect7"
       inkscape:original-d="M 52.693548,179.90322 H 190.19355"
       transform="translate(1.5875,1.5875)" />
    <path
       style="opacity:1;fill:none;fill-opacity:1;stroke:#000000;stroke-width:0.45;stroke-linecap:round;stroke-dasharray:none;stroke-dashoffset:0;stroke-opacity:1;marker-end:url(#ArrowWideRounded)"
       d="m 168.32661,136.16935 c 0.29068,-0.91499 0.42625,-1.87904 0.3992,-2.83871 -0.0513,-1.82067 -0.70127,-3.61956 -1.82552,-5.05257 -1.12425,-1.43302 -2.71674,-2.49245 -4.47287,-2.97565"
       id="path30"
       inkscape:path-effect="#path-effect30"
       inkscape:original-d="m 168.32661,136.16935 c 0.4423,-0.81383 0.3992,-1.91352 0.3992,-2.83871 0,-4.16842 -2.63214,-7.11166 -6.29839,-8.02822"
       transform="translate(-0.09798386,1.9866936)" />
  </g>
  <g
     inkscape:groupmode="layer"
     id="layer3"
     inkscape:label="LaTeX"
     transform="translate(-52.041116,-105.3859)">
    <g
       inkscape:label=""
       transform="translate(153.90508,123.3886)"
       id="g9">
      <g
         fill="#000000"
         fill-opacity="1"
         id="g2"
         transform="matrix(0.352778,0,0,0.352778,-72.3917,-8.65862)">
        <g
           id="use1"
           transform="translate(204.533,35.466)">
          <path
             d="m 9.640625,-10.140625 c -0.765625,0.15625 -1.171875,0.703125 -1.171875,1.25 0,0.59375 0.484375,0.78125 0.828125,0.78125 0.6875,0 1.265625,-0.59375 1.265625,-1.328125 0,-0.796875 -0.78125,-1.484375 -2.015625,-1.484375 -0.984375,0 -2.125,0.4375 -3.171875,1.953125 -0.171875,-1.3125 -1.15625,-1.953125 -2.15625,-1.953125 -0.96875,0 -1.453125,0.734375 -1.75,1.28125 -0.421875,0.890625 -0.796875,2.375 -0.796875,2.5 0,0.109375 0.09375,0.234375 0.265625,0.234375 0.203125,0 0.234375,-0.03125 0.375,-0.609375 C 1.6875,-9 2.15625,-10.4375 3.140625,-10.4375 c 0.59375,0 0.78125,0.421875 0.78125,1.140625 0,0.546875 -0.25,1.515625 -0.421875,2.28125 L 2.796875,-4.34375 c -0.09375,0.484375 -0.375,1.59375 -0.5,2.046875 C 2.125,-1.65625 1.859375,-0.5 1.859375,-0.375 1.859375,-0.03125 2.125,0.25 2.5,0.25 2.78125,0.25 3.25,0.078125 3.390625,-0.421875 3.46875,-0.625 4.390625,-4.359375 4.53125,-4.9375 4.65625,-5.484375 4.8125,-6 4.9375,-6.546875 c 0.09375,-0.34375 0.1875,-0.734375 0.265625,-1.0625 0.078125,-0.21875 0.75,-1.4375 1.359375,-1.984375 0.296875,-0.265625 0.953125,-0.84375 1.96875,-0.84375 0.390625,0 0.78125,0.07813 1.109375,0.296875 z m 0,0"
             id="path9" />
        </g>
      </g>
    </g>
    <g
       inkscape:label=""
       transform="translate(120.379,138.298)"
       id="g12">
      <g
         fill="#000000"
         fill-opacity="1"
         id="g11"
         transform="matrix(0.352778,0,0,0.352778,-35.1025,-17.3525)">
        <g
           id="g10"
           transform="translate(204.4912,42.156488)">
          <path
             d="m 7.453125,-1.09375 c -0.421875,0 -0.78125,0 -0.78125,-0.125 0,-0.046875 0.421875,-2.375 0.5625,-2.921875 C 8.03125,-7.3125 9.90625,-9.59375 12.0625,-9.59375 c 1.609375,0 2.359375,1.21875 2.359375,2.578125 0,2.828125 -3.171875,5.921875 -6.96875,5.921875 z m -1.0625,1.296875 C 6.546875,0.21875 6.796875,0.25 7.234375,0.25 c 4.0625,0 7.8125,-3.921875 7.8125,-7.828125 0,-1.515625 -0.671875,-3.34375 -2.75,-3.34375 -3.578125,0 -5.078125,5.03125 -6.46875,9.6875 -2.859375,-0.546875 -4.046875,-2.0625 -4.046875,-3.71875 0,-0.671875 0.515625,-3.328125 1.953125,-5.109375 0.28125,-0.328125 0.28125,-0.375 0.28125,-0.421875 0,-0.203125 -0.203125,-0.203125 -0.25,-0.203125 -0.671875,0 -2.546875,3.625 -2.546875,5.984375 0,2.765625 2.171875,4.28125 4.1875,4.734375 l -1.296875,4.1875 c -0.125,0.359375 -0.125,0.421875 -0.125,0.515625 0,0.59375 0.59375,0.625 0.65625,0.625 C 4.875,5.359375 5.328125,5.25 5.53125,4.765625 5.59375,4.53125 6.296875,0.6875 6.390625,0.203125 Z m 0,0"
             id="path10" />
        </g>
        <g
           inkscape:label=""
           transform="matrix(2.83464,0,0,2.83464,225.70957,63.719977)"
           id="g18">
          <g
             fill="#000000"
             fill-opacity="1"
             id="g6"
             transform="matrix(0.352778,0,0,0.352778,-66.8372,-8.65897)">
            <g
               id="use5"
               transform="translate(188.78799,35.466999)">
              <path
                 d="m 9.640625,-10.140625 c -0.765625,0.15625 -1.171875,0.703125 -1.171875,1.25 0,0.59375 0.484375,0.78125 0.828125,0.78125 0.6875,0 1.265625,-0.59375 1.265625,-1.328125 0,-0.796875 -0.78125,-1.484375 -2.015625,-1.484375 -0.984375,0 -2.125,0.4375 -3.171875,1.953125 -0.171875,-1.3125 -1.15625,-1.953125 -2.15625,-1.953125 -0.96875,0 -1.453125,0.734375 -1.75,1.28125 -0.421875,0.890625 -0.796875,2.375 -0.796875,2.5 0,0.109375 0.09375,0.234375 0.265625,0.234375 0.203125,0 0.234375,-0.03125 0.375,-0.609375 C 1.6875,-9 2.15625,-10.4375 3.140625,-10.4375 c 0.59375,0 0.78125,0.421875 0.78125,1.140625 0,0.546875 -0.25,1.515625 -0.421875,2.28125 L 2.796875,-4.34375 c -0.09375,0.484375 -0.375,1.59375 -0.5,2.046875 C 2.125,-1.65625 1.859375,-0.5 1.859375,-0.375 1.859375,-0.03125 2.125,0.25 2.5,0.25 2.78125,0.25 3.25,0.078125 3.390625,-0.421875 3.46875,-0.625 4.390625,-4.359375 4.53125,-4.9375 4.65625,-5.484375 4.8125,-6 4.9375,-6.546875 c 0.09375,-0.34375 0.1875,-0.734375 0.265625,-1.0625 0.078125,-0.21875 0.75,-1.4375 1.359375,-1.984375 0.296875,-0.265625 0.953125,-0.84375 1.96875,-0.84375 0.390625,0 0.78125,0.07813 1.109375,0.296875 z m 0,0"
                 id="path16" />
            </g>
          </g>
          <g
             fill="#000000"
             fill-opacity="1"
             id="g7"
             transform="matrix(0.352778,0,0,0.352778,-66.8372,-8.65897)">
            <g
               id="use6"
               transform="translate(199.72501,41.278)">
              <path
                 d="m 13.96875,-6.28125 c 0,-1.03125 -0.1875,-2.765625 -2.65625,-2.765625 -1.390625,0 -2.375,0.953125 -2.734375,2.0625 h -0.03125 c -0.25,-1.6875 -1.46875,-2.0625 -2.625,-2.0625 -1.625,0 -2.46875,1.265625 -2.78125,2.078125 H 3.125 V -9.046875 L 0.6875,-8.8125 v 0.53125 c 1.21875,0 1.40625,0.125 1.40625,1.109375 v 5.75 C 2.09375,-0.640625 2,-0.53125 0.6875,-0.53125 V 0 c 0.484375,-0.046875 1.40625,-0.046875 1.9375,-0.046875 0.53125,0 1.46875,0 1.953125,0.046875 v -0.53125 c -1.3125,0 -1.390625,-0.09375 -1.390625,-0.890625 v -3.96875 c 0,-1.90625 1.15625,-3.328125 2.59375,-3.328125 1.53125,0 1.703125,1.359375 1.703125,2.359375 v 4.9375 c 0,0.78125 -0.09375,0.890625 -1.40625,0.890625 V 0 c 0.484375,-0.046875 1.40625,-0.046875 1.9375,-0.046875 0.53125,0 1.46875,0 1.96875,0.046875 v -0.53125 c -1.328125,0 -1.40625,-0.09375 -1.40625,-0.890625 v -3.96875 c 0,-1.90625 1.15625,-3.328125 2.59375,-3.328125 1.53125,0 1.703125,1.359375 1.703125,2.359375 v 4.9375 c 0,0.78125 -0.09375,0.890625 -1.40625,0.890625 V 0 c 0.484375,-0.046875 1.40625,-0.046875 1.9375,-0.046875 0.53125,0 1.46875,0 1.96875,0.046875 v -0.53125 c -1.328125,0 -1.40625,-0.09375 -1.40625,-0.890625 z m 0,0"
                 id="path17" />
            </g>
          </g>
          <g
             fill="#000000"
             fill-opacity="1"
             id="g8"
             transform="matrix(0.352778,0,0,0.352778,-66.8372,-8.65897)">
            <g
               id="use7"
               transform="translate(213.52962,41.278)">
              <path
                 d="m 7.171875,-13.328125 c 0.25,-0.21875 0.3125,-0.265625 0.3125,-0.484375 0,-0.3125 -0.28125,-0.5625 -0.5625,-0.5625 -0.25,0 -0.328125,0.09375 -0.546875,0.34375 l -2.328125,2.984375 c -0.140625,0.1875 -0.140625,0.203125 -0.140625,0.21875 0,0.03125 0.1875,0.203125 0.21875,0.25 z m 0,0"
                 id="path11" />
            </g>
          </g>
          <g
             fill="#000000"
             fill-opacity="1"
             id="g17"
             transform="matrix(0.352778,0,0,0.352778,-66.8372,-8.65897)">
            <g
               id="use8"
               transform="translate(215.67026,41.278)">
              <path
                 d="m 3.15625,-9.046875 -2.375,0.234375 v 0.53125 c 1.15625,0 1.328125,0.125 1.328125,1.109375 v 5.75 c 0,0.78125 -0.078125,0.890625 -1.40625,0.890625 V 0 c 0.5,-0.046875 1.390625,-0.046875 1.90625,-0.046875 0.484375,0 1.34375,0 1.8125,0.046875 v -0.53125 c -1.21875,0 -1.265625,-0.125 -1.265625,-0.875 z m 0,0"
                 id="path12" />
            </g>
            <g
               id="use9"
               transform="translate(220.82761,41.278)">
              <path
                 d="m 8.578125,-6.28125 c 0,-1.046875 -0.21875,-2.765625 -2.65625,-2.765625 -1.625,0 -2.46875,1.265625 -2.78125,2.078125 H 3.125 V -9.046875 L 0.6875,-8.8125 v 0.53125 c 1.21875,0 1.40625,0.125 1.40625,1.109375 v 5.75 C 2.09375,-0.640625 2,-0.53125 0.6875,-0.53125 V 0 c 0.484375,-0.046875 1.40625,-0.046875 1.9375,-0.046875 0.53125,0 1.46875,0 1.953125,0.046875 v -0.53125 c -1.3125,0 -1.390625,-0.09375 -1.390625,-0.890625 v -3.96875 c 0,-1.90625 1.15625,-3.328125 2.59375,-3.328125 1.53125,0 1.703125,1.359375 1.703125,2.359375 v 4.9375 c 0,0.78125 -0.09375,0.890625 -1.40625,0.890625 V 0 c 0.484375,-0.046875 1.40625,-0.046875 1.9375,-0.046875 0.53125,0 1.46875,0 1.96875,0.046875 v -0.53125 c -1.328125,0 -1.40625,-0.09375 -1.40625,-0.890625 z m 0,0"
                 id="path13" />
            </g>
          </g>
        </g>
        <g
           inkscape:label=""
           transform="matrix(2.83464,0,0,2.83464,41.13767,65.219975)"
           id="g27">
          <g
             fill="#000000"
             fill-opacity="1"
             id="g20"
             transform="matrix(0.352778,0,0,0.352778,-66.1708,-8.65897)">
            <g
               id="g19"
               transform="translate(186.899,35.466999)">
              <path
                 d="m 9.640625,-10.140625 c -0.765625,0.15625 -1.171875,0.703125 -1.171875,1.25 0,0.59375 0.484375,0.78125 0.828125,0.78125 0.6875,0 1.265625,-0.59375 1.265625,-1.328125 0,-0.796875 -0.78125,-1.484375 -2.015625,-1.484375 -0.984375,0 -2.125,0.4375 -3.171875,1.953125 -0.171875,-1.3125 -1.15625,-1.953125 -2.15625,-1.953125 -0.96875,0 -1.453125,0.734375 -1.75,1.28125 -0.421875,0.890625 -0.796875,2.375 -0.796875,2.5 0,0.109375 0.09375,0.234375 0.265625,0.234375 0.203125,0 0.234375,-0.03125 0.375,-0.609375 C 1.6875,-9 2.15625,-10.4375 3.140625,-10.4375 c 0.59375,0 0.78125,0.421875 0.78125,1.140625 0,0.546875 -0.25,1.515625 -0.421875,2.28125 L 2.796875,-4.34375 c -0.09375,0.484375 -0.375,1.59375 -0.5,2.046875 C 2.125,-1.65625 1.859375,-0.5 1.859375,-0.375 1.859375,-0.03125 2.125,0.25 2.5,0.25 2.78125,0.25 3.25,0.078125 3.390625,-0.421875 3.46875,-0.625 4.390625,-4.359375 4.53125,-4.9375 4.65625,-5.484375 4.8125,-6 4.9375,-6.546875 c 0.09375,-0.34375 0.1875,-0.734375 0.265625,-1.0625 0.078125,-0.21875 0.75,-1.4375 1.359375,-1.984375 0.296875,-0.265625 0.953125,-0.84375 1.96875,-0.84375 0.390625,0 0.78125,0.07813 1.109375,0.296875 z m 0,0"
                 id="path18" />
            </g>
          </g>
          <g
             fill="#000000"
             fill-opacity="1"
             id="g23"
             transform="matrix(0.352778,0,0,0.352778,-66.1708,-8.65897)">
            <g
               id="g21"
               transform="translate(197.836,41.278)">
              <path
                 d="m 13.96875,-6.28125 c 0,-1.03125 -0.1875,-2.765625 -2.65625,-2.765625 -1.390625,0 -2.375,0.953125 -2.734375,2.0625 h -0.03125 c -0.25,-1.6875 -1.46875,-2.0625 -2.625,-2.0625 -1.625,0 -2.46875,1.265625 -2.78125,2.078125 H 3.125 V -9.046875 L 0.6875,-8.8125 v 0.53125 c 1.21875,0 1.40625,0.125 1.40625,1.109375 v 5.75 C 2.09375,-0.640625 2,-0.53125 0.6875,-0.53125 V 0 c 0.484375,-0.046875 1.40625,-0.046875 1.9375,-0.046875 0.53125,0 1.46875,0 1.953125,0.046875 v -0.53125 c -1.3125,0 -1.390625,-0.09375 -1.390625,-0.890625 v -3.96875 c 0,-1.90625 1.15625,-3.328125 2.59375,-3.328125 1.53125,0 1.703125,1.359375 1.703125,2.359375 v 4.9375 c 0,0.78125 -0.09375,0.890625 -1.40625,0.890625 V 0 c 0.484375,-0.046875 1.40625,-0.046875 1.9375,-0.046875 0.53125,0 1.46875,0 1.96875,0.046875 v -0.53125 c -1.328125,0 -1.40625,-0.09375 -1.40625,-0.890625 v -3.96875 c 0,-1.90625 1.15625,-3.328125 2.59375,-3.328125 1.53125,0 1.703125,1.359375 1.703125,2.359375 v 4.9375 c 0,0.78125 -0.09375,0.890625 -1.40625,0.890625 V 0 c 0.484375,-0.046875 1.40625,-0.046875 1.9375,-0.046875 0.53125,0 1.46875,0 1.96875,0.046875 v -0.53125 c -1.328125,0 -1.40625,-0.09375 -1.40625,-0.890625 z m 0,0"
                 id="path20" />
            </g>
            <g
               id="g22"
               transform="translate(213.78952,41.278)">
              <path
                 d="m 7.171875,-13.328125 c 0.25,-0.21875 0.3125,-0.265625 0.3125,-0.484375 0,-0.3125 -0.28125,-0.5625 -0.5625,-0.5625 -0.25,0 -0.328125,0.09375 -0.546875,0.34375 l -2.328125,2.984375 c -0.140625,0.1875 -0.140625,0.203125 -0.140625,0.21875 0,0.03125 0.1875,0.203125 0.21875,0.25 z m 0,0"
                 id="path21" />
            </g>
          </g>
          <g
             fill="#000000"
             fill-opacity="1"
             id="g26"
             transform="matrix(0.352778,0,0,0.352778,-66.1708,-8.65897)">
            <g
               id="g24"
               transform="translate(213.78125,41.278)">
              <path
                 d="m 7.4375,-5.34375 c 0,-1.375 0,-2.09375 -0.875,-2.890625 C 5.796875,-8.921875 4.921875,-9.125 4.21875,-9.125 c -1.640625,0 -2.8125,1.28125 -2.8125,2.640625 0,0.765625 0.625,0.796875 0.734375,0.796875 0.28125,0 0.75,-0.15625 0.75,-0.734375 0,-0.515625 -0.390625,-0.75 -0.75,-0.75 -0.078125,0 -0.171875,0.03125 -0.234375,0.046875 0.421875,-1.296875 1.546875,-1.671875 2.265625,-1.671875 1.03125,0 2.171875,0.90625 2.171875,2.640625 V -5.25 C 5.125,-5.203125 3.65625,-5.046875 2.5,-4.421875 c -1.296875,0.71875 -1.671875,1.75 -1.671875,2.546875 0,1.578125 1.859375,2.046875 2.953125,2.046875 1.140625,0 2.1875,-0.640625 2.640625,-1.828125 0.046875,0.90625 0.625,1.734375 1.53125,1.734375 0.4375,0 1.53125,-0.28125 1.53125,-1.921875 V -3 h -0.375 v 1.1875 c 0,1.25 -0.5625,1.421875 -0.828125,1.421875 C 7.4375,-0.390625 7.4375,-1.46875 7.4375,-2.375 Z M 6.34375,-2.875 c 0,1.796875 -1.28125,2.703125 -2.421875,2.703125 -1.03125,0 -1.828125,-0.75 -1.828125,-1.703125 0,-0.625 0.265625,-1.71875 1.453125,-2.375 1,-0.5625 2.140625,-0.640625 2.796875,-0.6875 z m 0,0"
                 id="path24" />
            </g>
            <g
               id="g25"
               transform="translate(223.25708,41.278)">
              <path
                 d="M 5.375,-4.8125 C 5.984375,-5.625 6.6875,-6.53125 7.265625,-7.203125 7.953125,-8 8.734375,-8.328125 9.640625,-8.34375 V -8.875 c -0.34375,0.015625 -1.0625,0.03125 -1.4375,0.03125 -0.5625,0 -1.203125,0 -1.671875,-0.03125 v 0.53125 c 0.28125,0.046875 0.453125,0.25 0.453125,0.53125 0,0.375 -0.203125,0.609375 -0.3125,0.75 L 5.140625,-5.125 3.328125,-7.5 c -0.1875,-0.21875 -0.1875,-0.265625 -0.1875,-0.375 0,-0.25 0.203125,-0.453125 0.5625,-0.46875 V -8.875 c -0.5,0.03125 -1.390625,0.03125 -1.90625,0.03125 -0.5625,0 -1.21875,0 -1.671875,-0.03125 v 0.53125 c 1.109375,0 1.359375,0.078125 1.859375,0.703125 l 2.375,3.078125 C 4.40625,-4.53125 4.5,-4.40625 4.5,-4.34375 4.5,-4.25 2.703125,-2.046875 2.484375,-1.75 c -0.9375,1.109375 -1.90625,1.1875 -2.46875,1.21875 V 0 C 0.375,-0.015625 1.09375,-0.046875 1.46875,-0.046875 c 0.40625,0 1.3125,0 1.6875,0.046875 v -0.53125 c -0.125,-0.03125 -0.453125,-0.0625 -0.453125,-0.546875 0,-0.375 0.171875,-0.59375 0.359375,-0.84375 L 4.765625,-4.03125 6.5625,-1.6875 c 0.171875,0.21875 0.421875,0.53125 0.421875,0.671875 0,0.296875 -0.25,0.453125 -0.578125,0.484375 V 0 c 0.5,-0.046875 1.375,-0.046875 1.890625,-0.046875 0.5625,0 1.21875,0 1.6875,0.046875 v -0.53125 c -1.046875,0 -1.34375,-0.046875 -1.84375,-0.6875 z m 0,0"
                 id="path25" />
            </g>
          </g>
        </g>
        <g
           inkscape:label=""
           transform="matrix(2.83464,0,0,2.83464,96.458945,184.95016)"
           id="g28">
          <g
             fill="#0000ff"
             fill-opacity="1"
             id="g3"
             transform="matrix(0.352778,0,0,0.352778,-70.3088,-6.73488)">
            <g
               id="use2"
               transform="translate(198.285,35.466)">
              <path
                 d="m 10.328125,-3.84375 h -0.4375 C 9.640625,-2.078125 9.4375,-1.78125 9.34375,-1.640625 9.21875,-1.4375 7.4375,-1.4375 7.09375,-1.4375 H 2.328125 c 0.890625,-0.96875 2.625,-2.71875 4.734375,-4.75 1.515625,-1.4375 3.265625,-3.125 3.265625,-5.578125 C 10.328125,-14.6875 8,-16.375 5.40625,-16.375 c -2.734375,0 -4.390625,2.390625 -4.390625,4.625 0,0.96875 0.71875,1.09375 1.015625,1.09375 0.25,0 0.984375,-0.140625 0.984375,-1.015625 0,-0.765625 -0.640625,-0.984375 -0.984375,-0.984375 -0.140625,0 -0.296875,0.01563 -0.390625,0.0625 0.46875,-2.09375 1.90625,-3.140625 3.421875,-3.140625 2.15625,0 3.5625,1.703125 3.5625,3.96875 0,2.15625 -1.265625,4.015625 -2.671875,5.625 L 1.015625,-0.5625 V 0 h 8.71875 z m 0,0"
                 id="path27" />
            </g>
          </g>
          <g
             fill="#0000ff"
             fill-opacity="1"
             id="g4"
             transform="matrix(0.352778,0,0,0.352778,-70.3088,-6.73488)">
            <g
               id="use3"
               transform="translate(209.653,35.466)">
              <path
                 d="m 7.453125,-2.953125 c -0.125,0.421875 -0.125,0.46875 -0.46875,0.953125 -0.546875,0.6875 -1.625,1.75 -2.796875,1.75 -1.015625,0 -1.578125,-0.921875 -1.578125,-2.375 0,-1.359375 0.765625,-4.140625 1.234375,-5.1875 0.84375,-1.734375 2,-2.625 2.96875,-2.625 1.640625,0 1.953125,2.03125 1.953125,2.234375 0,0.03125 -0.0625,0.34375 -0.09375,0.390625 z m 1.59375,-6.34375 c -0.28125,-0.640625 -0.9375,-1.625 -2.234375,-1.625 -2.796875,0 -5.828125,3.609375 -5.828125,7.28125 0,2.453125 1.4375,3.890625 3.125,3.890625 1.375,0 2.53125,-1.0625 3.21875,-1.890625 C 7.578125,-0.171875 8.75,0.25 9.484375,0.25 c 0.75,0 1.34375,-0.453125 1.796875,-1.34375 0.390625,-0.84375 0.734375,-2.34375 0.734375,-2.453125 0,-0.125 -0.09375,-0.21875 -0.25,-0.21875 -0.21875,0 -0.25,0.125 -0.34375,0.5 C 11.046875,-1.8125 10.578125,-0.25 9.5625,-0.25 c -0.71875,0 -0.765625,-0.640625 -0.765625,-1.140625 0,-0.5625 0.078125,-0.84375 0.296875,-1.8125 0.171875,-0.609375 0.296875,-1.15625 0.5,-1.875 0.90625,-3.71875 1.140625,-4.609375 1.140625,-4.765625 0,-0.34375 -0.28125,-0.609375 -0.640625,-0.609375 -0.796875,0 -1,0.859375 -1.046875,1.15625 z m 0,0"
                 id="path28" />
            </g>
          </g>
        </g>
      </g>
    </g>
  </g>
</svg>
