<?xml version="1.0" encoding="UTF-8" standalone="no"?>
<!-- Created with Inkscape (http://www.inkscape.org/) -->

<svg
   width="153.95mm"
   height="97.905998mm"
   viewBox="0 0 153.94999 97.905999"
   version="1.1"
   id="svg1"
   inkscape:version="1.3 (0e150ed6c4, 2023-07-21)"
   sodipodi:docname="Fig-Redshift_gravitacional_2.svg"
   xmlns:inkscape="http://www.inkscape.org/namespaces/inkscape"
   xmlns:sodipodi="http://sodipodi.sourceforge.net/DTD/sodipodi-0.dtd"
   xmlns="http://www.w3.org/2000/svg"
   xmlns:svg="http://www.w3.org/2000/svg">
  <sodipodi:namedview
     id="namedview1"
     pagecolor="#ffffff"
     bordercolor="#000000"
     borderopacity="0.25"
     inkscape:showpageshadow="2"
     inkscape:pageopacity="0.0"
     inkscape:pagecheckerboard="0"
     inkscape:deskcolor="#d1d1d1"
     inkscape:document-units="mm"
     inkscape:zoom="1.0544998"
     inkscape:cx="202.46567"
     inkscape:cy="249.88151"
     inkscape:window-width="1920"
     inkscape:window-height="1051"
     inkscape:window-x="-9"
     inkscape:window-y="-9"
     inkscape:window-maximized="1"
     inkscape:current-layer="g16"
     showguides="true" />
  <defs
     id="defs1">
    <marker
       style="overflow:visible"
       id="marker87"
       refX="0"
       refY="0"
       orient="auto"
       inkscape:stockid="Stop"
       markerWidth="1"
       markerHeight="1"
       viewBox="0 0 1 1"
       inkscape:isstock="true"
       inkscape:collect="always"
       preserveAspectRatio="xMidYMid">
      <path
         style="fill:none;stroke:context-stroke;stroke-width:1"
         d="M 0,4 V -4"
         id="path87" />
    </marker>
    <marker
       style="overflow:visible"
       id="Stop"
       refX="0"
       refY="0"
       orient="auto"
       inkscape:stockid="Stop"
       markerWidth="1"
       markerHeight="1"
       viewBox="0 0 1 1"
       inkscape:isstock="true"
       inkscape:collect="always"
       preserveAspectRatio="xMidYMid">
      <path
         style="fill:none;stroke:context-stroke;stroke-width:1"
         d="M 0,4 V -4"
         id="path86" />
    </marker>
    <inkscape:path-effect
       effect="spiro"
       id="path-effect85"
       is_visible="true"
       lpeversion="1" />
    <inkscape:path-effect
       effect="spiro"
       id="path-effect15"
       is_visible="true"
       lpeversion="1" />
    <inkscape:path-effect
       effect="spiro"
       id="path-effect14"
       is_visible="true"
       lpeversion="1" />
    <inkscape:path-effect
       effect="spiro"
       id="path-effect13"
       is_visible="true"
       lpeversion="1" />
    <inkscape:path-effect
       effect="spiro"
       id="path-effect12"
       is_visible="true"
       lpeversion="1" />
    <marker
       style="overflow:visible"
       id="ArrowWideRounded"
       refX="0"
       refY="0"
       orient="auto-start-reverse"
       inkscape:stockid="Wide, rounded arrow"
       markerWidth="1"
       markerHeight="1"
       viewBox="0 0 1 1"
       inkscape:isstock="true"
       inkscape:collect="always"
       preserveAspectRatio="xMidYMid">
      <path
         style="fill:none;stroke:context-stroke;stroke-width:1;stroke-linecap:round"
         d="M 3,-3 0,0 3,3"
         transform="rotate(180,0.125,0)"
         sodipodi:nodetypes="ccc"
         id="path10" />
    </marker>
    <inkscape:path-effect
       effect="spiro"
       id="path-effect9"
       is_visible="true"
       lpeversion="1" />
    <marker
       style="overflow:visible"
       id="ArrowWideHeavy"
       refX="0"
       refY="0"
       orient="auto-start-reverse"
       inkscape:stockid="Wide, heavy arrow"
       markerWidth="1"
       markerHeight="1"
       viewBox="0 0 1 1"
       inkscape:isstock="true"
       inkscape:collect="always"
       preserveAspectRatio="xMidYMid">
      <path
         style="fill:context-stroke;fill-rule:evenodd;stroke:none"
         d="m 1,0 -3,3 h -2 l 3,-3 -3,-3 h 2 z"
         id="path8" />
    </marker>
    <inkscape:path-effect
       effect="spiro"
       id="path-effect6"
       is_visible="true"
       lpeversion="1" />
    <inkscape:path-effect
       effect="spiro"
       id="path-effect4"
       is_visible="true"
       lpeversion="1" />
    <inkscape:path-effect
       effect="spiro"
       id="path-effect3"
       is_visible="true"
       lpeversion="1" />
    <marker
       style="overflow:visible"
       id="ConcaveTriangle"
       refX="0"
       refY="0"
       orient="auto-start-reverse"
       inkscape:stockid="Concave triangle arrow"
       markerWidth="0.80000001"
       markerHeight="0.80000001"
       viewBox="0 0 1 1"
       inkscape:isstock="true"
       inkscape:collect="always"
       preserveAspectRatio="xMidYMid"
       markerUnits="strokeWidth">
      <path
         transform="scale(0.7)"
         d="M -2,-4 9,0 -2,4 c 2,-2.33 2,-5.66 0,-8 z"
         style="fill:context-stroke;fill-rule:evenodd;stroke:none"
         id="path7" />
    </marker>
    <inkscape:path-effect
       effect="spiro"
       id="path-effect2"
       is_visible="true"
       lpeversion="1" />
    <marker
       style="overflow:visible"
       id="ConcaveTriangle-1"
       refX="0"
       refY="0"
       orient="auto-start-reverse"
       inkscape:stockid="Concave triangle arrow"
       markerWidth="0.80000001"
       markerHeight="0.80000001"
       viewBox="0 0 1 1"
       inkscape:isstock="true"
       inkscape:collect="always"
       preserveAspectRatio="xMidYMid"
       markerUnits="strokeWidth">
      <path
         transform="scale(0.7)"
         d="M -2,-4 9,0 -2,4 c 2,-2.33 2,-5.66 0,-8 z"
         style="fill:context-stroke;fill-rule:evenodd;stroke:none"
         id="path7-3" />
    </marker>
    <inkscape:path-effect
       effect="spiro"
       id="path-effect2-5"
       is_visible="true"
       lpeversion="1" />
    <inkscape:path-effect
       effect="spiro"
       id="path-effect3-5"
       is_visible="true"
       lpeversion="1" />
    <inkscape:path-effect
       effect="spiro"
       id="path-effect3-3"
       is_visible="true"
       lpeversion="1" />
    <inkscape:path-effect
       effect="spiro"
       id="path-effect4-5"
       is_visible="true"
       lpeversion="1" />
    <inkscape:path-effect
       effect="spiro"
       id="path-effect4-5-2"
       is_visible="true"
       lpeversion="1" />
    <inkscape:path-effect
       effect="spiro"
       id="path-effect4-5-0"
       is_visible="true"
       lpeversion="1" />
    <marker
       style="overflow:visible"
       id="ArrowWideHeavy-0"
       refX="0"
       refY="0"
       orient="auto-start-reverse"
       inkscape:stockid="Wide, heavy arrow"
       markerWidth="1"
       markerHeight="1"
       viewBox="0 0 1 1"
       inkscape:isstock="true"
       inkscape:collect="always"
       preserveAspectRatio="xMidYMid">
      <path
         style="fill:context-stroke;fill-rule:evenodd;stroke:none"
         d="m 1,0 -3,3 h -2 l 3,-3 -3,-3 h 2 z"
         id="path8-9" />
    </marker>
    <inkscape:path-effect
       effect="spiro"
       id="path-effect6-5"
       is_visible="true"
       lpeversion="1" />
    <marker
       style="overflow:visible"
       id="ArrowWideRounded-4"
       refX="0"
       refY="0"
       orient="auto-start-reverse"
       inkscape:stockid="Wide, rounded arrow"
       markerWidth="1"
       markerHeight="1"
       viewBox="0 0 1 1"
       inkscape:isstock="true"
       inkscape:collect="always"
       preserveAspectRatio="xMidYMid">
      <path
         style="fill:none;stroke:context-stroke;stroke-width:1;stroke-linecap:round"
         d="M 3,-3 0,0 3,3"
         transform="rotate(180,0.125,0)"
         sodipodi:nodetypes="ccc"
         id="path10-3" />
    </marker>
    <inkscape:path-effect
       effect="spiro"
       id="path-effect9-3"
       is_visible="true"
       lpeversion="1" />
    <marker
       style="overflow:visible"
       id="Stop-7"
       refX="0"
       refY="0"
       orient="auto"
       inkscape:stockid="Stop"
       markerWidth="1"
       markerHeight="1"
       viewBox="0 0 1 1"
       inkscape:isstock="true"
       inkscape:collect="always"
       preserveAspectRatio="xMidYMid">
      <path
         style="fill:none;stroke:context-stroke;stroke-width:1"
         d="M 0,4 V -4"
         id="path86-0" />
    </marker>
    <marker
       style="overflow:visible"
       id="marker87-8"
       refX="0"
       refY="0"
       orient="auto"
       inkscape:stockid="Stop"
       markerWidth="1"
       markerHeight="1"
       viewBox="0 0 1 1"
       inkscape:isstock="true"
       inkscape:collect="always"
       preserveAspectRatio="xMidYMid">
      <path
         style="fill:none;stroke:context-stroke;stroke-width:1"
         d="M 0,4 V -4"
         id="path87-6" />
    </marker>
    <inkscape:path-effect
       effect="spiro"
       id="path-effect85-5"
       is_visible="true"
       lpeversion="1" />
  </defs>
  <g
     inkscape:label="Capa 1"
     inkscape:groupmode="layer"
     id="layer1"
     sodipodi:insensitive="true"
     style="display:none"
     transform="translate(-28.476075,-53.13723)">
    <path
       d="M 0,0 V 296.99999 M 10.583333,0 V 296.99999 M 21.166666,0 V 296.99999 M 31.749999,0 V 296.99999 M 42.333332,0 V 296.99999 M 52.916665,0 V 296.99999 M 63.499999,0 V 296.99999 M 74.083332,0 V 296.99999 M 84.666665,0 V 296.99999 M 95.249998,0 V 296.99999 M 105.83333,0 V 296.99999 M 116.41666,0 V 296.99999 M 127,0 V 296.99999 M 137.58333,0 V 296.99999 M 148.16666,0 V 296.99999 M 158.75,0 V 296.99999 M 169.33333,0 V 296.99999 M 179.91666,0 V 296.99999 M 190.5,0 V 296.99999 M 201.08333,0 V 296.99999 M 0,0 H 210 M 0,10.583333 H 210 M 0,21.166666 H 210 M 0,31.749999 H 210 M 0,42.333332 H 210 M 0,52.916665 H 210 M 0,63.499999 H 210 M 0,74.083332 H 210 M 0,84.666665 H 210 M 0,95.249998 H 210 M 0,105.83333 H 210 M 0,116.41666 H 210 M 0,127 H 210 M 0,137.58333 H 210 M 0,148.16666 H 210 M 0,158.75 H 210 M 0,169.33333 H 210 M 0,179.91666 H 210 M 0,190.5 H 210 M 0,201.08333 H 210 M 0,211.66666 H 210 M 0,222.24999 H 210 M 0,232.83333 H 210 M 0,243.41666 H 210 M 0,253.99999 H 210 M 0,264.58333 H 210 M 0,275.16666 H 210 M 0,285.74999 H 210 M 0,296.33333 h 210"
       style="opacity:0.404598;fill:none;stroke:#000000;stroke-width:0.264583px"
       id="path1" />
  </g>
  <g
     inkscape:groupmode="layer"
     id="layer4"
     inkscape:label="Linea de mundo 1"
     transform="translate(-28.476075,-53.13723)">
    <path
       style="opacity:1;fill:#000000;fill-opacity:1;stroke:#838383;stroke-width:0.5;stroke-linecap:round;stroke-linejoin:round;stroke-dasharray:3, 3;stroke-dashoffset:0;stroke-opacity:1"
       d="M 95.274192,127.03226 42.048387,126.85484"
       id="path12"
       inkscape:path-effect="#path-effect12"
       inkscape:original-d="M 95.274192,127.03226 42.048387,126.85484"
       transform="translate(10.054167,1.5875)" />
    <path
       style="opacity:1;fill:#000000;fill-opacity:1;stroke:#838383;stroke-width:0.5;stroke-linecap:round;stroke-linejoin:round;stroke-dasharray:3, 3;stroke-dashoffset:0;stroke-opacity:1"
       d="M 137.76613,107.33871 42.491935,107.16129"
       id="path13"
       inkscape:path-effect="#path-effect13"
       inkscape:original-d="M 137.76613,107.33871 42.491935,107.16129"
       transform="translate(10.054167,1.5875)" />
    <path
       style="opacity:1;fill:#000000;fill-opacity:1;stroke:#838383;stroke-width:0.5;stroke-linecap:round;stroke-linejoin:round;stroke-dasharray:3, 3;stroke-dashoffset:0;stroke-opacity:1"
       d="M 95.274192,95.096773 42.403225,95.008064"
       id="path14"
       inkscape:path-effect="#path-effect14"
       inkscape:original-d="M 95.274192,95.096773 42.403225,95.008064"
       transform="translate(10.054167,1.5875)" />
    <path
       style="opacity:1;fill:#000000;fill-opacity:1;stroke:#838383;stroke-width:0.5;stroke-linecap:round;stroke-linejoin:round;stroke-dasharray:3, 3;stroke-dashoffset:0;stroke-opacity:1"
       d="M 137.76613,73.98387 42.669354,73.895161"
       id="path15"
       inkscape:path-effect="#path-effect15"
       inkscape:original-d="M 137.76613,73.98387 42.669354,73.895161"
       transform="translate(10.054167,1.5875)" />
  </g>
  <g
     inkscape:groupmode="layer"
     id="layer3"
     inkscape:label="Linea de mundo"
     transform="translate(-28.476075,-53.13723)">
    <path
       style="fill:#ffffff;stroke:#1100ff;stroke-width:0.799999;stroke-linecap:round;stroke-linejoin:round;stroke-dasharray:none;stroke-dashoffset:8.20157;stroke-opacity:1"
       d="M 95.21991,137.62351 V 64.734484"
       id="path4"
       inkscape:path-effect="#path-effect4-5"
       inkscape:original-d="M 95.21991,137.62351 V 64.734484"
       transform="translate(10.12269,1.5604395)" />
    <path
       style="opacity:1;fill:#ffffff;stroke:#1100ff;stroke-width:0.799999;stroke-linecap:round;stroke-linejoin:round;stroke-dasharray:none;stroke-dashoffset:8.20157;stroke-opacity:1;marker-end:url(#ArrowWideHeavy)"
       d="m 105.78629,105.78629 v -3.50403"
       id="path6"
       inkscape:path-effect="#path-effect6"
       inkscape:original-d="m 105.78629,105.78629 v -3.50403"
       transform="translate(-0.44224776,-1.8878591)" />
    <path
       style="fill:#ffffff;stroke:#1100ff;stroke-width:0.799999;stroke-linecap:round;stroke-linejoin:round;stroke-dasharray:none;stroke-dashoffset:8.20157;stroke-opacity:1"
       d="M 95.21991,137.62351 V 64.734484"
       id="path4-2"
       inkscape:path-effect="#path-effect4-5-0"
       inkscape:original-d="M 95.21991,137.62351 V 64.734484"
       transform="translate(52.512177,1.8506181)" />
    <path
       style="fill:#ffffff;stroke:#1100ff;stroke-width:0.799999;stroke-linecap:round;stroke-linejoin:round;stroke-dasharray:none;stroke-dashoffset:8.20157;stroke-opacity:1;marker-end:url(#ArrowWideHeavy-0)"
       d="m 105.78629,105.78629 v -3.50403"
       id="path6-2"
       inkscape:path-effect="#path-effect6-5"
       inkscape:original-d="m 105.78629,105.78629 v -3.50403"
       transform="translate(41.94724,-1.5976799)" />
  </g>
  <g
     inkscape:groupmode="layer"
     id="layer2"
     inkscape:label="Gráfico"
     transform="translate(-28.476075,-53.13723)">
    <path
       style="opacity:1;fill:#ffffff;stroke:#000000;stroke-width:0.7;stroke-linecap:round;stroke-linejoin:round;stroke-dasharray:none;stroke-dashoffset:8.20157;stroke-opacity:1;marker-end:url(#ConcaveTriangle)"
       d="M 42.403225,137.54436 147.96774,137.5"
       id="path2"
       inkscape:path-effect="#path-effect2"
       inkscape:original-d="M 42.403225,137.54436 147.96774,137.5"
       sodipodi:nodetypes="cc"
       transform="translate(10.054167,1.5875)" />
    <path
       style="fill:#ffffff;stroke:#000000;stroke-width:0.7;stroke-linecap:round;stroke-linejoin:round;stroke-dasharray:none;stroke-dashoffset:8.20157;stroke-opacity:1;marker-end:url(#ConcaveTriangle-1)"
       d="m 80.193622,137.51672 73.806418,-0.10277"
       id="path2-5"
       inkscape:path-effect="#path-effect2-5"
       inkscape:original-d="m 80.193622,137.51672 73.806418,-0.10277"
       transform="rotate(-90.025224,67.010884,152.04318)"
       sodipodi:nodetypes="cc" />
    <path
       style="opacity:1;fill:#ffffff;stroke:#000000;stroke-width:0.799999;stroke-linecap:round;stroke-linejoin:round;stroke-dasharray:none;stroke-dashoffset:8.20157;stroke-opacity:1"
       d="m 63.479941,134.23624 -0.06669,4.64159"
       id="path3"
       inkscape:path-effect="#path-effect3"
       inkscape:original-d="m 63.479941,134.23624 -0.06669,4.64159"
       transform="rotate(-0.73626531,263.43672,-648.70073)"
       sodipodi:nodetypes="cc" />
    <path
       style="fill:#ffffff;stroke:#000000;stroke-width:0.799999;stroke-linecap:round;stroke-linejoin:round;stroke-dasharray:none;stroke-dashoffset:8.20157;stroke-opacity:1"
       d="m 63.479941,134.23624 -0.06669,4.64159"
       id="path3-1"
       inkscape:path-effect="#path-effect3-5"
       inkscape:original-d="m 63.479941,134.23624 -0.06669,4.64159"
       transform="rotate(-0.73626531,278.89098,-3123.0992)"
       sodipodi:nodetypes="cc" />
    <path
       style="fill:#ffffff;stroke:#000000;stroke-width:0.799999;stroke-linecap:round;stroke-linejoin:round;stroke-dasharray:none;stroke-dashoffset:8.20157;stroke-opacity:1"
       d="m 63.479941,134.23624 -0.06669,4.64159"
       id="path3-8"
       inkscape:path-effect="#path-effect3-3"
       inkscape:original-d="m 63.479941,134.23624 -0.06669,4.64159"
       transform="rotate(-0.73626531,306.03677,-6420.2462)"
       sodipodi:nodetypes="cc" />
    <path
       style="opacity:1;fill:none;stroke:#ff0100;stroke-width:0.7;stroke-linecap:round;stroke-linejoin:round;stroke-dasharray:none;stroke-dashoffset:8.20157;stroke-opacity:1;marker-end:url(#ArrowWideRounded)"
       d="m 96.452931,127.24123 c 0.641323,-2.23008 1.888962,-4.2826 3.573359,-5.87864 1.68441,-1.59603 3.80112,-2.73136 6.06249,-3.2517 2.54211,-0.58493 5.19342,-0.39768 7.78702,-0.11888 2.59359,0.27879 5.20256,0.64644 7.80054,0.41207 2.81132,-0.25361 5.55503,-1.2243 7.90038,-2.79504 2.34534,-1.57074 4.28747,-3.7383 5.59227,-6.24137"
       id="path9"
       inkscape:path-effect="#path-effect9"
       inkscape:original-d="m 96.452931,127.24123 c 1.620218,-6.34983 22.143139,30.67742 9.635849,-9.13034 -0.97607,-3.10662 12.26548,1.24235 15.58756,0.29319 5.12451,-1.46415 10.34786,-7.28004 13.49265,-9.03641"
       transform="translate(10.367803,1.4620456)"
       sodipodi:nodetypes="cssc" />
    <path
       style="fill:none;stroke:#ff0100;stroke-width:0.7;stroke-linecap:round;stroke-linejoin:round;stroke-dasharray:none;stroke-dashoffset:8.20157;stroke-opacity:1;marker-end:url(#ArrowWideRounded-4)"
       d="m 96.452931,127.24123 c 0.641323,-2.23008 1.888962,-4.2826 3.573359,-5.87864 1.68441,-1.59603 3.80112,-2.73136 6.06249,-3.2517 2.54211,-0.58493 5.19342,-0.39768 7.78702,-0.11888 2.59359,0.27879 5.20256,0.64644 7.80054,0.41207 2.81132,-0.25361 5.55503,-1.2243 7.90038,-2.79504 2.34534,-1.57074 4.28747,-3.7383 5.59227,-6.24137"
       id="path9-7"
       inkscape:path-effect="#path-effect9-3"
       inkscape:original-d="m 96.452931,127.24123 c 1.620218,-6.34983 22.143139,30.67742 9.635849,-9.13034 -0.97607,-3.10662 12.26548,1.24235 15.58756,0.29319 5.12451,-1.46415 10.34786,-7.28004 13.49265,-9.03641"
       transform="translate(10.286917,-31.589001)"
       sodipodi:nodetypes="cssc" />
    <circle
       style="opacity:1;fill:#000000;fill-opacity:1;stroke:#000000;stroke-width:0.7;stroke-linecap:round;stroke-linejoin:round;stroke-dasharray:none;stroke-dashoffset:8.20157;stroke-opacity:1"
       id="path11"
       cx="105.21136"
       cy="128.59488"
       r="1.1" />
    <circle
       style="fill:#000000;fill-opacity:1;stroke:#000000;stroke-width:0.7;stroke-linecap:round;stroke-linejoin:round;stroke-dasharray:none;stroke-dashoffset:8.20157;stroke-opacity:1"
       id="path11-3"
       cx="147.81795"
       cy="108.91998"
       r="1.1" />
    <circle
       style="fill:#000000;fill-opacity:1;stroke:#000000;stroke-width:0.7;stroke-linecap:round;stroke-linejoin:round;stroke-dasharray:none;stroke-dashoffset:8.20157;stroke-opacity:1"
       id="path11-31"
       cx="105.32613"
       cy="96.542679"
       r="1.1" />
    <circle
       style="fill:#000000;fill-opacity:1;stroke:#000000;stroke-width:0.7;stroke-linecap:round;stroke-linejoin:round;stroke-dasharray:none;stroke-dashoffset:8.20157;stroke-opacity:1"
       id="path11-9"
       cx="147.62506"
       cy="75.490662"
       r="1.1" />
  </g>
  <g
     inkscape:groupmode="layer"
     id="layer5"
     inkscape:label="LaTeX"
     transform="translate(-28.476075,-53.13723)">
    <g
       inkscape:label=""
       transform="translate(114.347,101.04)"
       id="g23">
      <g
         inkscape:label=""
         id="g16">
        <g
           fill="#000000"
           fill-opacity="1"
           id="g2"
           transform="matrix(0.352778,0,0,0.352778,-120.92955,38.946569)">
          <g
             id="use1"
             transform="translate(217.436,26.899)">
            <path
               d="m 7.59375,-12.703125 c 0.1875,-0.765625 0.28125,-0.8125 1.078125,-0.8125 h 1.484375 c 1.78125,0 3.109375,0.546875 3.109375,2.15625 0,1.046875 -0.546875,4.09375 -4.6875,4.09375 h -2.34375 z m 2.875,5.6875 c 2.5625,-0.5625 4.5625,-2.21875 4.5625,-4 0,-1.609375 -1.625,-3.09375 -4.5,-3.09375 H 4.9375 c -0.40625,0 -0.59375,0 -0.59375,0.390625 0,0.203125 0.140625,0.203125 0.53125,0.203125 1.234375,0 1.234375,0.171875 1.234375,0.40625 0,0.03125 0,0.15625 -0.078125,0.46875 L 3.25,-1.53125 c -0.1875,0.71875 -0.234375,0.9375 -1.65625,0.9375 -0.484375,0 -0.625,0 -0.625,0.390625 C 0.96875,0 1.203125,0 1.265625,0 1.625,0 2.0625,-0.046875 2.453125,-0.046875 h 2.4375 c 0.375,0 0.8125,0.046875 1.1875,0.046875 0.15625,0 0.390625,0 0.390625,-0.390625 0,-0.203125 -0.1875,-0.203125 -0.5,-0.203125 -1.265625,0 -1.265625,-0.171875 -1.265625,-0.375 0,-0.015625 0,-0.171875 0.046875,-0.328125 l 1.390625,-5.5625 h 2.46875 c 1.96875,0 2.34375,1.234375 2.34375,1.921875 0,0.3125 -0.21875,1.109375 -0.359375,1.65625 -0.21875,0.953125 -0.28125,1.171875 -0.28125,1.5625 0,1.46875 1.1875,2.15625 2.578125,2.15625 1.671875,0 2.390625,-2.046875 2.390625,-2.34375 0,-0.140625 -0.09375,-0.203125 -0.21875,-0.203125 -0.171875,0 -0.203125,0.125 -0.25,0.296875 -0.5,1.46875 -1.34375,1.828125 -1.859375,1.828125 -0.515625,0 -0.84375,-0.21875 -0.84375,-1.15625 0,-0.484375 0.25,-2.375 0.265625,-2.46875 0.09375,-0.765625 0.09375,-0.859375 0.09375,-1.015625 0,-1.515625 -1.21875,-2.15625 -2,-2.390625 z m 0,0"
               id="path16" />
          </g>
        </g>
        <g
           inkscape:label=""
           id="g26"
           transform="translate(-75.107117,23.94234)">
          <g
             fill="#000000"
             fill-opacity="1"
             id="g5"
             transform="matrix(0.352778,0,0,0.352778,-74.0266,-4.93633)">
            <g
               id="use4"
               transform="translate(209.011,26.899)">
              <path
                 d="m 8.078125,-7.765625 c -0.390625,0 -0.578125,0 -0.875,0.25 -0.125,0.09375 -0.34375,0.40625 -0.34375,0.734375 0,0.421875 0.3125,0.671875 0.703125,0.671875 0.5,0 1.046875,-0.421875 1.046875,-1.25 0,-0.984375 -0.953125,-1.75 -2.375,-1.75 -2.703125,0 -5.40625,2.953125 -5.40625,5.890625 0,1.796875 1.109375,3.421875 3.21875,3.421875 2.8125,0 4.59375,-2.1875 4.59375,-2.453125 0,-0.125 -0.125,-0.234375 -0.21875,-0.234375 -0.0625,0 -0.078125,0.03125 -0.265625,0.21875 -1.3125,1.75 -3.28125,2.0625 -4.0625,2.0625 -1.421875,0 -1.890625,-1.25 -1.890625,-2.28125 0,-0.71875 0.359375,-2.71875 1.109375,-4.125 0.53125,-0.96875 1.640625,-2.09375 2.953125,-2.09375 0.265625,0 1.390625,0.046875 1.8125,0.9375 z m 0,0"
                 id="path23" />
            </g>
            <g
               id="use5"
               transform="translate(217.71819,26.899)">
              <path
                 d="m 4.15625,-8.296875 h 1.890625 c 0.390625,0 0.609375,0 0.609375,-0.375 0,-0.234375 -0.125,-0.234375 -0.546875,-0.234375 h -1.8125 L 5.0625,-11.921875 c 0.078125,-0.28125 0.078125,-0.328125 0.078125,-0.46875 0,-0.328125 -0.265625,-0.515625 -0.53125,-0.515625 -0.171875,0 -0.640625,0.0625 -0.8125,0.71875 L 3,-8.90625 H 1.046875 c -0.40625,0 -0.59375,0 -0.59375,0.390625 0,0.21875 0.140625,0.21875 0.53125,0.21875 h 1.84375 L 1.46875,-2.84375 c -0.171875,0.71875 -0.234375,0.921875 -0.234375,1.1875 0,0.96875 0.6875,1.859375 1.84375,1.859375 2.09375,0 3.203125,-3.015625 3.203125,-3.15625 0,-0.125 -0.078125,-0.1875 -0.203125,-0.1875 -0.046875,0 -0.125,0 -0.171875,0.078125 -0.015625,0.03125 -0.046875,0.046875 -0.1875,0.375 -0.4375,1.03125 -1.375,2.484375 -2.578125,2.484375 -0.625,0 -0.65625,-0.515625 -0.65625,-0.96875 0,-0.03125 0,-0.421875 0.0625,-0.671875 z m 0,0"
                 id="path24" />
            </g>
          </g>
          <g
             fill="#000000"
             fill-opacity="1"
             id="g6"
             transform="matrix(0.352778,0,0,0.352778,-74.0266,-4.93633)">
            <g
               id="use6"
               transform="translate(225.024,29.997999)">
              <path
                 d="M 9.15625,-3.671875 H 8.828125 c -0.34375,2.234375 -0.6875,3.25 -3.109375,3.25 H 3.765625 c -0.625,0 -0.65625,-0.09375 -0.65625,-0.5625 v -3.875 h 1.3125 c 1.375,0 1.53125,0.4375 1.53125,1.671875 h 0.3125 v -3.765625 h -0.3125 c 0,1.234375 -0.15625,1.671875 -1.53125,1.671875 h -1.3125 v -3.5 c 0,-0.46875 0.03125,-0.578125 0.65625,-0.578125 H 5.6875 c 2.09375,0 2.546875,0.71875 2.765625,2.796875 h 0.3125 l -0.375,-3.203125 H 0.59375 v 0.40625 H 0.875 c 1.03125,0 1.078125,0.15625 1.078125,0.6875 v 7.578125 c 0,0.53125 -0.046875,0.671875 -1.078125,0.671875 H 0.59375 V 0 h 7.984375 z m 0,0"
                 id="path25" />
            </g>
          </g>
          <g
             fill="#000000"
             fill-opacity="1"
             id="g7"
             transform="matrix(0.352778,0,0,0.352778,-74.0266,-4.93633)">
            <g
               id="use7"
               transform="translate(234.582,32.761002)">
              <path
                 d="m 3.4375,-7.65625 c 0,-0.28125 0,-0.296875 -0.234375,-0.296875 C 2.921875,-7.625 2.3125,-7.1875 1.09375,-7.1875 v 0.34375 c 0.265625,0 0.859375,0 1.53125,-0.296875 v 6.21875 c 0,0.4375 -0.046875,0.578125 -1.09375,0.578125 h -0.375 V 0 c 0.328125,-0.03125 1.484375,-0.03125 1.875,-0.03125 0.40625,0 1.546875,0 1.875,0.03125 v -0.34375 h -0.375 c -1.046875,0 -1.09375,-0.140625 -1.09375,-0.578125 z m 0,0"
                 id="path26" />
            </g>
          </g>
        </g>
        <g
           inkscape:label=""
           id="g34"
           transform="translate(-75.639375,-7.8157257)">
          <g
             fill="#000000"
             fill-opacity="1"
             id="g29"
             transform="matrix(0.352778,0,0,0.352778,-74.0266,-4.93633)">
            <g
               id="g27"
               transform="translate(209.011,26.899)">
              <path
                 d="m 8.078125,-7.765625 c -0.390625,0 -0.578125,0 -0.875,0.25 -0.125,0.09375 -0.34375,0.40625 -0.34375,0.734375 0,0.421875 0.3125,0.671875 0.703125,0.671875 0.5,0 1.046875,-0.421875 1.046875,-1.25 0,-0.984375 -0.953125,-1.75 -2.375,-1.75 -2.703125,0 -5.40625,2.953125 -5.40625,5.890625 0,1.796875 1.109375,3.421875 3.21875,3.421875 2.8125,0 4.59375,-2.1875 4.59375,-2.453125 0,-0.125 -0.125,-0.234375 -0.21875,-0.234375 -0.0625,0 -0.078125,0.03125 -0.265625,0.21875 -1.3125,1.75 -3.28125,2.0625 -4.0625,2.0625 -1.421875,0 -1.890625,-1.25 -1.890625,-2.28125 0,-0.71875 0.359375,-2.71875 1.109375,-4.125 0.53125,-0.96875 1.640625,-2.09375 2.953125,-2.09375 0.265625,0 1.390625,0.046875 1.8125,0.9375 z m 0,0"
                 id="path27" />
            </g>
            <g
               id="g28"
               transform="translate(217.71819,26.899)">
              <path
                 d="m 4.15625,-8.296875 h 1.890625 c 0.390625,0 0.609375,0 0.609375,-0.375 0,-0.234375 -0.125,-0.234375 -0.546875,-0.234375 h -1.8125 L 5.0625,-11.921875 c 0.078125,-0.28125 0.078125,-0.328125 0.078125,-0.46875 0,-0.328125 -0.265625,-0.515625 -0.53125,-0.515625 -0.171875,0 -0.640625,0.0625 -0.8125,0.71875 L 3,-8.90625 H 1.046875 c -0.40625,0 -0.59375,0 -0.59375,0.390625 0,0.21875 0.140625,0.21875 0.53125,0.21875 h 1.84375 L 1.46875,-2.84375 c -0.171875,0.71875 -0.234375,0.921875 -0.234375,1.1875 0,0.96875 0.6875,1.859375 1.84375,1.859375 2.09375,0 3.203125,-3.015625 3.203125,-3.15625 0,-0.125 -0.078125,-0.1875 -0.203125,-0.1875 -0.046875,0 -0.125,0 -0.171875,0.078125 -0.015625,0.03125 -0.046875,0.046875 -0.1875,0.375 -0.4375,1.03125 -1.375,2.484375 -2.578125,2.484375 -0.625,0 -0.65625,-0.515625 -0.65625,-0.96875 0,-0.03125 0,-0.421875 0.0625,-0.671875 z m 0,0"
                 id="path28" />
            </g>
          </g>
          <g
             fill="#000000"
             fill-opacity="1"
             id="g31"
             transform="matrix(0.352778,0,0,0.352778,-74.0266,-4.93633)">
            <g
               id="g30"
               transform="translate(225.024,29.997999)">
              <path
                 d="M 9.15625,-3.671875 H 8.828125 c -0.34375,2.234375 -0.6875,3.25 -3.109375,3.25 H 3.765625 c -0.625,0 -0.65625,-0.09375 -0.65625,-0.5625 v -3.875 h 1.3125 c 1.375,0 1.53125,0.4375 1.53125,1.671875 h 0.3125 v -3.765625 h -0.3125 c 0,1.234375 -0.15625,1.671875 -1.53125,1.671875 h -1.3125 v -3.5 c 0,-0.46875 0.03125,-0.578125 0.65625,-0.578125 H 5.6875 c 2.09375,0 2.546875,0.71875 2.765625,2.796875 h 0.3125 l -0.375,-3.203125 H 0.59375 v 0.40625 H 0.875 c 1.03125,0 1.078125,0.15625 1.078125,0.6875 v 7.578125 c 0,0.53125 -0.046875,0.671875 -1.078125,0.671875 H 0.59375 V 0 h 7.984375 z m 0,0"
                 id="path29" />
            </g>
          </g>
          <g
             fill="#000000"
             fill-opacity="1"
             id="g33"
             transform="matrix(0.352778,0,0,0.352778,-74.0266,-4.93633)">
            <g
               id="g32"
               transform="translate(234.582,32.761002)">
              <path
                 d="M 5.265625,-2.015625 H 5 c -0.046875,0.203125 -0.140625,0.875 -0.25,1.0625 C 4.65625,-0.84375 3.984375,-0.84375 3.625,-0.84375 H 1.40625 c 0.328125,-0.28125 1.0625,-1.046875 1.359375,-1.328125 1.828125,-1.671875 2.5,-2.296875 2.5,-3.484375 0,-1.375 -1.09375,-2.296875 -2.484375,-2.296875 -1.375,0 -2.203125,1.1875 -2.203125,2.21875 0,0.609375 0.53125,0.609375 0.5625,0.609375 0.265625,0 0.5625,-0.1875 0.5625,-0.5625 0,-0.34375 -0.21875,-0.5625 -0.5625,-0.5625 -0.09375,0 -0.125,0 -0.15625,0.015625 0.21875,-0.8125 0.875,-1.375 1.640625,-1.375 1.015625,0 1.640625,0.859375 1.640625,1.953125 C 4.265625,-4.640625 3.6875,-3.75 3,-2.984375 L 0.578125,-0.28125 V 0 h 4.375 z m 0,0"
                 id="path31" />
            </g>
          </g>
        </g>
        <g
           inkscape:label=""
           id="g42"
           transform="translate(-75.816795,-29.511571)">
          <g
             fill="#000000"
             fill-opacity="1"
             id="g37"
             transform="matrix(0.352778,0,0,0.352778,-73.889,-4.93633)">
            <g
               id="g35"
               transform="translate(208.621,26.899)">
              <path
                 d="m 8.078125,-7.765625 c -0.390625,0 -0.578125,0 -0.875,0.25 -0.125,0.09375 -0.34375,0.40625 -0.34375,0.734375 0,0.421875 0.3125,0.671875 0.703125,0.671875 0.5,0 1.046875,-0.421875 1.046875,-1.25 0,-0.984375 -0.953125,-1.75 -2.375,-1.75 -2.703125,0 -5.40625,2.953125 -5.40625,5.890625 0,1.796875 1.109375,3.421875 3.21875,3.421875 2.8125,0 4.59375,-2.1875 4.59375,-2.453125 0,-0.125 -0.125,-0.234375 -0.21875,-0.234375 -0.0625,0 -0.078125,0.03125 -0.265625,0.21875 -1.3125,1.75 -3.28125,2.0625 -4.0625,2.0625 -1.421875,0 -1.890625,-1.25 -1.890625,-2.28125 0,-0.71875 0.359375,-2.71875 1.109375,-4.125 0.53125,-0.96875 1.640625,-2.09375 2.953125,-2.09375 0.265625,0 1.390625,0.046875 1.8125,0.9375 z m 0,0"
                 id="path34" />
            </g>
            <g
               id="g36"
               transform="translate(217.32817,26.899)">
              <path
                 d="m 4.15625,-8.296875 h 1.890625 c 0.390625,0 0.609375,0 0.609375,-0.375 0,-0.234375 -0.125,-0.234375 -0.546875,-0.234375 h -1.8125 L 5.0625,-11.921875 c 0.078125,-0.28125 0.078125,-0.328125 0.078125,-0.46875 0,-0.328125 -0.265625,-0.515625 -0.53125,-0.515625 -0.171875,0 -0.640625,0.0625 -0.8125,0.71875 L 3,-8.90625 H 1.046875 c -0.40625,0 -0.59375,0 -0.59375,0.390625 0,0.21875 0.140625,0.21875 0.53125,0.21875 h 1.84375 L 1.46875,-2.84375 c -0.171875,0.71875 -0.234375,0.921875 -0.234375,1.1875 0,0.96875 0.6875,1.859375 1.84375,1.859375 2.09375,0 3.203125,-3.015625 3.203125,-3.15625 0,-0.125 -0.078125,-0.1875 -0.203125,-0.1875 -0.046875,0 -0.125,0 -0.171875,0.078125 -0.015625,0.03125 -0.046875,0.046875 -0.1875,0.375 -0.4375,1.03125 -1.375,2.484375 -2.578125,2.484375 -0.625,0 -0.65625,-0.515625 -0.65625,-0.96875 0,-0.03125 0,-0.421875 0.0625,-0.671875 z m 0,0"
                 id="path35" />
            </g>
          </g>
          <g
             fill="#000000"
             fill-opacity="1"
             id="g39"
             transform="matrix(0.352778,0,0,0.352778,-73.889,-4.93633)">
            <g
               id="g38"
               transform="translate(224.634,29.997999)">
              <path
                 d="m 6.046875,-4.875 c 1.421875,-0.328125 2.53125,-1.234375 2.53125,-2.34375 0,-1.390625 -1.625,-2.578125 -3.6875,-2.578125 H 0.609375 V -9.375 h 0.28125 c 1.03125,0 1.078125,0.140625 1.078125,0.671875 v 7.609375 c 0,0.53125 -0.046875,0.671875 -1.078125,0.671875 H 0.609375 V 0 c 0.328125,-0.03125 1.5,-0.03125 1.921875,-0.03125 0.40625,0 1.59375,0 1.921875,0.03125 v -0.421875 h -0.28125 c -1.03125,0 -1.078125,-0.140625 -1.078125,-0.671875 v -3.671875 h 1.671875 c 0.5625,0 1.09375,0.15625 1.46875,0.5625 0.5,0.546875 0.5,0.84375 0.5,1.84375 0,1.125 0,1.5 0.625,2.109375 0.21875,0.21875 0.8125,0.546875 1.625,0.546875 1.109375,0 1.296875,-1.25 1.296875,-1.546875 0,-0.078125 0,-0.21875 -0.15625,-0.21875 -0.140625,0 -0.140625,0.09375 -0.15625,0.234375 -0.078125,0.859375 -0.484375,1.25 -0.953125,1.25 -0.65625,0 -0.796875,-0.671875 -0.90625,-1.4375 C 8.09375,-1.515625 8,-2.140625 7.953125,-2.5 7.859375,-3.21875 7.796875,-3.671875 7.375,-4.109375 7.21875,-4.28125 6.84375,-4.65625 6.046875,-4.875 Z M 4.703125,-5.046875 H 3.09375 V -8.8125 c 0,-0.328125 0,-0.5 0.3125,-0.546875 C 3.53125,-9.375 3.953125,-9.375 4.25,-9.375 c 1.15625,0 3,0 3,2.15625 0,1.25 -0.6875,2.171875 -2.546875,2.171875 z m 0,0"
                 id="path37" />
            </g>
          </g>
          <g
             fill="#000000"
             fill-opacity="1"
             id="g41"
             transform="matrix(0.352778,0,0,0.352778,-73.889,-4.93633)">
            <g
               id="g40"
               transform="translate(234.972,32.761002)">
              <path
                 d="M 5.265625,-2.015625 H 5 c -0.046875,0.203125 -0.140625,0.875 -0.25,1.0625 C 4.65625,-0.84375 3.984375,-0.84375 3.625,-0.84375 H 1.40625 c 0.328125,-0.28125 1.0625,-1.046875 1.359375,-1.328125 1.828125,-1.671875 2.5,-2.296875 2.5,-3.484375 0,-1.375 -1.09375,-2.296875 -2.484375,-2.296875 -1.375,0 -2.203125,1.1875 -2.203125,2.21875 0,0.609375 0.53125,0.609375 0.5625,0.609375 0.265625,0 0.5625,-0.1875 0.5625,-0.5625 0,-0.34375 -0.21875,-0.5625 -0.5625,-0.5625 -0.09375,0 -0.125,0 -0.15625,0.015625 0.21875,-0.8125 0.875,-1.375 1.640625,-1.375 1.015625,0 1.640625,0.859375 1.640625,1.953125 C 4.265625,-4.640625 3.6875,-3.75 3,-2.984375 L 0.578125,-0.28125 V 0 h 4.375 z m 0,0"
                 id="path39" />
            </g>
          </g>
        </g>
        <g
           inkscape:label=""
           id="g50"
           transform="translate(-74.929698,4.0114166)">
          <g
             fill="#000000"
             fill-opacity="1"
             id="g45"
             transform="matrix(0.352778,0,0,0.352778,-73.889,-4.93633)">
            <g
               id="g43"
               transform="translate(208.621,26.899)">
              <path
                 d="m 8.078125,-7.765625 c -0.390625,0 -0.578125,0 -0.875,0.25 -0.125,0.09375 -0.34375,0.40625 -0.34375,0.734375 0,0.421875 0.3125,0.671875 0.703125,0.671875 0.5,0 1.046875,-0.421875 1.046875,-1.25 0,-0.984375 -0.953125,-1.75 -2.375,-1.75 -2.703125,0 -5.40625,2.953125 -5.40625,5.890625 0,1.796875 1.109375,3.421875 3.21875,3.421875 2.8125,0 4.59375,-2.1875 4.59375,-2.453125 0,-0.125 -0.125,-0.234375 -0.21875,-0.234375 -0.0625,0 -0.078125,0.03125 -0.265625,0.21875 -1.3125,1.75 -3.28125,2.0625 -4.0625,2.0625 -1.421875,0 -1.890625,-1.25 -1.890625,-2.28125 0,-0.71875 0.359375,-2.71875 1.109375,-4.125 0.53125,-0.96875 1.640625,-2.09375 2.953125,-2.09375 0.265625,0 1.390625,0.046875 1.8125,0.9375 z m 0,0"
                 id="path42" />
            </g>
            <g
               id="g44"
               transform="translate(217.32817,26.899)">
              <path
                 d="m 4.15625,-8.296875 h 1.890625 c 0.390625,0 0.609375,0 0.609375,-0.375 0,-0.234375 -0.125,-0.234375 -0.546875,-0.234375 h -1.8125 L 5.0625,-11.921875 c 0.078125,-0.28125 0.078125,-0.328125 0.078125,-0.46875 0,-0.328125 -0.265625,-0.515625 -0.53125,-0.515625 -0.171875,0 -0.640625,0.0625 -0.8125,0.71875 L 3,-8.90625 H 1.046875 c -0.40625,0 -0.59375,0 -0.59375,0.390625 0,0.21875 0.140625,0.21875 0.53125,0.21875 h 1.84375 L 1.46875,-2.84375 c -0.171875,0.71875 -0.234375,0.921875 -0.234375,1.1875 0,0.96875 0.6875,1.859375 1.84375,1.859375 2.09375,0 3.203125,-3.015625 3.203125,-3.15625 0,-0.125 -0.078125,-0.1875 -0.203125,-0.1875 -0.046875,0 -0.125,0 -0.171875,0.078125 -0.015625,0.03125 -0.046875,0.046875 -0.1875,0.375 -0.4375,1.03125 -1.375,2.484375 -2.578125,2.484375 -0.625,0 -0.65625,-0.515625 -0.65625,-0.96875 0,-0.03125 0,-0.421875 0.0625,-0.671875 z m 0,0"
                 id="path43" />
            </g>
          </g>
          <g
             fill="#000000"
             fill-opacity="1"
             id="g47"
             transform="matrix(0.352778,0,0,0.352778,-73.889,-4.93633)">
            <g
               id="g46"
               transform="translate(224.634,29.997999)">
              <path
                 d="m 6.046875,-4.875 c 1.421875,-0.328125 2.53125,-1.234375 2.53125,-2.34375 0,-1.390625 -1.625,-2.578125 -3.6875,-2.578125 H 0.609375 V -9.375 h 0.28125 c 1.03125,0 1.078125,0.140625 1.078125,0.671875 v 7.609375 c 0,0.53125 -0.046875,0.671875 -1.078125,0.671875 H 0.609375 V 0 c 0.328125,-0.03125 1.5,-0.03125 1.921875,-0.03125 0.40625,0 1.59375,0 1.921875,0.03125 v -0.421875 h -0.28125 c -1.03125,0 -1.078125,-0.140625 -1.078125,-0.671875 v -3.671875 h 1.671875 c 0.5625,0 1.09375,0.15625 1.46875,0.5625 0.5,0.546875 0.5,0.84375 0.5,1.84375 0,1.125 0,1.5 0.625,2.109375 0.21875,0.21875 0.8125,0.546875 1.625,0.546875 1.109375,0 1.296875,-1.25 1.296875,-1.546875 0,-0.078125 0,-0.21875 -0.15625,-0.21875 -0.140625,0 -0.140625,0.09375 -0.15625,0.234375 -0.078125,0.859375 -0.484375,1.25 -0.953125,1.25 -0.65625,0 -0.796875,-0.671875 -0.90625,-1.4375 C 8.09375,-1.515625 8,-2.140625 7.953125,-2.5 7.859375,-3.21875 7.796875,-3.671875 7.375,-4.109375 7.21875,-4.28125 6.84375,-4.65625 6.046875,-4.875 Z M 4.703125,-5.046875 H 3.09375 V -8.8125 c 0,-0.328125 0,-0.5 0.3125,-0.546875 C 3.53125,-9.375 3.953125,-9.375 4.25,-9.375 c 1.15625,0 3,0 3,2.15625 0,1.25 -0.6875,2.171875 -2.546875,2.171875 z m 0,0"
                 id="path45" />
            </g>
          </g>
          <g
             fill="#000000"
             fill-opacity="1"
             id="g49"
             transform="matrix(0.352778,0,0,0.352778,-73.889,-4.93633)">
            <g
               id="g48"
               transform="translate(234.972,32.761002)">
              <path
                 d="m 3.4375,-7.65625 c 0,-0.28125 0,-0.296875 -0.234375,-0.296875 C 2.921875,-7.625 2.3125,-7.1875 1.09375,-7.1875 v 0.34375 c 0.265625,0 0.859375,0 1.53125,-0.296875 v 6.21875 c 0,0.4375 -0.046875,0.578125 -1.09375,0.578125 h -0.375 V 0 c 0.328125,-0.03125 1.484375,-0.03125 1.875,-0.03125 0.40625,0 1.546875,0 1.875,0.03125 v -0.34375 h -0.375 c -1.046875,0 -1.09375,-0.140625 -1.09375,-0.578125 z m 0,0"
                 id="path47" />
            </g>
          </g>
        </g>
        <g
           inkscape:label=""
           id="g55"
           transform="translate(-11.768408,43.816398)">
          <g
             fill="#000000"
             fill-opacity="1"
             id="g52"
             transform="matrix(0.352778,0,0,0.352778,-76.2693,-6.27578)">
            <g
               id="g51"
               transform="translate(215.634,26.899)">
              <path
                 d="m 8.03125,-8.453125 c -0.640625,0.125 -0.96875,0.578125 -0.96875,1.03125 0,0.5 0.390625,0.671875 0.6875,0.671875 0.578125,0 1.046875,-0.5 1.046875,-1.125 0,-0.65625 -0.640625,-1.234375 -1.671875,-1.234375 -0.828125,0 -1.78125,0.375 -2.640625,1.625 -0.140625,-1.09375 -0.96875,-1.625 -1.796875,-1.625 -0.8125,0 -1.21875,0.625 -1.46875,1.078125 -0.34375,0.734375 -0.65625,1.984375 -0.65625,2.078125 0,0.09375 0.078125,0.1875 0.21875,0.1875 0.171875,0 0.1875,-0.015625 0.3125,-0.5 0.3125,-1.234375 0.703125,-2.4375 1.53125,-2.4375 0.5,0 0.640625,0.359375 0.640625,0.953125 0,0.453125 -0.203125,1.265625 -0.359375,1.90625 l -0.578125,2.234375 c -0.078125,0.390625 -0.296875,1.3125 -0.40625,1.6875 -0.140625,0.53125 -0.375,1.515625 -0.375,1.609375 0,0.296875 0.234375,0.515625 0.546875,0.515625 0.21875,0 0.609375,-0.140625 0.734375,-0.546875 C 2.890625,-0.515625 3.65625,-3.640625 3.78125,-4.109375 3.890625,-4.5625 4,-5 4.109375,-5.453125 4.1875,-5.75 4.28125,-6.078125 4.34375,-6.34375 4.40625,-6.53125 4.953125,-7.546875 5.46875,-8 c 0.25,-0.21875 0.796875,-0.703125 1.640625,-0.703125 0.328125,0 0.65625,0.0625 0.921875,0.25 z m 0,0"
                 id="path50" />
            </g>
          </g>
          <g
             fill="#000000"
             fill-opacity="1"
             id="g54"
             transform="matrix(0.352778,0,0,0.352778,-76.2693,-6.27578)">
            <g
               id="g53"
               transform="translate(224.752,29.997999)">
              <path
                 d="M 9.15625,-3.671875 H 8.828125 c -0.34375,2.234375 -0.6875,3.25 -3.109375,3.25 H 3.765625 c -0.625,0 -0.65625,-0.09375 -0.65625,-0.5625 v -3.875 h 1.3125 c 1.375,0 1.53125,0.4375 1.53125,1.671875 h 0.3125 v -3.765625 h -0.3125 c 0,1.234375 -0.15625,1.671875 -1.53125,1.671875 h -1.3125 v -3.5 c 0,-0.46875 0.03125,-0.578125 0.65625,-0.578125 H 5.6875 c 2.09375,0 2.546875,0.71875 2.765625,2.796875 h 0.3125 l -0.375,-3.203125 H 0.59375 v 0.40625 H 0.875 c 1.03125,0 1.078125,0.15625 1.078125,0.6875 v 7.578125 c 0,0.53125 -0.046875,0.671875 -1.078125,0.671875 H 0.59375 V 0 h 7.984375 z m 0,0"
                 id="path52" />
            </g>
          </g>
        </g>
        <g
           inkscape:label=""
           id="g60"
           transform="translate(30.10256,43.638979)">
          <g
             fill="#000000"
             fill-opacity="1"
             id="g57"
             transform="matrix(0.352778,0,0,0.352778,-76.1317,-6.27578)">
            <g
               id="g56"
               transform="translate(215.244,26.899)">
              <path
                 d="m 8.03125,-8.453125 c -0.640625,0.125 -0.96875,0.578125 -0.96875,1.03125 0,0.5 0.390625,0.671875 0.6875,0.671875 0.578125,0 1.046875,-0.5 1.046875,-1.125 0,-0.65625 -0.640625,-1.234375 -1.671875,-1.234375 -0.828125,0 -1.78125,0.375 -2.640625,1.625 -0.140625,-1.09375 -0.96875,-1.625 -1.796875,-1.625 -0.8125,0 -1.21875,0.625 -1.46875,1.078125 -0.34375,0.734375 -0.65625,1.984375 -0.65625,2.078125 0,0.09375 0.078125,0.1875 0.21875,0.1875 0.171875,0 0.1875,-0.015625 0.3125,-0.5 0.3125,-1.234375 0.703125,-2.4375 1.53125,-2.4375 0.5,0 0.640625,0.359375 0.640625,0.953125 0,0.453125 -0.203125,1.265625 -0.359375,1.90625 l -0.578125,2.234375 c -0.078125,0.390625 -0.296875,1.3125 -0.40625,1.6875 -0.140625,0.53125 -0.375,1.515625 -0.375,1.609375 0,0.296875 0.234375,0.515625 0.546875,0.515625 0.21875,0 0.609375,-0.140625 0.734375,-0.546875 C 2.890625,-0.515625 3.65625,-3.640625 3.78125,-4.109375 3.890625,-4.5625 4,-5 4.109375,-5.453125 4.1875,-5.75 4.28125,-6.078125 4.34375,-6.34375 4.40625,-6.53125 4.953125,-7.546875 5.46875,-8 c 0.25,-0.21875 0.796875,-0.703125 1.640625,-0.703125 0.328125,0 0.65625,0.0625 0.921875,0.25 z m 0,0"
                 id="path55" />
            </g>
          </g>
          <g
             fill="#000000"
             fill-opacity="1"
             id="g59"
             transform="matrix(0.352778,0,0,0.352778,-76.1317,-6.27578)">
            <g
               id="g58"
               transform="translate(224.362,29.997999)">
              <path
                 d="m 6.046875,-4.875 c 1.421875,-0.328125 2.53125,-1.234375 2.53125,-2.34375 0,-1.390625 -1.625,-2.578125 -3.6875,-2.578125 H 0.609375 V -9.375 h 0.28125 c 1.03125,0 1.078125,0.140625 1.078125,0.671875 v 7.609375 c 0,0.53125 -0.046875,0.671875 -1.078125,0.671875 H 0.609375 V 0 c 0.328125,-0.03125 1.5,-0.03125 1.921875,-0.03125 0.40625,0 1.59375,0 1.921875,0.03125 v -0.421875 h -0.28125 c -1.03125,0 -1.078125,-0.140625 -1.078125,-0.671875 v -3.671875 h 1.671875 c 0.5625,0 1.09375,0.15625 1.46875,0.5625 0.5,0.546875 0.5,0.84375 0.5,1.84375 0,1.125 0,1.5 0.625,2.109375 0.21875,0.21875 0.8125,0.546875 1.625,0.546875 1.109375,0 1.296875,-1.25 1.296875,-1.546875 0,-0.078125 0,-0.21875 -0.15625,-0.21875 -0.140625,0 -0.140625,0.09375 -0.15625,0.234375 -0.078125,0.859375 -0.484375,1.25 -0.953125,1.25 -0.65625,0 -0.796875,-0.671875 -0.90625,-1.4375 C 8.09375,-1.515625 8,-2.140625 7.953125,-2.5 7.859375,-3.21875 7.796875,-3.671875 7.375,-4.109375 7.21875,-4.28125 6.84375,-4.65625 6.046875,-4.875 Z M 4.703125,-5.046875 H 3.09375 V -8.8125 c 0,-0.328125 0,-0.5 0.3125,-0.546875 C 3.53125,-9.375 3.953125,-9.375 4.25,-9.375 c 1.15625,0 3,0 3,2.15625 0,1.25 -0.6875,2.171875 -2.546875,2.171875 z m 0,0"
                 id="path57" />
            </g>
          </g>
        </g>
        <g
           inkscape:label=""
           id="g84"
           transform="translate(10.054167,1.5875)">
          <path
             style="opacity:1;fill:#000000;fill-opacity:1;stroke:#149b52;stroke-width:0.6;stroke-linecap:round;stroke-linejoin:round;stroke-dasharray:none;stroke-dashoffset:0;stroke-opacity:1;marker-start:url(#Stop);marker-end:url(#marker87)"
             d="M 33.62074,-26.878711 33.798159,6.476127"
             id="path85"
             transform="rotate(0.4547014,33.709449,-10.201292)"
             inkscape:original-d="M 33.62074,-26.878711 33.798159,6.476127"
             inkscape:path-effect="#path-effect85" />
          <path
             style="fill:#000000;fill-opacity:1;stroke:#149b52;stroke-width:0.6;stroke-linecap:round;stroke-linejoin:round;stroke-dasharray:none;stroke-dashoffset:0;stroke-opacity:1;marker-start:url(#Stop-7);marker-end:url(#marker87-8)"
             d="M 33.62074,-26.878711 33.798159,6.476127"
             id="path85-0"
             transform="matrix(1.0069263,0.00767946,-0.00799117,0.9676488,-63.624949,19.557552)"
             inkscape:original-d="M 33.62074,-26.878711 33.798159,6.476127"
             inkscape:path-effect="#path-effect85-5" />
        </g>
        <g
           inkscape:label=""
           transform="translate(-40.332795,9.5713066)"
           id="g111">
          <g
             fill="#149b52"
             fill-opacity="1"
             id="g101"
             transform="matrix(0.352778,0,0,0.352778,-70.3362,-4.03234)">
            <g
               id="g100"
               transform="translate(198.55,26.899)">
              <path
                 d="m 8.078125,-7.765625 c -0.390625,0 -0.578125,0 -0.875,0.25 -0.125,0.09375 -0.34375,0.40625 -0.34375,0.734375 0,0.421875 0.3125,0.671875 0.703125,0.671875 0.5,0 1.046875,-0.421875 1.046875,-1.25 0,-0.984375 -0.953125,-1.75 -2.375,-1.75 -2.703125,0 -5.40625,2.953125 -5.40625,5.890625 0,1.796875 1.109375,3.421875 3.21875,3.421875 2.8125,0 4.59375,-2.1875 4.59375,-2.453125 0,-0.125 -0.125,-0.234375 -0.21875,-0.234375 -0.0625,0 -0.078125,0.03125 -0.265625,0.21875 -1.3125,1.75 -3.28125,2.0625 -4.0625,2.0625 -1.421875,0 -1.890625,-1.25 -1.890625,-2.28125 0,-0.71875 0.359375,-2.71875 1.109375,-4.125 0.53125,-0.96875 1.640625,-2.09375 2.953125,-2.09375 0.265625,0 1.390625,0.046875 1.8125,0.9375 z m 0,0"
                 id="path99" />
            </g>
          </g>
          <g
             fill="#149b52"
             fill-opacity="1"
             id="g104"
             transform="matrix(0.352778,0,0,0.352778,-70.3362,-4.03234)">
            <g
               id="g102"
               transform="translate(207.257,26.899)">
              <path
                 d="m 6.328125,5.046875 c 0,-0.03125 0,-0.0625 -0.0625,-0.125 -0.953125,-0.96875 -3.5,-3.625 -3.5,-10.0625 0,-6.453125 2.5,-9.078125 3.515625,-10.109375 0,-0.01563 0.046875,-0.0625 0.046875,-0.125 0,-0.0625 -0.0625,-0.09375 -0.15625,-0.09375 -0.21875,0 -1.984375,1.53125 -2.984375,3.796875 -1.046875,2.296875 -1.328125,4.53125 -1.328125,6.5 0,1.5 0.140625,4.015625 1.390625,6.6875 0.984375,2.140625 2.671875,3.65625 2.921875,3.65625 0.109375,0 0.15625,-0.046875 0.15625,-0.125 z m 0,0"
                 id="path101" />
            </g>
            <g
               id="g103"
               transform="translate(214.57359,26.899)">
              <path
                 d="m 8.390625,-14.25 c -0.171875,-0.359375 -0.25,-0.359375 -0.421875,-0.359375 -0.25,0 -0.265625,0.04687 -0.40625,0.328125 L 0.875,-0.34375 C 0.84375,-0.3125 0.765625,-0.125 0.765625,-0.109375 0.765625,-0.015625 0.78125,0 1.15625,0 h 13.609375 c 0.375,0 0.390625,-0.015625 0.390625,-0.109375 0,-0.015625 -0.07813,-0.203125 -0.09375,-0.234375 z m -0.9375,1.21875 5.71875,11.875 H 1.71875 Z m 0,0"
                 id="path102" />
            </g>
          </g>
          <g
             fill="#149b52"
             fill-opacity="1"
             id="g106"
             transform="matrix(0.352778,0,0,0.352778,-70.3362,-4.03234)">
            <g
               id="g105"
               transform="translate(230.528,26.899)">
              <path
                 d="m 4.15625,-8.296875 h 1.890625 c 0.390625,0 0.609375,0 0.609375,-0.375 0,-0.234375 -0.125,-0.234375 -0.546875,-0.234375 h -1.8125 L 5.0625,-11.921875 c 0.078125,-0.28125 0.078125,-0.328125 0.078125,-0.46875 0,-0.328125 -0.265625,-0.515625 -0.53125,-0.515625 -0.171875,0 -0.640625,0.0625 -0.8125,0.71875 L 3,-8.90625 H 1.046875 c -0.40625,0 -0.59375,0 -0.59375,0.390625 0,0.21875 0.140625,0.21875 0.53125,0.21875 h 1.84375 L 1.46875,-2.84375 c -0.171875,0.71875 -0.234375,0.921875 -0.234375,1.1875 0,0.96875 0.6875,1.859375 1.84375,1.859375 2.09375,0 3.203125,-3.015625 3.203125,-3.15625 0,-0.125 -0.078125,-0.1875 -0.203125,-0.1875 -0.046875,0 -0.125,0 -0.171875,0.078125 -0.015625,0.03125 -0.046875,0.046875 -0.1875,0.375 -0.4375,1.03125 -1.375,2.484375 -2.578125,2.484375 -0.625,0 -0.65625,-0.515625 -0.65625,-0.96875 0,-0.03125 0,-0.421875 0.0625,-0.671875 z m 0,0"
                 id="path104" />
            </g>
          </g>
          <g
             fill="#149b52"
             fill-opacity="1"
             id="g108"
             transform="matrix(0.352778,0,0,0.352778,-70.3362,-4.03234)">
            <g
               id="g107"
               transform="translate(237.83299,26.899)">
              <path
                 d="m 5.4375,-5.140625 c 0,-1.484375 -0.15625,-4.015625 -1.390625,-6.671875 -0.984375,-2.15625 -2.6875,-3.65625 -2.9375,-3.65625 -0.0625,0 -0.140625,0.01563 -0.140625,0.125 0,0.03125 0.015625,0.0625 0.046875,0.09375 C 2,-14.21875 4.53125,-11.59375 4.53125,-5.171875 4.53125,1.28125 2.03125,3.90625 1.015625,4.9375 0.984375,4.984375 0.96875,5 0.96875,5.046875 c 0,0.09375 0.078125,0.125 0.140625,0.125 0.234375,0 1.984375,-1.53125 3,-3.8125 1.03125,-2.28125 1.328125,-4.515625 1.328125,-6.5 z m 0,0"
                 id="path106" />
            </g>
          </g>
          <g
             fill="#149b52"
             fill-opacity="1"
             id="g110"
             transform="matrix(0.352778,0,0,0.352778,-70.3362,-4.03234)">
            <g
               id="g109"
               transform="translate(245.151,29.997999)">
              <path
                 d="m 5.5,-3.328125 c 0.3125,0 0.34375,0 0.34375,-0.265625 0,-1.453125 -0.78125,-2.796875 -2.515625,-2.796875 -1.640625,0 -2.890625,1.46875 -2.890625,3.25 0,1.890625 1.453125,3.28125 3.046875,3.28125 1.703125,0 2.359375,-1.546875 2.359375,-1.84375 0,-0.09375 -0.078125,-0.140625 -0.15625,-0.140625 -0.125,0 -0.15625,0.0625 -0.171875,0.140625 -0.375,1.203125 -1.34375,1.53125 -1.9375,1.53125 -0.609375,0 -2.0625,-0.40625 -2.0625,-2.890625 V -3.328125 Z M 1.53125,-3.59375 c 0.125,-2.265625 1.375,-2.515625 1.78125,-2.515625 1.53125,0 1.625,2.015625 1.640625,2.515625 z m 0,0"
                 id="path108" />
            </g>
          </g>
        </g>
        <g
           inkscape:label=""
           transform="translate(48.199463,-13.315789)"
           id="g123">
          <g
             fill="#149b52"
             fill-opacity="1"
             id="g113"
             transform="matrix(0.352778,0,0,0.352778,-70.4738,-4.03234)">
            <g
               id="g112"
               transform="translate(198.94,26.899)">
              <path
                 d="m 8.078125,-7.765625 c -0.390625,0 -0.578125,0 -0.875,0.25 -0.125,0.09375 -0.34375,0.40625 -0.34375,0.734375 0,0.421875 0.3125,0.671875 0.703125,0.671875 0.5,0 1.046875,-0.421875 1.046875,-1.25 0,-0.984375 -0.953125,-1.75 -2.375,-1.75 -2.703125,0 -5.40625,2.953125 -5.40625,5.890625 0,1.796875 1.109375,3.421875 3.21875,3.421875 2.8125,0 4.59375,-2.1875 4.59375,-2.453125 0,-0.125 -0.125,-0.234375 -0.21875,-0.234375 -0.0625,0 -0.078125,0.03125 -0.265625,0.21875 -1.3125,1.75 -3.28125,2.0625 -4.0625,2.0625 -1.421875,0 -1.890625,-1.25 -1.890625,-2.28125 0,-0.71875 0.359375,-2.71875 1.109375,-4.125 0.53125,-0.96875 1.640625,-2.09375 2.953125,-2.09375 0.265625,0 1.390625,0.046875 1.8125,0.9375 z m 0,0"
                 id="path111" />
            </g>
          </g>
          <g
             fill="#149b52"
             fill-opacity="1"
             id="g116"
             transform="matrix(0.352778,0,0,0.352778,-70.4738,-4.03234)">
            <g
               id="g114"
               transform="translate(207.647,26.899)">
              <path
                 d="m 6.328125,5.046875 c 0,-0.03125 0,-0.0625 -0.0625,-0.125 -0.953125,-0.96875 -3.5,-3.625 -3.5,-10.0625 0,-6.453125 2.5,-9.078125 3.515625,-10.109375 0,-0.01563 0.046875,-0.0625 0.046875,-0.125 0,-0.0625 -0.0625,-0.09375 -0.15625,-0.09375 -0.21875,0 -1.984375,1.53125 -2.984375,3.796875 -1.046875,2.296875 -1.328125,4.53125 -1.328125,6.5 0,1.5 0.140625,4.015625 1.390625,6.6875 0.984375,2.140625 2.671875,3.65625 2.921875,3.65625 0.109375,0 0.15625,-0.046875 0.15625,-0.125 z m 0,0"
                 id="path113" />
            </g>
            <g
               id="g115"
               transform="translate(214.96359,26.899)">
              <path
                 d="m 8.390625,-14.25 c -0.171875,-0.359375 -0.25,-0.359375 -0.421875,-0.359375 -0.25,0 -0.265625,0.04687 -0.40625,0.328125 L 0.875,-0.34375 C 0.84375,-0.3125 0.765625,-0.125 0.765625,-0.109375 0.765625,-0.015625 0.78125,0 1.15625,0 h 13.609375 c 0.375,0 0.390625,-0.015625 0.390625,-0.109375 0,-0.015625 -0.07813,-0.203125 -0.09375,-0.234375 z m -0.9375,1.21875 5.71875,11.875 H 1.71875 Z m 0,0"
                 id="path114" />
            </g>
          </g>
          <g
             fill="#149b52"
             fill-opacity="1"
             id="g118"
             transform="matrix(0.352778,0,0,0.352778,-70.4738,-4.03234)">
            <g
               id="g117"
               transform="translate(230.918,26.899)">
              <path
                 d="m 4.15625,-8.296875 h 1.890625 c 0.390625,0 0.609375,0 0.609375,-0.375 0,-0.234375 -0.125,-0.234375 -0.546875,-0.234375 h -1.8125 L 5.0625,-11.921875 c 0.078125,-0.28125 0.078125,-0.328125 0.078125,-0.46875 0,-0.328125 -0.265625,-0.515625 -0.53125,-0.515625 -0.171875,0 -0.640625,0.0625 -0.8125,0.71875 L 3,-8.90625 H 1.046875 c -0.40625,0 -0.59375,0 -0.59375,0.390625 0,0.21875 0.140625,0.21875 0.53125,0.21875 h 1.84375 L 1.46875,-2.84375 c -0.171875,0.71875 -0.234375,0.921875 -0.234375,1.1875 0,0.96875 0.6875,1.859375 1.84375,1.859375 2.09375,0 3.203125,-3.015625 3.203125,-3.15625 0,-0.125 -0.078125,-0.1875 -0.203125,-0.1875 -0.046875,0 -0.125,0 -0.171875,0.078125 -0.015625,0.03125 -0.046875,0.046875 -0.1875,0.375 -0.4375,1.03125 -1.375,2.484375 -2.578125,2.484375 -0.625,0 -0.65625,-0.515625 -0.65625,-0.96875 0,-0.03125 0,-0.421875 0.0625,-0.671875 z m 0,0"
                 id="path116" />
            </g>
          </g>
          <g
             fill="#149b52"
             fill-opacity="1"
             id="g120"
             transform="matrix(0.352778,0,0,0.352778,-70.4738,-4.03234)">
            <g
               id="g119"
               transform="translate(238.224,26.899)">
              <path
                 d="m 5.4375,-5.140625 c 0,-1.484375 -0.15625,-4.015625 -1.390625,-6.671875 -0.984375,-2.15625 -2.6875,-3.65625 -2.9375,-3.65625 -0.0625,0 -0.140625,0.01563 -0.140625,0.125 0,0.03125 0.015625,0.0625 0.046875,0.09375 C 2,-14.21875 4.53125,-11.59375 4.53125,-5.171875 4.53125,1.28125 2.03125,3.90625 1.015625,4.9375 0.984375,4.984375 0.96875,5 0.96875,5.046875 c 0,0.09375 0.078125,0.125 0.140625,0.125 0.234375,0 1.984375,-1.53125 3,-3.8125 1.03125,-2.28125 1.328125,-4.515625 1.328125,-6.5 z m 0,0"
                 id="path118" />
            </g>
          </g>
          <g
             fill="#149b52"
             fill-opacity="1"
             id="g122"
             transform="matrix(0.352778,0,0,0.352778,-70.4738,-4.03234)">
            <g
               id="g121"
               transform="translate(245.541,29.997999)">
              <path
                 d="m 2.390625,-3.34375 c 0,-1.390625 0.578125,-2.6875 1.6875,-2.6875 0.109375,0 0.140625,0 0.203125,0 C 4.15625,-5.96875 3.9375,-5.875 3.9375,-5.5 c 0,0.421875 0.328125,0.578125 0.546875,0.578125 0.296875,0 0.578125,-0.1875 0.578125,-0.578125 0,-0.421875 -0.390625,-0.828125 -1,-0.828125 -1.21875,0 -1.640625,1.328125 -1.71875,1.59375 H 2.328125 v -1.59375 L 0.40625,-6.171875 V -5.75 c 0.96875,0 1.078125,0.09375 1.078125,0.796875 V -1.0625 c 0,0.640625 -0.15625,0.640625 -1.078125,0.640625 V 0 c 0.390625,-0.03125 1.1875,-0.03125 1.609375,-0.03125 0.390625,0 1.40625,0 1.75,0.03125 V -0.421875 H 3.46875 c -1.046875,0 -1.078125,-0.15625 -1.078125,-0.671875 z m 0,0"
                 id="path120" />
            </g>
          </g>
        </g>
        <g
           inkscape:label=""
           transform="translate(51.392686,36.539566)"
           id="g126">
          <g
             fill="#000000"
             fill-opacity="1"
             id="g125"
             transform="matrix(0.352778,0,0,0.352778,-77.944,-6.27578)">
            <g
               id="g124"
               transform="translate(220.381,26.899)">
              <path
                 d="m 8.03125,-8.453125 c -0.640625,0.125 -0.96875,0.578125 -0.96875,1.03125 0,0.5 0.390625,0.671875 0.6875,0.671875 0.578125,0 1.046875,-0.5 1.046875,-1.125 0,-0.65625 -0.640625,-1.234375 -1.671875,-1.234375 -0.828125,0 -1.78125,0.375 -2.640625,1.625 -0.140625,-1.09375 -0.96875,-1.625 -1.796875,-1.625 -0.8125,0 -1.21875,0.625 -1.46875,1.078125 -0.34375,0.734375 -0.65625,1.984375 -0.65625,2.078125 0,0.09375 0.078125,0.1875 0.21875,0.1875 0.171875,0 0.1875,-0.015625 0.3125,-0.5 0.3125,-1.234375 0.703125,-2.4375 1.53125,-2.4375 0.5,0 0.640625,0.359375 0.640625,0.953125 0,0.453125 -0.203125,1.265625 -0.359375,1.90625 l -0.578125,2.234375 c -0.078125,0.390625 -0.296875,1.3125 -0.40625,1.6875 -0.140625,0.53125 -0.375,1.515625 -0.375,1.609375 0,0.296875 0.234375,0.515625 0.546875,0.515625 0.21875,0 0.609375,-0.140625 0.734375,-0.546875 C 2.890625,-0.515625 3.65625,-3.640625 3.78125,-4.109375 3.890625,-4.5625 4,-5 4.109375,-5.453125 4.1875,-5.75 4.28125,-6.078125 4.34375,-6.34375 4.40625,-6.53125 4.953125,-7.546875 5.46875,-8 c 0.25,-0.21875 0.796875,-0.703125 1.640625,-0.703125 0.328125,0 0.65625,0.0625 0.921875,0.25 z m 0,0"
                 id="path123" />
            </g>
          </g>
        </g>
        <g
           inkscape:label=""
           transform="translate(-64.994411,-46.315273)"
           id="g127">
          <g
             fill="#000000"
             fill-opacity="1"
             id="g3"
             transform="matrix(0.352778,0,0,0.352778,-76.9204,-4.93633)">
            <g
               id="use2"
               transform="translate(217.214,26.899)">
              <path
                 d="m 8.078125,-7.765625 c -0.390625,0 -0.578125,0 -0.875,0.25 -0.125,0.09375 -0.34375,0.40625 -0.34375,0.734375 0,0.421875 0.3125,0.671875 0.703125,0.671875 0.5,0 1.046875,-0.421875 1.046875,-1.25 0,-0.984375 -0.953125,-1.75 -2.375,-1.75 -2.703125,0 -5.40625,2.953125 -5.40625,5.890625 0,1.796875 1.109375,3.421875 3.21875,3.421875 2.8125,0 4.59375,-2.1875 4.59375,-2.453125 0,-0.125 -0.125,-0.234375 -0.21875,-0.234375 -0.0625,0 -0.078125,0.03125 -0.265625,0.21875 -1.3125,1.75 -3.28125,2.0625 -4.0625,2.0625 -1.421875,0 -1.890625,-1.25 -1.890625,-2.28125 0,-0.71875 0.359375,-2.71875 1.109375,-4.125 0.53125,-0.96875 1.640625,-2.09375 2.953125,-2.09375 0.265625,0 1.390625,0.046875 1.8125,0.9375 z m 0,0"
                 id="path126" />
            </g>
            <g
               id="use3"
               transform="translate(225.92117,26.899)">
              <path
                 d="m 4.15625,-8.296875 h 1.890625 c 0.390625,0 0.609375,0 0.609375,-0.375 0,-0.234375 -0.125,-0.234375 -0.546875,-0.234375 h -1.8125 L 5.0625,-11.921875 c 0.078125,-0.28125 0.078125,-0.328125 0.078125,-0.46875 0,-0.328125 -0.265625,-0.515625 -0.53125,-0.515625 -0.171875,0 -0.640625,0.0625 -0.8125,0.71875 L 3,-8.90625 H 1.046875 c -0.40625,0 -0.59375,0 -0.59375,0.390625 0,0.21875 0.140625,0.21875 0.53125,0.21875 h 1.84375 L 1.46875,-2.84375 c -0.171875,0.71875 -0.234375,0.921875 -0.234375,1.1875 0,0.96875 0.6875,1.859375 1.84375,1.859375 2.09375,0 3.203125,-3.015625 3.203125,-3.15625 0,-0.125 -0.078125,-0.1875 -0.203125,-0.1875 -0.046875,0 -0.125,0 -0.171875,0.078125 -0.015625,0.03125 -0.046875,0.046875 -0.1875,0.375 -0.4375,1.03125 -1.375,2.484375 -2.578125,2.484375 -0.625,0 -0.65625,-0.515625 -0.65625,-0.96875 0,-0.03125 0,-0.421875 0.0625,-0.671875 z m 0,0"
                 id="path127" />
            </g>
          </g>
        </g>
      </g>
    </g>
  </g>
</svg>
