<?xml version="1.0" encoding="UTF-8" standalone="no"?>
<!-- Created with Inkscape (http://www.inkscape.org/) -->

<svg
   width="238.71425mm"
   height="117.568mm"
   viewBox="0 0 238.71425 117.568"
   version="1.1"
   id="svg1"
   inkscape:version="1.3 (0e150ed6c4, 2023-07-21)"
   sodipodi:docname="Fig-Redshift_gravitacional_1.svg"
   xmlns:inkscape="http://www.inkscape.org/namespaces/inkscape"
   xmlns:sodipodi="http://sodipodi.sourceforge.net/DTD/sodipodi-0.dtd"
   xmlns:xlink="http://www.w3.org/1999/xlink"
   xmlns="http://www.w3.org/2000/svg"
   xmlns:svg="http://www.w3.org/2000/svg">
  <sodipodi:namedview
     id="namedview1"
     pagecolor="#ffffff"
     bordercolor="#000000"
     borderopacity="0.25"
     inkscape:showpageshadow="2"
     inkscape:pageopacity="0.0"
     inkscape:pagecheckerboard="0"
     inkscape:deskcolor="#d1d1d1"
     inkscape:document-units="mm"
     inkscape:zoom="0.74564394"
     inkscape:cx="429.82982"
     inkscape:cy="224.63805"
     inkscape:window-width="1920"
     inkscape:window-height="1051"
     inkscape:window-x="-9"
     inkscape:window-y="-9"
     inkscape:window-maximized="1"
     inkscape:current-layer="layer5" />
  <defs
     id="defs1">
    <marker
       style="overflow:visible"
       id="ArrowWideHeavy"
       refX="0"
       refY="0"
       orient="auto-start-reverse"
       inkscape:stockid="Wide, heavy arrow"
       markerWidth="1"
       markerHeight="1"
       viewBox="0 0 1 1"
       inkscape:isstock="true"
       inkscape:collect="always"
       preserveAspectRatio="xMidYMid">
      <path
         style="fill:context-stroke;fill-rule:evenodd;stroke:none"
         d="m 1,0 -3,3 h -2 l 3,-3 -3,-3 h 2 z"
         id="path18" />
    </marker>
    <inkscape:path-effect
       effect="spiro"
       id="path-effect17"
       is_visible="true"
       lpeversion="1" />
    <linearGradient
       id="linearGradient14"
       inkscape:collect="always">
      <stop
         style="stop-color:#686868;stop-opacity:0;"
         offset="0"
         id="stop13" />
      <stop
         style="stop-color:#686868;stop-opacity:1;"
         offset="1"
         id="stop14" />
    </linearGradient>
    <linearGradient
       id="linearGradient7"
       inkscape:collect="always">
      <stop
         style="stop-color:#818181;stop-opacity:0;"
         offset="0"
         id="stop8" />
      <stop
         style="stop-color:#818181;stop-opacity:1;"
         offset="1"
         id="stop7" />
    </linearGradient>
    <inkscape:path-effect
       effect="spiro"
       id="path-effect7"
       is_visible="true"
       lpeversion="1" />
    <inkscape:path-effect
       effect="spiro"
       id="path-effect6"
       is_visible="true"
       lpeversion="1" />
    <inkscape:path-effect
       effect="spiro"
       id="path-effect5"
       is_visible="true"
       lpeversion="1" />
    <inkscape:path-effect
       effect="spiro"
       id="path-effect3"
       is_visible="true"
       lpeversion="1" />
    <linearGradient
       id="linearGradient2"
       inkscape:collect="always">
      <stop
         style="stop-color:#ffab00;stop-opacity:0;"
         offset="0"
         id="stop3" />
      <stop
         style="stop-color:#ffab00;stop-opacity:1;"
         offset="1"
         id="stop2" />
    </linearGradient>
    <inkscape:path-effect
       effect="spiro"
       id="path-effect7-0"
       is_visible="true"
       lpeversion="1" />
    <linearGradient
       inkscape:collect="always"
       xlink:href="#linearGradient14"
       id="linearGradient11-7"
       x1="93.326385"
       y1="57.942036"
       x2="109.72504"
       y2="57.631554"
       gradientUnits="userSpaceOnUse" />
    <inkscape:path-effect
       effect="spiro"
       id="path-effect7-9"
       is_visible="true"
       lpeversion="1" />
    <inkscape:path-effect
       effect="spiro"
       id="path-effect7-0-4"
       is_visible="true"
       lpeversion="1" />
    <linearGradient
       inkscape:collect="always"
       xlink:href="#linearGradient7"
       id="linearGradient15"
       gradientUnits="userSpaceOnUse"
       gradientTransform="translate(-10.769744,54.561694)"
       x1="90.421692"
       y1="57.856018"
       x2="103.47789"
       y2="57.811661" />
    <linearGradient
       inkscape:collect="always"
       xlink:href="#linearGradient14"
       id="linearGradient16"
       gradientUnits="userSpaceOnUse"
       x1="93.326385"
       y1="57.942036"
       x2="109.72504"
       y2="57.631554" />
    <linearGradient
       inkscape:collect="always"
       xlink:href="#linearGradient7"
       id="linearGradient17"
       gradientUnits="userSpaceOnUse"
       gradientTransform="matrix(0.97128005,0,0,1.0007829,-280.04757,54.454373)"
       x1="90.421692"
       y1="57.856018"
       x2="103.47789"
       y2="57.811661" />
    <marker
       style="overflow:visible"
       id="ArrowWideHeavy-3"
       refX="0"
       refY="0"
       orient="auto-start-reverse"
       inkscape:stockid="Wide, heavy arrow"
       markerWidth="1"
       markerHeight="1"
       viewBox="0 0 1 1"
       inkscape:isstock="true"
       inkscape:collect="always"
       preserveAspectRatio="xMidYMid">
      <path
         style="fill:context-stroke;fill-rule:evenodd;stroke:none"
         d="m 1,0 -3,3 h -2 l 3,-3 -3,-3 h 2 z"
         id="path18-5" />
    </marker>
    <inkscape:path-effect
       effect="spiro"
       id="path-effect17-5"
       is_visible="true"
       lpeversion="1" />
    <filter
       inkscape:collect="always"
       style="color-interpolation-filters:sRGB"
       id="filter18"
       x="-0.045342487"
       y="-0.38822307"
       width="1.0977139"
       height="1.7764424">
      <feGaussianBlur
         inkscape:collect="always"
         stdDeviation="1.1332772"
         id="feGaussianBlur18" />
    </filter>
    <inkscape:path-effect
       effect="spiro"
       id="path-effect3-0"
       is_visible="true"
       lpeversion="1" />
    <filter
       inkscape:collect="always"
       style="color-interpolation-filters:sRGB"
       id="filter19"
       x="-0.39691428"
       y="-0.39691428"
       width="1.7938286"
       height="1.7938286">
      <feGaussianBlur
         inkscape:collect="always"
         stdDeviation="11.16"
         id="feGaussianBlur19" />
    </filter>
    <radialGradient
       inkscape:collect="always"
       xlink:href="#linearGradient2"
       id="radialGradient3-4-7"
       cx="47.282253"
       cy="110.9758"
       fx="47.282253"
       fy="110.9758"
       r="26.35"
       gradientUnits="userSpaceOnUse"
       gradientTransform="matrix(1.4488057,0.01333626,-0.01356494,1.4406547,-112.84242,4.0743725)" />
    <marker
       style="overflow:visible"
       id="ArrowWideRounded-9-8"
       refX="0"
       refY="0"
       orient="auto-start-reverse"
       inkscape:stockid="Wide, rounded arrow"
       markerWidth="1"
       markerHeight="1"
       viewBox="0 0 1 1"
       inkscape:isstock="true"
       inkscape:collect="always"
       preserveAspectRatio="xMidYMid">
      <path
         style="fill:none;stroke:context-stroke;stroke-width:1;stroke-linecap:round"
         d="M 3,-3 0,0 3,3"
         transform="rotate(180,0.125,0)"
         sodipodi:nodetypes="ccc"
         id="path4-5-3" />
    </marker>
    <inkscape:path-effect
       effect="spiro"
       id="path-effect3-0-4"
       is_visible="true"
       lpeversion="1" />
  </defs>
  <g
     inkscape:label="Capa 1"
     inkscape:groupmode="layer"
     id="layer1"
     sodipodi:insensitive="true"
     style="display:none"
     transform="translate(30.964118,-54.132261)">
    <path
       d="M 0,0 V 296.99999 M 10.583333,0 V 296.99999 M 21.166666,0 V 296.99999 M 31.749999,0 V 296.99999 M 42.333332,0 V 296.99999 M 52.916665,0 V 296.99999 M 63.499999,0 V 296.99999 M 74.083332,0 V 296.99999 M 84.666665,0 V 296.99999 M 95.249998,0 V 296.99999 M 105.83333,0 V 296.99999 M 116.41666,0 V 296.99999 M 127,0 V 296.99999 M 137.58333,0 V 296.99999 M 148.16666,0 V 296.99999 M 158.75,0 V 296.99999 M 169.33333,0 V 296.99999 M 179.91666,0 V 296.99999 M 190.5,0 V 296.99999 M 201.08333,0 V 296.99999 M 0,0 H 210 M 0,10.583333 H 210 M 0,21.166666 H 210 M 0,31.749999 H 210 M 0,42.333332 H 210 M 0,52.916665 H 210 M 0,63.499999 H 210 M 0,74.083332 H 210 M 0,84.666665 H 210 M 0,95.249998 H 210 M 0,105.83333 H 210 M 0,116.41666 H 210 M 0,127 H 210 M 0,137.58333 H 210 M 0,148.16666 H 210 M 0,158.75 H 210 M 0,169.33333 H 210 M 0,179.91666 H 210 M 0,190.5 H 210 M 0,201.08333 H 210 M 0,211.66666 H 210 M 0,222.24999 H 210 M 0,232.83333 H 210 M 0,243.41666 H 210 M 0,253.99999 H 210 M 0,264.58333 H 210 M 0,275.16666 H 210 M 0,285.74999 H 210 M 0,296.33333 h 210"
       style="opacity:0.425287;fill:none;stroke:#000000;stroke-width:0.264583px"
       id="path1" />
  </g>
  <g
     inkscape:groupmode="layer"
     id="layer2"
     inkscape:label="Sun"
     transform="translate(30.964118,-54.132261)">
    <circle
       style="mix-blend-mode:normal;fill:#ffab00;fill-opacity:0.745098;stroke:#e28a00;stroke-width:2;stroke-linecap:round;stroke-dasharray:none;stroke-opacity:1;filter:url(#filter19)"
       id="path2"
       cx="20.707371"
       cy="113.2121"
       r="35" />
    <g
       inkscape:groupmode="layer"
       id="layer2-5"
       inkscape:label="Sun"
       transform="translate(66.373801,-51.499991)">
      <circle
         style="fill:#ffffff;fill-opacity:1;stroke:#e28a00;stroke-width:0.8;stroke-linecap:round;stroke-dasharray:none;stroke-opacity:1"
         id="path2-6"
         cx="-46.034386"
         cy="164.29362"
         r="31" />
      <circle
         style="fill:url(#radialGradient3-4-7);stroke:#e28a00;stroke-width:0.8;stroke-linecap:round;stroke-dasharray:none;stroke-opacity:1"
         id="path2-6-0"
         cx="-45.84494"
         cy="164.58279"
         r="31" />
      <path
         style="fill:#ffab00;fill-opacity:1;stroke:#000000;stroke-width:0.7;stroke-linecap:round;stroke-dasharray:none;stroke-opacity:1;marker-end:url(#ArrowWideRounded-9-8)"
         d="M 42.225806,116.20968 66.354836,98.778226"
         id="path3-6-3"
         inkscape:path-effect="#path-effect3-0-4"
         inkscape:original-d="M 42.225806,116.20968 66.354836,98.778226"
         transform="translate(-88.070732,48.065678)"
         sodipodi:nodetypes="cc" />
    </g>
  </g>
  <g
     inkscape:groupmode="layer"
     id="layer3"
     inkscape:label="Emisor-Receptor"
     transform="translate(30.964118,-54.132261)">
    <path
       style="opacity:1;fill:#ffab00;fill-opacity:1;stroke:#000000;stroke-width:0.7;stroke-linecap:round;stroke-dasharray:4.2, 4.2;stroke-dashoffset:2.17;stroke-opacity:1"
       d="M 63.338709,116.3871 206.87096,116.03226"
       id="path5"
       inkscape:path-effect="#path-effect5"
       inkscape:original-d="M 63.338709,116.3871 206.87096,116.03226"
       transform="translate(-10.583334,-3.7041668)" />
    <rect
       style="opacity:1;fill:#ffffff;fill-opacity:1;stroke:#454545;stroke-width:0.5;stroke-linecap:round;stroke-linejoin:round;stroke-dasharray:none;stroke-dashoffset:2.17;stroke-opacity:1"
       id="rect6"
       width="10.726354"
       height="10.789081"
       x="84.399506"
       y="107.30571" />
    <path
       style="opacity:1;fill:#ffffff;fill-opacity:1;stroke:#454545;stroke-width:0.5;stroke-linecap:round;stroke-linejoin:round;stroke-dasharray:none;stroke-dashoffset:8.20157;stroke-opacity:1"
       d="m 106.13445,55.199949 4.76726,-2.383634 0.0314,10.69499 -4.7673,-2.446362"
       id="path6"
       inkscape:path-effect="#path-effect7"
       inkscape:original-d="m 106.13445,55.199949 4.76726,-2.383634 0.0314,10.69499 -4.7673,-2.446362"
       transform="translate(-10.757662,54.58347)"
       sodipodi:nodetypes="cccc" />
    <rect
       style="fill:#ffffff;fill-opacity:1;stroke:#454545;stroke-width:0.492;stroke-linecap:round;stroke-linejoin:round;stroke-dasharray:none;stroke-dashoffset:2.17;stroke-opacity:1"
       id="rect6-5"
       width="10.418293"
       height="10.797528"
       x="-187.6344"
       y="107.23973"
       transform="scale(-1,1)" />
    <path
       style="fill:#ffffff;fill-opacity:1;stroke:#454545;stroke-width:0.499026;stroke-linecap:round;stroke-linejoin:round;stroke-dasharray:none;stroke-dashoffset:8.20157;stroke-opacity:1"
       d="m 106.13445,55.199949 4.76726,-2.383634 0.0314,10.69499 -4.7673,-2.446362"
       id="path6-8"
       inkscape:path-effect="#path-effect7-0"
       inkscape:original-d="m 106.13445,55.199949 4.76726,-2.383634 0.0314,10.69499 -4.7673,-2.446362"
       transform="matrix(-0.97128005,0,0,1.0007829,280.05966,54.476223)"
       sodipodi:nodetypes="cccc" />
    <rect
       style="fill:url(#linearGradient15);fill-opacity:1;stroke:#454545;stroke-width:0.6;stroke-linecap:round;stroke-linejoin:round;stroke-dasharray:none;stroke-dashoffset:2.17;stroke-opacity:1"
       id="rect6-0"
       width="10.726354"
       height="10.789081"
       x="84.387428"
       y="107.37801" />
    <path
       style="fill:url(#linearGradient16);fill-opacity:1;stroke:#454545;stroke-width:0.600001;stroke-linecap:round;stroke-linejoin:round;stroke-dasharray:none;stroke-dashoffset:8.20157;stroke-opacity:1"
       d="m 106.13445,55.199949 4.76726,-2.383634 0.0314,10.69499 -4.7673,-2.446362"
       id="path6-7"
       inkscape:path-effect="#path-effect7-9"
       inkscape:original-d="m 106.13445,55.199949 4.76726,-2.383634 0.0314,10.69499 -4.7673,-2.446362"
       transform="translate(-10.769744,54.655785)"
       sodipodi:nodetypes="cccc" />
    <rect
       style="fill:url(#linearGradient17);fill-opacity:1;stroke:#454545;stroke-width:0.591553;stroke-linecap:round;stroke-linejoin:round;stroke-dasharray:none;stroke-dashoffset:2.17;stroke-opacity:1"
       id="rect6-5-2"
       width="10.418293"
       height="10.797528"
       x="-187.62231"
       y="107.31205"
       transform="scale(-1,1)" />
    <path
       style="fill:url(#linearGradient11-7);fill-opacity:1;stroke:#454545;stroke-width:0.600001;stroke-linecap:round;stroke-linejoin:round;stroke-dasharray:none;stroke-dashoffset:8.20157;stroke-opacity:1"
       d="m 106.13445,55.199949 4.76726,-2.383634 0.0314,10.69499 -4.7673,-2.446362"
       id="path6-8-2"
       inkscape:path-effect="#path-effect7-0-4"
       inkscape:original-d="m 106.13445,55.199949 4.76726,-2.383634 0.0314,10.69499 -4.7673,-2.446362"
       transform="matrix(-0.97128005,0,0,1.0007829,280.04758,54.548538)"
       sodipodi:nodetypes="cccc" />
  </g>
  <g
     inkscape:groupmode="layer"
     id="layer4"
     inkscape:label="Haz de luz"
     transform="translate(30.964118,-54.132261)">
    <path
       style="opacity:1;mix-blend-mode:normal;fill:none;fill-opacity:1;stroke:#ff0000;stroke-width:1;stroke-linecap:round;stroke-linejoin:round;stroke-dasharray:none;stroke-dashoffset:8.20157;stroke-opacity:1;marker-end:url(#ArrowWideHeavy);filter:url(#filter18)"
       d="m 111.4637,116.49798 c 1.34671,-1.91064 3.3465,-3.35184 5.58503,-4.02499 2.23853,-0.67315 4.70154,-0.57396 6.87869,0.27701 2.55127,0.9972 4.59829,2.93047 6.78327,4.58252 1.09249,0.82602 2.24054,1.59381 3.49846,2.13555 1.25793,0.54174 2.63599,0.85139 4.00053,0.73354 1.50239,-0.12975 2.92306,-0.77009 4.17882,-1.60499 1.25576,-0.83491 2.36831,-1.86368 3.4962,-2.86461 1.12789,-1.00093 2.28704,-1.98562 3.60797,-2.71305 1.32092,-0.72743 2.82683,-1.18876 4.32991,-1.06735 1.38254,0.11168 2.68959,0.70897 3.83251,1.49486 1.14292,0.7859 2.14234,1.75884 3.14691,2.71526 1.00457,0.95642 2.0286,1.90769 3.20669,2.63981 1.17809,0.73212 2.53178,1.23937 3.91873,1.22265 1.53913,-0.0186 2.99619,-0.67172 4.35184,-1.40075 1.35565,-0.72903 2.68223,-1.55456 4.16429,-1.97022 1.23555,-0.34653 2.53223,-0.39432 3.81451,-0.44354 0.73929,-0.0284 1.47854,-0.058 2.21774,-0.0887"
       id="path17"
       inkscape:path-effect="#path-effect17"
       inkscape:original-d="m 111.4637,116.49798 c -1.05649,0.60175 9.18413,-3.89583 12.46372,-3.74798 8.3345,0.37573 3.93129,8.39261 14.28226,7.45161 6.97103,-0.63373 9.62561,-8.22248 15.6129,-8.25 5.50037,-0.0253 9.13729,6.8307 14.10484,8.07258 5.25582,1.31396 5.35268,-2.46712 8.51613,-3.37097 1.16899,-0.33399 2.60553,-0.0981 3.81451,-0.44354 0.89599,-0.256 1.62472,-0.53349 2.21774,-0.0887"
       transform="translate(-10.757662,-3.792877)"
       sodipodi:nodetypes="cssssssc" />
    <path
       style="fill:none;fill-opacity:1;stroke:#ff0000;stroke-width:0.600001;stroke-linecap:round;stroke-linejoin:round;stroke-dasharray:none;stroke-dashoffset:8.20157;stroke-opacity:1;marker-end:url(#ArrowWideHeavy-3)"
       d="m 111.75201,116.43145 c 1.32208,-1.85955 3.27415,-3.26256 5.45811,-3.92293 2.18397,-0.66036 4.58638,-0.57399 6.7173,0.24148 2.55785,0.97886 4.60858,2.91083 6.79102,4.56543 1.09122,0.8273 2.23711,1.59772 3.49337,2.1427 1.25627,0.54497 2.63333,0.85847 3.99787,0.74348 1.50272,-0.12663 2.92448,-0.76542 4.18075,-1.59967 1.25627,-0.83425 2.36884,-1.86317 3.49638,-2.86459 1.12755,-1.00141 2.28602,-1.98696 3.60646,-2.71541 1.32044,-0.72845 2.8261,-1.19097 4.32931,-1.07033 1.38262,0.11097 2.68992,0.70792 3.83296,1.49368 1.14304,0.78577 2.14246,1.75876 3.14695,2.7153 1.00448,0.95654 2.02836,1.90801 3.20634,2.64036 1.17797,0.73234 2.53162,1.23983 3.91859,1.22324 1.53914,-0.0184 2.99624,-0.67158 4.35188,-1.40064 1.35564,-0.72905 2.68219,-1.55464 4.16425,-1.97033 1.23555,-0.34655 2.53223,-0.39432 3.81451,-0.44354 0.73929,-0.0284 1.47854,-0.0579 2.21774,-0.0887"
       id="path17-8"
       inkscape:path-effect="#path-effect17-5"
       inkscape:original-d="m 111.75201,116.43145 c -1.05649,0.60175 8.89582,-3.8293 12.17541,-3.68145 8.3345,0.37573 3.93129,8.39261 14.28226,7.45161 6.97103,-0.63373 9.62561,-8.22248 15.6129,-8.25 5.50037,-0.0253 9.13729,6.8307 14.10484,8.07258 5.25582,1.31396 5.35268,-2.46712 8.51613,-3.37097 1.16899,-0.33399 2.60553,-0.0981 3.81451,-0.44354 0.89599,-0.256 1.62472,-0.53349 2.21774,-0.0887"
       transform="translate(-11.021741,-3.7737026)"
       sodipodi:nodetypes="cssssssc" />
  </g>
  <g
     inkscape:groupmode="layer"
     id="layer5"
     inkscape:label="LaTeX"
     transform="translate(30.964118,-54.132261)">
    <g
       inkscape:label=""
       transform="matrix(1.14808,0,0,1.21015,-2.9063505,106.74781)"
       id="g19">
      <g
         fill="#000000"
         fill-opacity="1"
         id="g2"
         transform="matrix(0.33002755,0,0,0.3282728,-59.673729,-17.508654)">
        <g
           id="use1"
           transform="translate(187.383,37.856998)">
          <path
             d="m 11.548643,19.38412 c 0.21875,-0.84375 0.28125,-1.09375 2.03125,-1.09375 0.46875,0 0.70312,0 0.70312,-0.46875 0,-0.25 -0.1875,-0.25 -0.65625,-0.25 h -2.96875 c -0.625,0 -0.64062,0.01563 -0.9218701,0.421875 L 0.68926293,32.29037 -1.1701111,18.118495 c -0.0625,-0.546875 -0.09375,-0.546875 -0.734375,-0.546875 h -3.078125 c -0.46875,0 -0.6875,0 -0.6875,0.46875 0,0.25 0.21875,0.25 0.59375,0.25 1.515625,0 1.515625,0.1875 1.515625,0.46875 0,0.04687 0,0.203125 -0.109375,0.5625 l -3.171875,12.640625 c -0.296875,1.1875 -0.859375,1.734375 -2.515625,1.8125 -0.07813,0 -0.375,0.03125 -0.375,0.453125 0,0.265625 0.21875,0.265625 0.3125,0.265625 0.5,0 1.765625,-0.04687 2.265625,-0.04687 h 1.1875 c 0.34375,0 0.765625,0.04687 1.109375,0.04687 0.171875,0 0.453125,0 0.453125,-0.46875 0,-0.21875 -0.25,-0.25 -0.359375,-0.25 -0.8125,-0.03125 -1.609375,-0.171875 -1.609375,-1.0625 0,-0.25 0,-0.28125 0.109375,-0.625 l 3.421875,-13.65625 h 0.01563 l 2.06250003,15.390625 c 0.07813,0.59375 0.09375,0.671875 0.3125,0.671875 0.28125,0 0.40625,-0.203125 0.53125,-0.421875 L 10.033018,18.305995 h 0.0312 L 6.4704679,32.66537 c -0.21875,0.859375 -0.26562,1.109375 -2.01562,1.109375 -0.46875,0 -0.71875,0 -0.71875,0.453125 0,0.265625 0.23437,0.265625 0.375,0.265625 0.42187,0 0.92187,-0.04687 1.34375,-0.04687 h 2.92187 c 0.42188,0 0.9375,0.04687 1.35938,0.04687 0.20312,0 0.4687501,0 0.4687501,-0.46875 0,-0.25 -0.2187501,-0.25 -0.5937501,-0.25 -1.5,0 -1.5,-0.203125 -1.5,-0.453125 0,-0.01563 0,-0.1875 0.0469,-0.390625 z m 0,0"
             id="path19" />
        </g>
      </g>
      <g
         inkscape:label=""
         transform="matrix(0.871021,0,0,0.826342,77.3835,-37.4653)"
         id="g24">
        <g
           inkscape:label=""
           transform="translate(31.291004,52.688446)"
           id="g40">
          <g
             inkscape:label=""
             transform="translate(-3.31266e-5,1.77881e-5)"
             id="g50">
            <g
               fill="#000000"
               fill-opacity="1"
               id="g49"
               transform="matrix(0.352778,0,0,0.352778,51.356437,-21.029086)">
              <g
                 id="g41"
                 transform="translate(1.993,16.108999)">
                <path
                   d="m 8.09375,-7.046875 c 1.96875,-0.390625 3.625,-1.71875 3.625,-3.359375 0,-1.953125 -2.203125,-3.703125 -5.09375,-3.703125 H 1.078125 v 0.53125 c 1.421875,0 1.65625,0 1.65625,0.9375 V -1.46875 c 0,0.9375 -0.234375,0.9375 -1.65625,0.9375 V 0 c 0.59375,-0.046875 1.671875,-0.046875 2.3125,-0.046875 0.640625,0 1.71875,0 2.3125,0.046875 v -0.53125 c -1.421875,0 -1.65625,0 -1.65625,-0.9375 v -5.4375 H 6.46875 c 1.171875,0 1.828125,0.484375 2.125,0.75 0.828125,0.8125 0.828125,1.359375 0.828125,2.765625 0,1.390625 0,2.09375 0.609375,2.796875 0.796875,0.84375 1.84375,0.921875 2.296875,0.921875 1.53125,0 1.765625,-1.71875 1.765625,-2.0625 0,-0.125 0,-0.265625 -0.1875,-0.265625 -0.171875,0 -0.1875,0.125 -0.1875,0.203125 C 13.609375,-0.453125 13.015625,0 12.375,0 11.234375,0 11.109375,-1.296875 10.984375,-2.5625 10.921875,-3 10.890625,-3.3125 10.84375,-3.765625 c -0.125,-1.03125 -0.28125,-2.53125 -2.75,-3.28125 z m -1.6875,-0.1875 H 4.046875 v -5.53125 c 0,-0.703125 0.046875,-0.8125 0.875,-0.8125 h 1.5 c 1.71875,0 3.71875,0.609375 3.71875,3.171875 0,2.65625 -2.1875,3.171875 -3.734375,3.171875 z m 0,0"
                   id="path41" />
              </g>
              <g
                 id="g42"
                 transform="translate(16.053831,16.108999)">
                <path
                   d="m 7.875,-4.859375 c 0.078125,-0.078125 0.078125,-0.125 0.078125,-0.328125 0,-2.109375 -1.109375,-3.9375 -3.46875,-3.9375 -2.1875,0 -3.921875,2.078125 -3.921875,4.625 0,2.6875 1.953125,4.671875 4.140625,4.671875 2.3125,0 3.234375,-2.203125 3.234375,-2.625 0,-0.15625 -0.125,-0.15625 -0.171875,-0.15625 -0.140625,0 -0.171875,0.046875 -0.25,0.296875 -0.453125,1.40625 -1.59375,2.109375 -2.65625,2.109375 -0.890625,0 -1.78125,-0.5 -2.34375,-1.40625 C 1.875,-2.671875 1.875,-3.890625 1.875,-4.859375 Z m -5.96875,-0.3125 c 0.140625,-2.96875 1.734375,-3.625 2.5625,-3.625 1.390625,0 2.34375,1.3125 2.375,3.625 z m 0,0"
                   id="path42" />
              </g>
              <g
                 id="g43"
                 transform="translate(24.451071,16.108999)">
                <path
                   d="m 7.203125,-7.234375 c -0.390625,0 -0.96875,0 -0.96875,0.734375 0,0.578125 0.484375,0.734375 0.75,0.734375 0.140625,0 0.734375,-0.0625 0.734375,-0.78125 0,-1.46875 -1.390625,-2.578125 -2.984375,-2.578125 -2.1875,0 -4.046875,2.015625 -4.046875,4.65625 0,2.75 1.9375,4.640625 4.046875,4.640625 2.5625,0 3.203125,-2.375 3.203125,-2.609375 0,-0.078125 -0.03125,-0.140625 -0.171875,-0.140625 -0.140625,0 -0.171875,0.015625 -0.25,0.28125 -0.53125,1.671875 -1.71875,2.09375 -2.59375,2.09375 C 3.59375,-0.203125 2,-1.421875 2,-4.484375 2,-7.625 3.53125,-8.765625 4.75,-8.765625 c 0.8125,0 2,0.40625 2.453125,1.53125 z m 0,0"
                   id="path43" />
              </g>
              <g
                 id="g44"
                 transform="translate(32.848312,16.108999)">
                <path
                   d="m 7.875,-4.859375 c 0.078125,-0.078125 0.078125,-0.125 0.078125,-0.328125 0,-2.109375 -1.109375,-3.9375 -3.46875,-3.9375 -2.1875,0 -3.921875,2.078125 -3.921875,4.625 0,2.6875 1.953125,4.671875 4.140625,4.671875 2.3125,0 3.234375,-2.203125 3.234375,-2.625 0,-0.15625 -0.125,-0.15625 -0.171875,-0.15625 -0.140625,0 -0.171875,0.046875 -0.25,0.296875 -0.453125,1.40625 -1.59375,2.109375 -2.65625,2.109375 -0.890625,0 -1.78125,-0.5 -2.34375,-1.40625 C 1.875,-2.671875 1.875,-3.890625 1.875,-4.859375 Z m -5.96875,-0.3125 c 0.140625,-2.96875 1.734375,-3.625 2.5625,-3.625 1.390625,0 2.34375,1.3125 2.375,3.625 z m 0,0"
                   id="path44" />
              </g>
              <g
                 id="g45"
                 transform="translate(41.245552,16.108999)">
                <path
                   d="m 4.546875,3.484375 c -1.328125,0 -1.40625,-0.078125 -1.40625,-0.875 v -3.875 c 0.59375,0.875 1.46875,1.4375 2.5625,1.4375 2.0625,0 4.15625,-1.828125 4.15625,-4.640625 0,-2.59375 -1.796875,-4.578125 -3.9375,-4.578125 -1.234375,0 -2.25,0.6875 -2.828125,1.5 v -1.5 L 0.640625,-8.8125 v 0.53125 c 1.21875,0 1.40625,0.125 1.40625,1.109375 v 9.78125 c 0,0.78125 -0.078125,0.875 -1.40625,0.875 V 4.03125 c 0.5,-0.046875 1.40625,-0.046875 1.9375,-0.046875 0.546875,0 1.46875,0 1.96875,0.046875 z m -1.40625,-9.96875 c 0,-0.296875 0,-0.71875 0.8125,-1.484375 C 4.046875,-8.0625 4.75,-8.671875 5.78125,-8.671875 c 1.515625,0 2.75,1.875 2.75,4.234375 0,2.34375 -1.328125,4.265625 -2.953125,4.265625 -0.75,0 -1.546875,-0.34375 -2.171875,-1.3125 C 3.140625,-1.9375 3.140625,-2.0625 3.140625,-2.390625 Z m 0,0"
                   id="path45" />
              </g>
              <g
                 id="g46"
                 transform="translate(51.802021,16.108999)">
                <path
                   d="M 3.125,-8.34375 H 6.015625 V -8.875 H 3.125 v -3.828125 H 2.75 c -0.046875,2.125 -0.765625,3.984375 -2.515625,4.03125 V -8.34375 H 2.03125 v 5.796875 c 0,0.40625 0,2.71875 2.390625,2.71875 1.21875,0 1.921875,-1.203125 1.921875,-2.734375 v -1.171875 h -0.375 v 1.15625 c 0,1.421875 -0.5625,2.375 -1.421875,2.375 C 3.953125,-0.203125 3.125,-0.625 3.125,-2.5 Z m 0,0"
                   id="path46" />
              </g>
              <g
                 id="g47"
                 transform="translate(59.118614,16.108999)">
                <path
                   d="M 8.90625,-4.421875 C 8.90625,-7.0625 6.984375,-9.125 4.734375,-9.125 c -2.25,0 -4.171875,2.0625 -4.171875,4.703125 0,2.609375 1.921875,4.59375 4.171875,4.59375 2.25,0 4.171875,-1.984375 4.171875,-4.59375 z m -4.171875,4.21875 c -0.96875,0 -1.796875,-0.578125 -2.28125,-1.390625 C 1.9375,-2.515625 1.875,-3.671875 1.875,-4.578125 c 0,-0.875 0.046875,-1.953125 0.578125,-2.875 0.421875,-0.6875 1.21875,-1.34375 2.28125,-1.34375 0.921875,0 1.703125,0.515625 2.203125,1.234375 0.640625,0.96875 0.640625,2.34375 0.640625,2.984375 0,0.796875 -0.03125,2.03125 -0.59375,3.03125 -0.578125,0.953125 -1.46875,1.34375 -2.25,1.34375 z m 0,0"
                   id="path47" />
              </g>
              <g
                 id="g48"
                 transform="translate(68.594437,16.108999)">
                <path
                   d="m 3.09375,-4.875 c 0,-1.984375 0.859375,-3.84375 2.40625,-3.84375 0.140625,0 0.28125,0.015625 0.421875,0.078125 0,0 -0.453125,0.15625 -0.453125,0.6875 0,0.5 0.390625,0.703125 0.703125,0.703125 0.25,0 0.703125,-0.140625 0.703125,-0.71875 0,-0.671875 -0.65625,-1.078125 -1.359375,-1.078125 -1.5625,0 -2.25,1.53125 -2.453125,2.25 H 3.03125 v -2.25 L 0.640625,-8.8125 v 0.53125 c 1.21875,0 1.40625,0.125 1.40625,1.109375 v 5.75 c 0,0.78125 -0.078125,0.890625 -1.40625,0.890625 V 0 c 0.5,-0.046875 1.453125,-0.046875 1.984375,-0.046875 0.59375,0 1.65625,0 2.203125,0.046875 v -0.53125 c -1.484375,0 -1.734375,0 -1.734375,-0.9375 z m 0,0"
                   id="path48" />
              </g>
            </g>
          </g>
        </g>
        <g
           inkscape:label=""
           transform="translate(-3.8146995,24.039938)"
           id="g74">
          <g
             fill="#000000"
             fill-opacity="1"
             id="g73"
             transform="matrix(0.352778,0,0,0.352778,-3.9111046,8.1490285)">
            <g
               id="g67"
               transform="translate(1.993,16.108999)">
              <path
                 d="M 12.53125,-5.21875 H 12.171875 C 11.71875,-2.1875 11.4375,-0.53125 7.8125,-0.53125 h -2.875 c -0.828125,0 -0.875,-0.109375 -0.875,-0.8125 v -5.703125 h 1.953125 c 1.9375,0 2.125,0.703125 2.125,2.421875 h 0.375 V -10 h -0.375 c 0,1.71875 -0.1875,2.421875 -2.125,2.421875 H 4.0625 v -5.140625 c 0,-0.703125 0.046875,-0.8125 0.875,-0.8125 h 2.828125 c 3.203125,0 3.578125,1.28125 3.859375,4.03125 H 12 l -0.5,-4.5625 H 1.046875 v 0.53125 c 1.4375,0 1.65625,0 1.65625,0.9375 v 11.125 c 0,0.9375 -0.21875,0.9375 -1.65625,0.9375 V 0 h 10.75 z m 0,0"
                 id="path67" />
            </g>
            <g
               id="g68"
               transform="translate(14.973183,16.108999)">
              <path
                 d="m 13.96875,-6.28125 c 0,-1.03125 -0.1875,-2.765625 -2.65625,-2.765625 -1.390625,0 -2.375,0.953125 -2.734375,2.0625 h -0.03125 c -0.25,-1.6875 -1.46875,-2.0625 -2.625,-2.0625 -1.625,0 -2.46875,1.265625 -2.78125,2.078125 H 3.125 V -9.046875 L 0.6875,-8.8125 v 0.53125 c 1.21875,0 1.40625,0.125 1.40625,1.109375 v 5.75 C 2.09375,-0.640625 2,-0.53125 0.6875,-0.53125 V 0 c 0.484375,-0.046875 1.40625,-0.046875 1.9375,-0.046875 0.53125,0 1.46875,0 1.953125,0.046875 v -0.53125 c -1.3125,0 -1.390625,-0.09375 -1.390625,-0.890625 v -3.96875 c 0,-1.90625 1.15625,-3.328125 2.59375,-3.328125 1.53125,0 1.703125,1.359375 1.703125,2.359375 v 4.9375 c 0,0.78125 -0.09375,0.890625 -1.40625,0.890625 V 0 c 0.484375,-0.046875 1.40625,-0.046875 1.9375,-0.046875 0.53125,0 1.46875,0 1.96875,0.046875 v -0.53125 c -1.328125,0 -1.40625,-0.09375 -1.40625,-0.890625 v -3.96875 c 0,-1.90625 1.15625,-3.328125 2.59375,-3.328125 1.53125,0 1.703125,1.359375 1.703125,2.359375 v 4.9375 c 0,0.78125 -0.09375,0.890625 -1.40625,0.890625 V 0 c 0.484375,-0.046875 1.40625,-0.046875 1.9375,-0.046875 0.53125,0 1.46875,0 1.96875,0.046875 v -0.53125 c -1.328125,0 -1.40625,-0.09375 -1.40625,-0.890625 z m 0,0"
                 id="path68" />
            </g>
            <g
               id="g69"
               transform="translate(30.926699,16.108999)">
              <path
                 d="m 3.203125,-12.71875 c 0,-0.453125 -0.375,-0.859375 -0.84375,-0.859375 -0.453125,0 -0.84375,0.375 -0.84375,0.859375 0,0.453125 0.359375,0.84375 0.84375,0.84375 0.453125,0 0.84375,-0.375 0.84375,-0.84375 z M 0.78125,-8.8125 v 0.53125 c 1.15625,0 1.328125,0.125 1.328125,1.109375 v 5.75 c 0,0.78125 -0.078125,0.890625 -1.40625,0.890625 V 0 c 0.5,-0.046875 1.390625,-0.046875 1.90625,-0.046875 0.484375,0 1.34375,0 1.8125,0.046875 v -0.53125 c -1.21875,0 -1.265625,-0.125 -1.265625,-0.875 v -7.640625 z m 0,0"
                 id="path69" />
            </g>
            <g
               id="g70"
               transform="translate(36.084061,16.108999)">
              <path
                 d="m 6.375,-8.71875 c 0,-0.375 -0.015625,-0.390625 -0.140625,-0.390625 -0.078125,0 -0.09375,0.015625 -0.34375,0.328125 -0.0625,0.078125 -0.25,0.296875 -0.3125,0.375 -0.65625,-0.703125 -1.59375,-0.71875 -1.9375,-0.71875 -2.296875,0 -3.125,1.1875 -3.125,2.390625 0,1.859375 2.109375,2.296875 2.703125,2.421875 1.3125,0.265625 1.765625,0.34375 2.1875,0.71875 0.28125,0.25 0.734375,0.703125 0.734375,1.453125 0,0.859375 -0.5,1.96875 -2.40625,1.96875 -1.796875,0 -2.4375,-1.359375 -2.8125,-3.171875 C 0.875,-3.640625 0.875,-3.65625 0.703125,-3.65625 c -0.171875,0 -0.1875,0.015625 -0.1875,0.4375 V -0.25 c 0,0.375 0.015625,0.390625 0.140625,0.390625 0.109375,0 0.125,-0.015625 0.234375,-0.1875 0.125,-0.1875 0.4375,-0.671875 0.5625,-0.875 0.40625,0.546875 1.125,1.09375 2.28125,1.09375 2.046875,0 3.140625,-1.125 3.140625,-2.734375 0,-1.046875 -0.546875,-1.609375 -0.828125,-1.859375 C 5.4375,-5.0625 4.703125,-5.203125 3.84375,-5.375 2.703125,-5.625 1.265625,-5.90625 1.265625,-7.171875 c 0,-0.53125 0.28125,-1.671875 2.375,-1.671875 2.203125,0 2.328125,2.0625 2.375,2.734375 0.015625,0.09375 0.125,0.125 0.1875,0.125 0.171875,0 0.171875,-0.0625 0.171875,-0.421875 z m 0,0"
                 id="path70" />
            </g>
            <g
               id="g71"
               transform="translate(43.510162,16.108999)">
              <path
                 d="M 8.90625,-4.421875 C 8.90625,-7.0625 6.984375,-9.125 4.734375,-9.125 c -2.25,0 -4.171875,2.0625 -4.171875,4.703125 0,2.609375 1.921875,4.59375 4.171875,4.59375 2.25,0 4.171875,-1.984375 4.171875,-4.59375 z m -4.171875,4.21875 c -0.96875,0 -1.796875,-0.578125 -2.28125,-1.390625 C 1.9375,-2.515625 1.875,-3.671875 1.875,-4.578125 c 0,-0.875 0.046875,-1.953125 0.578125,-2.875 0.421875,-0.6875 1.21875,-1.34375 2.28125,-1.34375 0.921875,0 1.703125,0.515625 2.203125,1.234375 0.640625,0.96875 0.640625,2.34375 0.640625,2.984375 0,0.796875 -0.03125,2.03125 -0.59375,3.03125 -0.578125,0.953125 -1.46875,1.34375 -2.25,1.34375 z m 0,0"
                 id="path71" />
            </g>
            <g
               id="g72"
               transform="translate(52.985985,16.108999)">
              <path
                 d="m 3.09375,-4.875 c 0,-1.984375 0.859375,-3.84375 2.40625,-3.84375 0.140625,0 0.28125,0.015625 0.421875,0.078125 0,0 -0.453125,0.15625 -0.453125,0.6875 0,0.5 0.390625,0.703125 0.703125,0.703125 0.25,0 0.703125,-0.140625 0.703125,-0.71875 0,-0.671875 -0.65625,-1.078125 -1.359375,-1.078125 -1.5625,0 -2.25,1.53125 -2.453125,2.25 H 3.03125 v -2.25 L 0.640625,-8.8125 v 0.53125 c 1.21875,0 1.40625,0.125 1.40625,1.109375 v 5.75 c 0,0.78125 -0.078125,0.890625 -1.40625,0.890625 V 0 c 0.5,-0.046875 1.453125,-0.046875 1.984375,-0.046875 0.59375,0 1.65625,0 2.203125,0.046875 v -0.53125 c -1.484375,0 -1.734375,0 -1.734375,-0.9375 z m 0,0"
                 id="path72" />
            </g>
          </g>
        </g>
      </g>
    </g>
    <g
       inkscape:label=""
       transform="matrix(1.0621281,0,0,1.0203939,24.202865,96.847558)"
       id="g75">
      <g
         fill="#000000"
         fill-opacity="1"
         id="g23"
         transform="matrix(0.352778,0,0,0.352778,-63.4467,-9.49435)">
        <g
           id="g22"
           transform="translate(178.677,43.834999)">
          <path
             d="m 9.125,-15.234375 c 0.21875,-0.921875 0.3125,-0.96875 1.28125,-0.96875 h 1.78125 c 2.140625,0 3.71875,0.640625 3.71875,2.578125 0,1.265625 -0.640625,4.90625 -5.625,4.90625 H 7.484375 Z m 3.4375,6.8125 c 3.078125,-0.671875 5.484375,-2.65625 5.484375,-4.78125 0,-1.9375 -1.96875,-3.71875 -5.40625,-3.71875 h -6.71875 c -0.5,0 -0.71875,0 -0.71875,0.46875 0,0.25 0.171875,0.25 0.640625,0.25 1.484375,0 1.484375,0.1875 1.484375,0.46875 0,0.04687 0,0.203125 -0.09375,0.5625 l -3.34375,13.34375 C 3.671875,-0.96875 3.625,-0.71875 1.90625,-0.71875 c -0.5625,0 -0.734375,0 -0.734375,0.46875 0,0.25 0.265625,0.25 0.34375,0.25 0.4375,0 0.96875,-0.046875 1.4375,-0.046875 H 5.875 C 6.3125,-0.046875 6.84375,0 7.28125,0 7.484375,0 7.75,0 7.75,-0.46875 c 0,-0.25 -0.21875,-0.25 -0.59375,-0.25 -1.5,0 -1.5,-0.203125 -1.5,-0.453125 0,-0.015625 0,-0.1875 0.046875,-0.390625 l 1.65625,-6.671875 h 2.96875 c 2.359375,0 2.8125,1.5 2.8125,2.3125 0,0.375 -0.25,1.34375 -0.421875,1.984375 -0.28125,1.140625 -0.359375,1.40625 -0.359375,1.875 0,1.765625 1.4375,2.578125 3.109375,2.578125 2,0 2.875,-2.453125 2.875,-2.796875 0,-0.171875 -0.125,-0.25 -0.28125,-0.25 -0.1875,0 -0.25,0.15625 -0.296875,0.34375 -0.59375,1.765625 -1.609375,2.21875 -2.234375,2.21875 -0.609375,0 -1.015625,-0.28125 -1.015625,-1.390625 0,-0.59375 0.296875,-2.859375 0.328125,-2.984375 0.125,-0.90625 0.125,-1.015625 0.125,-1.203125 0,-1.8125 -1.46875,-2.578125 -2.40625,-2.875 z m 0,0"
             id="path22" />
        </g>
      </g>
    </g>
  </g>
</svg>
