<?xml version="1.0" encoding="UTF-8" standalone="no"?>
<!-- Created with Inkscape (http://www.inkscape.org/) -->

<svg
   width="134.748mm"
   height="101.404mm"
   viewBox="0 0 134.748 101.404"
   version="1.1"
   id="svg1"
   inkscape:version="1.3 (0e150ed6c4, 2023-07-21)"
   sodipodi:docname="Fig-Ejercicio-1.2.svg"
   xml:space="preserve"
   xmlns:inkscape="http://www.inkscape.org/namespaces/inkscape"
   xmlns:sodipodi="http://sodipodi.sourceforge.net/DTD/sodipodi-0.dtd"
   xmlns:xlink="http://www.w3.org/1999/xlink"
   xmlns="http://www.w3.org/2000/svg"
   xmlns:svg="http://www.w3.org/2000/svg"><sodipodi:namedview
     id="namedview1"
     pagecolor="#ffffff"
     bordercolor="#000000"
     borderopacity="0.25"
     inkscape:showpageshadow="2"
     inkscape:pageopacity="0.0"
     inkscape:pagecheckerboard="0"
     inkscape:deskcolor="#d1d1d1"
     inkscape:document-units="mm"
     inkscape:zoom="1.0544998"
     inkscape:cx="166.42962"
     inkscape:cy="204.3623"
     inkscape:window-width="1920"
     inkscape:window-height="1051"
     inkscape:window-x="-9"
     inkscape:window-y="-9"
     inkscape:window-maximized="1"
     inkscape:current-layer="layer7" /><defs
     id="defs1"><marker
       style="overflow:visible"
       id="ArrowWideRounded"
       refX="0"
       refY="0"
       orient="auto-start-reverse"
       inkscape:stockid="Wide, rounded arrow"
       markerWidth="1"
       markerHeight="1"
       viewBox="0 0 1 1"
       inkscape:isstock="true"
       inkscape:collect="always"
       preserveAspectRatio="xMidYMid"><path
         style="fill:none;stroke:context-stroke;stroke-width:1;stroke-linecap:round"
         d="M 3,-3 0,0 3,3"
         transform="rotate(180,0.125,0)"
         sodipodi:nodetypes="ccc"
         id="path46" /></marker><inkscape:path-effect
       effect="spiro"
       id="path-effect45"
       is_visible="true"
       lpeversion="1" /><linearGradient
       id="linearGradient44"
       inkscape:collect="always"><stop
         style="stop-color:#a5000a;stop-opacity:1;"
         offset="0"
         id="stop44" /><stop
         style="stop-color:#a5000a;stop-opacity:0;"
         offset="1"
         id="stop45" /></linearGradient><inkscape:path-effect
       effect="spiro"
       id="path-effect41"
       is_visible="true"
       lpeversion="1" /><marker
       style="overflow:visible"
       id="ArrowWideHeavy"
       refX="0"
       refY="0"
       orient="auto-start-reverse"
       inkscape:stockid="Wide, heavy arrow"
       markerWidth="1"
       markerHeight="1"
       viewBox="0 0 1 1"
       inkscape:isstock="true"
       inkscape:collect="always"
       preserveAspectRatio="xMidYMid"><path
         style="fill:context-stroke;fill-rule:evenodd;stroke:none"
         d="m 1,0 -3,3 h -2 l 3,-3 -3,-3 h 2 z"
         id="path8" /></marker><inkscape:path-effect
       effect="spiro"
       id="path-effect3"
       is_visible="true"
       lpeversion="1" /><marker
       style="overflow:visible"
       id="ConcaveTriangle"
       refX="0"
       refY="0"
       orient="auto-start-reverse"
       inkscape:stockid="Concave triangle arrow"
       markerWidth="1.6"
       markerHeight="0.80000001"
       viewBox="0 0 1 1"
       inkscape:isstock="true"
       inkscape:collect="always"
       preserveAspectRatio="xMidYMid"><path
         transform="scale(0.7)"
         d="M -2,-4 9,0 -2,4 c 2,-2.33 2,-5.66 0,-8 z"
         style="fill:context-stroke;fill-rule:evenodd;stroke:none"
         id="path7" /></marker><inkscape:path-effect
       effect="spiro"
       id="path-effect2"
       is_visible="true"
       lpeversion="1" /><marker
       style="overflow:visible"
       id="ConcaveTriangle-2"
       refX="0"
       refY="0"
       orient="auto-start-reverse"
       inkscape:stockid="Concave triangle arrow"
       markerWidth="0.80000001"
       markerHeight="0.80000001"
       viewBox="0 0 1 1"
       inkscape:isstock="true"
       inkscape:collect="always"
       preserveAspectRatio="xMidYMid"><path
         transform="scale(0.7)"
         d="M -2,-4 9,0 -2,4 c 2,-2.33 2,-5.66 0,-8 z"
         style="fill:context-stroke;fill-rule:evenodd;stroke:none"
         id="path7-9" /></marker><inkscape:path-effect
       effect="spiro"
       id="path-effect2-9"
       is_visible="true"
       lpeversion="1" /><marker
       style="overflow:visible"
       id="ConcaveTriangle-1"
       refX="0"
       refY="0"
       orient="auto-start-reverse"
       inkscape:stockid="Concave triangle arrow"
       markerWidth="1.6"
       markerHeight="0.80000001"
       viewBox="0 0 1 1"
       inkscape:isstock="true"
       inkscape:collect="always"
       preserveAspectRatio="xMidYMid"><path
         transform="scale(0.7)"
         d="M -2,-4 9,0 -2,4 c 2,-2.33 2,-5.66 0,-8 z"
         style="fill:context-stroke;fill-rule:evenodd;stroke:none"
         id="path7-3" /></marker><inkscape:path-effect
       effect="spiro"
       id="path-effect2-4"
       is_visible="true"
       lpeversion="1" /><inkscape:path-effect
       effect="spiro"
       id="path-effect3-0"
       is_visible="true"
       lpeversion="1" /><inkscape:path-effect
       effect="spiro"
       id="path-effect3-0-7"
       is_visible="true"
       lpeversion="1" /><inkscape:path-effect
       effect="spiro"
       id="path-effect3-0-7-7"
       is_visible="true"
       lpeversion="1" /><inkscape:path-effect
       effect="spiro"
       id="path-effect3-0-0"
       is_visible="true"
       lpeversion="1" /><inkscape:path-effect
       effect="spiro"
       id="path-effect41-1"
       is_visible="true"
       lpeversion="1" /><inkscape:path-effect
       effect="spiro"
       id="path-effect41-5"
       is_visible="true"
       lpeversion="1" /><linearGradient
       inkscape:collect="always"
       xlink:href="#linearGradient44"
       id="linearGradient45"
       x1="136.2565"
       y1="70.491554"
       x2="151.83675"
       y2="69.92701"
       gradientUnits="userSpaceOnUse" /><marker
       style="overflow:visible"
       id="ArrowWideRounded-1"
       refX="0"
       refY="0"
       orient="auto-start-reverse"
       inkscape:stockid="Wide, rounded arrow"
       markerWidth="1"
       markerHeight="1"
       viewBox="0 0 1 1"
       inkscape:isstock="true"
       inkscape:collect="always"
       preserveAspectRatio="xMidYMid"><path
         style="fill:none;stroke:context-stroke;stroke-width:1;stroke-linecap:round"
         d="M 3,-3 0,0 3,3"
         transform="rotate(180,0.125,0)"
         sodipodi:nodetypes="ccc"
         id="path46-6" /></marker><inkscape:path-effect
       effect="spiro"
       id="path-effect45-9"
       is_visible="true"
       lpeversion="1" /><marker
       style="overflow:visible"
       id="ArrowWideRounded-19"
       refX="0"
       refY="0"
       orient="auto-start-reverse"
       inkscape:stockid="Wide, rounded arrow"
       markerWidth="1"
       markerHeight="1"
       viewBox="0 0 1 1"
       inkscape:isstock="true"
       inkscape:collect="always"
       preserveAspectRatio="xMidYMid"><path
         style="fill:none;stroke:context-stroke;stroke-width:1;stroke-linecap:round"
         d="M 3,-3 0,0 3,3"
         transform="rotate(180,0.125,0)"
         sodipodi:nodetypes="ccc"
         id="path46-64" /></marker><inkscape:path-effect
       effect="spiro"
       id="path-effect45-5"
       is_visible="true"
       lpeversion="1" /></defs><g
     inkscape:label="Capa 1"
     inkscape:groupmode="layer"
     id="layer1"
     sodipodi:insensitive="true"
     style="display:none"
     transform="translate(-59.21267,-86.317673)"><path
       d="M 0,0 V 296.99999 M 10.583333,0 V 296.99999 M 21.166666,0 V 296.99999 M 31.749999,0 V 296.99999 M 42.333332,0 V 296.99999 M 52.916665,0 V 296.99999 M 63.499999,0 V 296.99999 M 74.083332,0 V 296.99999 M 84.666665,0 V 296.99999 M 95.249998,0 V 296.99999 M 105.83333,0 V 296.99999 M 116.41666,0 V 296.99999 M 127,0 V 296.99999 M 137.58333,0 V 296.99999 M 148.16666,0 V 296.99999 M 158.75,0 V 296.99999 M 169.33333,0 V 296.99999 M 179.91666,0 V 296.99999 M 190.5,0 V 296.99999 M 201.08333,0 V 296.99999 M 0,0 H 210 M 0,10.583333 H 210 M 0,21.166666 H 210 M 0,31.749999 H 210 M 0,42.333332 H 210 M 0,52.916665 H 210 M 0,63.499999 H 210 M 0,74.083332 H 210 M 0,84.666665 H 210 M 0,95.249998 H 210 M 0,105.83333 H 210 M 0,116.41666 H 210 M 0,127 H 210 M 0,137.58333 H 210 M 0,148.16666 H 210 M 0,158.75 H 210 M 0,169.33333 H 210 M 0,179.91666 H 210 M 0,190.5 H 210 M 0,201.08333 H 210 M 0,211.66666 H 210 M 0,222.24999 H 210 M 0,232.83333 H 210 M 0,243.41666 H 210 M 0,253.99999 H 210 M 0,264.58333 H 210 M 0,275.16666 H 210 M 0,285.74999 H 210 M 0,296.33333 h 210"
       style="opacity:0.583908;fill:none;stroke:#000000;stroke-width:0.265;stroke-dasharray:none"
       id="path1" /></g><g
     inkscape:groupmode="layer"
     id="layer6"
     inkscape:label="Ejes"
     transform="translate(-59.21267,-86.317673)"><path
       style="opacity:1;fill:none;stroke:#000000;stroke-width:0.6;stroke-linecap:round;stroke-linejoin:round;stroke-dasharray:none;stroke-opacity:1;marker-end:url(#ConcaveTriangle)"
       d="m 95.096773,148.14516 39.447347,0.12545"
       id="path2"
       inkscape:path-effect="#path-effect2"
       inkscape:original-d="m 95.096773,148.14516 39.447347,0.12545"
       transform="translate(23.020304,1.5875)"
       sodipodi:nodetypes="cc" /><path
       style="fill:none;stroke:#000000;stroke-width:0.6;stroke-linecap:round;stroke-linejoin:round;stroke-dasharray:none;stroke-opacity:1;marker-end:url(#ConcaveTriangle-2)"
       d="M 95.096773,148.14516 H 147.96774"
       id="path2-7"
       inkscape:path-effect="#path-effect2-9"
       inkscape:original-d="M 95.096773,148.14516 H 147.96774"
       transform="rotate(-90,107.34064,137.45342)" /><path
       style="fill:none;stroke:#000000;stroke-width:0.6;stroke-linecap:round;stroke-linejoin:round;stroke-dasharray:none;stroke-opacity:1;marker-end:url(#ConcaveTriangle-1)"
       d="m 103.12585,148.15581 32.09483,-0.009"
       id="path2-78"
       inkscape:path-effect="#path-effect2-4"
       inkscape:original-d="m 103.12585,148.15581 32.09483,-0.009"
       transform="rotate(126.20102,110.01847,152.7798)"
       sodipodi:nodetypes="cc" /></g><g
     inkscape:groupmode="layer"
     id="layer7"
     inkscape:label="Lineas-de-mundo"
     transform="translate(-59.21267,-86.317673)"><path
       style="fill:none;stroke:#0b00ff;stroke-width:0.7;stroke-linecap:round;stroke-linejoin:round;stroke-dasharray:none;stroke-opacity:1"
       d="M 87.575822,170.76633 87.64516,94.032257"
       id="path3"
       inkscape:path-effect="#path-effect3-0"
       inkscape:original-d="M 87.575822,170.76633 87.64516,94.032257"
       transform="rotate(-0.11693352,2958.2404,-9591.913)"
       sodipodi:nodetypes="cc" /><path
       style="fill:none;stroke:#0b00ff;stroke-width:0.7;stroke-linecap:round;stroke-linejoin:round;stroke-dasharray:none;stroke-opacity:1;marker-end:url(#ArrowWideHeavy)"
       d="m 87.66725,125.96803 0.0143,-6.29855"
       id="path3-8"
       inkscape:path-effect="#path-effect3-0-7"
       inkscape:original-d="m 87.66725,125.96803 c -129.607943,-2218.29263 -0.04484,22.44339 0.0143,-6.29855"
       transform="matrix(0.79320014,-0.43714632,-7.559827e-5,1.1735437,37.865397,17.706206)"
       sodipodi:nodetypes="cc"
       inkscape:transform-center-x="-0.040898201"
       inkscape:transform-center-y="-0.21373679" /><path
       style="opacity:1;fill:none;stroke:#ff0010;stroke-width:0.8;stroke-linecap:round;stroke-linejoin:round;stroke-dasharray:none;stroke-opacity:1"
       d="m 154.12077,119.21307 c 2.54609,-1.48579 4.99887,-3.13146 7.33908,-4.92409 1.94221,-1.48776 3.81629,-3.08603 5.39454,-4.95545 1.57108,-1.86092 2.86035,-4.04915 3.19909,-6.4609 0.27493,-1.95743 -0.0983,-3.982862 -0.94091,-5.770902 -1.0781,-2.287701 -2.87391,-4.157011 -4.76727,-5.833632 -3.31941,-2.939422 -7.02778,-5.418596 -10.90127,-7.576079 -4.17207,-2.323786 -8.53698,-4.27885 -12.80962,-6.412089 -2.25081,-1.123786 -4.48869,-2.304923 -6.49226,-3.826359 -0.78574,-0.596661 -1.55479,-1.271877 -1.97591,-2.164091 -0.41767,-0.884894 -0.44843,-1.941984 -0.0941,-2.854087 0.27635,-0.711367 0.76803,-1.320593 1.31727,-1.850453 0.85187,-0.821819 1.84981,-1.474877 2.85409,-2.101363 5.63406,-3.5146 11.68544,-6.35956 17.98625,-8.455946"
       id="path41"
       inkscape:path-effect="#path-effect41"
       inkscape:original-d="m 154.12077,119.21307 c 1.65182,-0.73182 4.41181,-3.06318 7.33908,-4.92409 2.92727,-1.8609 3.59636,-3.30363 5.39454,-4.95545 1.79818,-1.65181 2.13272,-4.30726 3.19909,-6.4609 1.06636,-2.15363 -0.62727,-3.847268 -0.94091,-5.770902 -0.31364,-1.923635 -3.17818,-3.88909 -4.76727,-5.833632 -1.58909,-1.944544 -7.55582,-5.213353 -10.90127,-7.576079 -3.34546,-2.362724 -8.25144,-4.112093 -12.80962,-6.412089 -4.55817,-2.299999 -4.32817,-2.550906 -6.49226,-3.826359 -2.16409,-1.275456 -1.31728,-1.442728 -1.97591,-2.164091 -0.65864,-0.721363 -0.0627,-1.902725 -0.0941,-2.854087 -0.0314,-0.951365 0.87818,-1.233636 1.31727,-1.850453 0.43909,-0.616818 1.90273,-1.400908 2.85409,-2.101363 0.95136,-0.700453 14.14944,-6.48004 17.98625,-8.455946"
       transform="translate(-46.747573,44.869279)"
       sodipodi:nodetypes="cssssssssssssc" /><path
       style="fill:none;stroke:url(#linearGradient45);stroke-width:0.8;stroke-linecap:round;stroke-linejoin:round;stroke-dasharray:none"
       d="m 153.60085,83.582244 c -4.35877,-2.024277 -8.68182,-4.125485 -12.96644,-6.302316 -2.24265,-1.139393 -4.48724,-2.307291 -6.49226,-3.826359 -0.78644,-0.595828 -1.55504,-1.271702 -1.97591,-2.164091 -0.41739,-0.884997 -0.44835,-1.941978 -0.0941,-2.854087 0.27629,-0.711395 0.768,-1.320624 1.31727,-1.850453 0.85192,-0.821762 1.84992,-1.474695 2.85409,-2.101363 2.94726,-1.839292 6.00681,-3.498622 9.15595,-4.965677"
       id="path41-2"
       inkscape:path-effect="#path-effect41-5"
       inkscape:original-d="m 153.60085,83.582244 c -3.34546,-2.362724 -8.40826,-4.00232 -12.96644,-6.302316 -4.55817,-2.299999 -4.32817,-2.550906 -6.49226,-3.826359 -2.16409,-1.275456 -1.31728,-1.442728 -1.97591,-2.164091 -0.65864,-0.721363 -0.0627,-1.902725 -0.0941,-2.854087 -0.0314,-0.951365 0.87818,-1.233636 1.31727,-1.850453 0.43909,-0.616818 1.90273,-1.400909 2.85409,-2.101363 0.53604,-0.394667 4.70914,-2.934992 9.15595,-4.965677"
       transform="translate(-46.723542,44.868877)"
       sodipodi:nodetypes="cssssssc" /><path
       style="fill:none;stroke:#0b00ff;stroke-width:0.7;stroke-linecap:round;stroke-linejoin:round;stroke-dasharray:none;stroke-opacity:1"
       d="m 87.467741,180.25806 -0.113179,-5.30812"
       id="path3-6"
       inkscape:path-effect="#path-effect3-0-0"
       inkscape:original-d="m 87.467741,180.25806 -0.113179,-5.30812"
       transform="matrix(0.97814289,0.02330283,-0.02280067,0.99968553,25.966567,-51.049319)"
       sodipodi:nodetypes="cc" /><path
       style="opacity:1;fill:none;stroke:#ff0010;stroke-width:0.65;stroke-linecap:round;stroke-linejoin:round;stroke-dasharray:none;stroke-opacity:0.101961;marker-end:url(#ArrowWideRounded)"
       d="m 105.83064,133.04637 v -1.13508"
       id="path45"
       inkscape:path-effect="#path-effect45"
       inkscape:original-d="m 105.83064,133.04637 v -1.13508"
       sodipodi:nodetypes="cc"
       transform="rotate(37.582512,84.982903,165.5662)" /><path
       style="fill:none;stroke:#d2000d;stroke-width:0.65;stroke-linecap:round;stroke-linejoin:round;stroke-dasharray:none;stroke-opacity:1;marker-end:url(#ArrowWideRounded-1)"
       d="m 105.84191,132.32356 -0.0113,-0.41227"
       id="path45-7"
       inkscape:path-effect="#path-effect45-9"
       inkscape:original-d="m 105.84191,132.32356 -0.0113,-0.41227"
       sodipodi:nodetypes="cc"
       transform="rotate(-50.291917,91.926584,137.68865)" /><path
       style="fill:none;stroke:#ff0010;stroke-width:0.65;stroke-linecap:round;stroke-linejoin:round;stroke-dasharray:none;stroke-opacity:0.101961;marker-end:url(#ArrowWideRounded-19)"
       d="m 105.83064,133.04637 v -1.13508"
       id="path45-3"
       inkscape:path-effect="#path-effect45-5"
       inkscape:original-d="m 105.83064,133.04637 v -1.13508"
       sodipodi:nodetypes="cc"
       transform="rotate(65.866918,128.42404,115.99013)" /></g><g
     inkscape:groupmode="layer"
     id="layer8"
     inkscape:label="LaTeX"
     transform="translate(-59.21267,-86.317673)"><g
       inkscape:label=""
       transform="translate(107.64942,122.67651)"
       id="g80">&#10;  &#10;  &#10;  &#10;  &#10;  &#10;<g
   inkscape:label=""
   id="g46"><g
   fill="#000000"
   fill-opacity="1"
   id="g10"
   transform="matrix(0.352778,0,0,0.352778,-92.018332,53.394757)">&#10;    <g
   id="use9"
   transform="translate(187.554,24.707001)">&#10;      <path
   d="m 8.15625,-7.03125 c -0.546875,0.109375 -0.75,0.515625 -0.75,0.84375 0,0.421875 0.328125,0.5625 0.5625,0.5625 0.515625,0 0.875,-0.453125 0.875,-0.921875 0,-0.71875 -0.8125,-1.046875 -1.546875,-1.046875 -1.046875,0 -1.625,1.03125 -1.78125,1.359375 -0.40625,-1.296875 -1.46875,-1.359375 -1.78125,-1.359375 -1.75,0 -2.6875,2.25 -2.6875,2.640625 0,0.0625 0.078125,0.15625 0.1875,0.15625 0.140625,0 0.171875,-0.109375 0.21875,-0.171875 C 2.03125,-6.890625 3.1875,-7.25 3.6875,-7.25 c 0.765625,0 0.921875,0.71875 0.921875,1.140625 0,0.375 -0.09375,0.765625 -0.296875,1.59375 L 3.71875,-2.15625 c -0.25,1.03125 -0.75,1.984375 -1.671875,1.984375 -0.078125,0 -0.515625,0 -0.875,-0.21875 0.625,-0.125 0.75,-0.640625 0.75,-0.84375 0,-0.34375 -0.25,-0.5625 -0.578125,-0.5625 -0.40625,0 -0.859375,0.375 -0.859375,0.921875 0,0.71875 0.8125,1.046875 1.546875,1.046875 0.828125,0 1.40625,-0.65625 1.78125,-1.359375 0.265625,1.015625 1.125,1.359375 1.765625,1.359375 1.75,0 2.6875,-2.25 2.6875,-2.640625 0,-0.078125 -0.0625,-0.15625 -0.171875,-0.15625 -0.15625,0 -0.171875,0.09375 -0.21875,0.234375 -0.46875,1.515625 -1.46875,2.21875 -2.25,2.21875 -0.59375,0 -0.921875,-0.453125 -0.921875,-1.15625 0,-0.375 0.0625,-0.65625 0.34375,-1.78125 l 0.59375,-2.34375 C 5.90625,-6.484375 6.484375,-7.25 7.28125,-7.25 c 0.03125,0 0.515625,0 0.875,0.21875 z m 0,0"
   id="path17" />&#10;    </g>&#10;  </g>&#10;  <g
   fill="#000000"
   fill-opacity="1"
   id="g11"
   transform="matrix(0.352778,0,0,0.352778,-92.018332,53.394757)">&#10;    <g
   id="use10"
   transform="translate(201.91499,24.707001)">&#10;      <path
   d="m 11.078125,-5.53125 c 0.25,0 0.515625,0 0.515625,-0.28125 C 11.59375,-6.125 11.296875,-6.125 11,-6.125 H 1.375 c -0.296875,0 -0.578125,0 -0.578125,0.3125 0,0.28125 0.25,0.28125 0.515625,0.28125 z M 11,-2.46875 c 0.296875,0 0.59375,0 0.59375,-0.296875 0,-0.296875 -0.265625,-0.296875 -0.515625,-0.296875 H 1.3125 c -0.265625,0 -0.515625,0 -0.515625,0.296875 0,0.296875 0.28125,0.296875 0.578125,0.296875 z m 0,0"
   id="path18" />&#10;    </g>&#10;  </g>&#10;  <g
   fill="#000000"
   fill-opacity="1"
   id="g12"
   transform="matrix(0.352778,0,0,0.352778,-92.018332,53.394757)">&#10;    <g
   id="use11"
   transform="translate(219.089,24.707001)">&#10;      <path
   d="m 6.703125,-7.046875 c -0.53125,0.109375 -0.8125,0.484375 -0.8125,0.859375 0,0.421875 0.328125,0.5625 0.5625,0.5625 0.484375,0 0.875,-0.421875 0.875,-0.9375 0,-0.546875 -0.53125,-1.03125 -1.390625,-1.03125 -0.6875,0 -1.484375,0.3125 -2.203125,1.359375 -0.125,-0.90625 -0.8125,-1.359375 -1.5,-1.359375 -0.671875,0 -1.015625,0.515625 -1.21875,0.890625 -0.296875,0.625 -0.546875,1.65625 -0.546875,1.75 0,0.0625 0.0625,0.15625 0.1875,0.15625 0.140625,0 0.15625,-0.03125 0.25,-0.421875 C 1.171875,-6.25 1.5,-7.25 2.1875,-7.25 c 0.40625,0 0.53125,0.296875 0.53125,0.796875 0,0.375 -0.171875,1.046875 -0.296875,1.578125 l -0.46875,1.859375 C 1.875,-2.6875 1.6875,-1.90625 1.59375,-1.59375 c -0.109375,0.4375 -0.296875,1.25 -0.296875,1.328125 0,0.25 0.1875,0.4375 0.4375,0.4375 0.1875,0 0.515625,-0.125 0.625,-0.46875 0.046875,-0.140625 0.6875,-2.734375 0.796875,-3.125 0.078125,-0.390625 0.1875,-0.75 0.265625,-1.125 C 3.5,-4.78125 3.5625,-5.0625 3.609375,-5.28125 3.671875,-5.4375 4.125,-6.28125 4.5625,-6.65625 4.765625,-6.859375 5.21875,-7.25 5.921875,-7.25 c 0.28125,0 0.546875,0.046875 0.78125,0.203125 z m 0,0"
   id="path19" />&#10;    </g>&#10;  </g>&#10;  <g
   fill="#000000"
   fill-opacity="1"
   id="g15"
   transform="matrix(0.352778,0,0,0.352778,-92.018332,53.394757)">&#10;    <g
   id="use12"
   transform="translate(230.02299,24.707001)">&#10;      <path
   d="m 6.015625,-6.03125 c -0.328125,0 -0.8125,0 -0.8125,0.609375 0,0.484375 0.390625,0.625 0.609375,0.625 0.125,0 0.625,-0.0625 0.625,-0.65625 0,-1.234375 -1.171875,-2.15625 -2.5,-2.15625 -1.8125,0 -3.375,1.6875 -3.375,3.890625 0,2.296875 1.625,3.859375 3.375,3.859375 2.140625,0 2.671875,-1.984375 2.671875,-2.171875 0,-0.0625 -0.015625,-0.125 -0.140625,-0.125 -0.109375,0 -0.125,0.015625 -0.203125,0.25 C 5.8125,-0.515625 4.84375,-0.171875 4.09375,-0.171875 3,-0.171875 1.671875,-1.1875 1.671875,-3.734375 c 0,-2.625 1.265625,-3.5625 2.28125,-3.5625 0.671875,0 1.671875,0.328125 2.0625,1.265625 z m 0,0"
   id="path20" />&#10;    </g>&#10;    <g
   id="use13"
   transform="translate(237.01933,24.707001)">&#10;      <path
   d="m 7.421875,-3.6875 c 0,-2.203125 -1.609375,-3.921875 -3.484375,-3.921875 -1.875,0 -3.46875,1.71875 -3.46875,3.921875 0,2.171875 1.59375,3.828125 3.46875,3.828125 1.875,0 3.484375,-1.65625 3.484375,-3.828125 z M 3.9375,-0.171875 c -0.796875,0 -1.5,-0.484375 -1.890625,-1.15625 C 1.625,-2.09375 1.5625,-3.0625 1.5625,-3.828125 c 0,-0.71875 0.03125,-1.609375 0.484375,-2.390625 0.34375,-0.5625 1.015625,-1.109375 1.890625,-1.109375 0.78125,0 1.4375,0.421875 1.84375,1.03125 0.53125,0.796875 0.53125,1.9375 0.53125,2.46875 0,0.671875 -0.03125,1.703125 -0.5,2.53125 -0.46875,0.796875 -1.21875,1.125 -1.875,1.125 z m 0,0"
   id="path21" />&#10;    </g>&#10;    <g
   id="use14"
   transform="translate(244.91432,24.707001)">&#10;      <path
   d="m 5.328125,-7.265625 c 0,-0.3125 -0.03125,-0.328125 -0.125,-0.328125 -0.078125,0 -0.09375,0.015625 -0.296875,0.28125 -0.046875,0.0625 -0.203125,0.234375 -0.25,0.296875 -0.5625,-0.578125 -1.328125,-0.59375 -1.625,-0.59375 -1.90625,0 -2.59375,1 -2.59375,2 0,1.546875 1.75,1.90625 2.25,2.015625 C 3.765625,-3.375 4.15625,-3.3125 4.515625,-3 c 0.21875,0.203125 0.59375,0.59375 0.59375,1.203125 0,0.734375 -0.40625,1.65625 -2,1.65625 -1.484375,0 -2.03125,-1.140625 -2.328125,-2.65625 -0.0625,-0.234375 -0.0625,-0.25 -0.203125,-0.25 -0.125,0 -0.140625,0.015625 -0.140625,0.359375 v 2.484375 c 0,0.3125 0.015625,0.328125 0.109375,0.328125 0.09375,0 0.109375,-0.015625 0.1875,-0.15625 0.109375,-0.15625 0.375,-0.578125 0.46875,-0.75 0.34375,0.46875 0.953125,0.921875 1.90625,0.921875 1.71875,0 2.625,-0.9375 2.625,-2.28125 0,-0.875 -0.46875,-1.34375 -0.6875,-1.546875 C 4.53125,-4.21875 3.921875,-4.34375 3.203125,-4.484375 2.25,-4.6875 1.046875,-4.921875 1.046875,-5.96875 c 0,-0.453125 0.25,-1.40625 1.984375,-1.40625 1.84375,0 1.9375,1.734375 1.984375,2.28125 C 5.03125,-5.015625 5.109375,-5 5.171875,-5 c 0.15625,0 0.15625,-0.046875 0.15625,-0.34375 z m 0,0"
   id="path22" />&#10;    </g>&#10;    <g
   id="use15"
   transform="translate(251.10153,24.707001)">&#10;      <path
   d="m 5.265625,4.203125 c 0,-0.015625 0,-0.046875 -0.046875,-0.109375 -0.796875,-0.8125 -2.90625,-3.015625 -2.90625,-8.375 0,-5.375 2.078125,-7.5625 2.921875,-8.421875 0,-0.01563 0.03125,-0.0625 0.03125,-0.109375 0,-0.04687 -0.046875,-0.07813 -0.125,-0.07813 -0.1875,0 -1.640625,1.265625 -2.484375,3.15625 -0.859375,1.921875 -1.109375,3.78125 -1.109375,5.421875 0,1.25 0.125,3.34375 1.15625,5.5625 0.828125,1.796875 2.234375,3.0625 2.4375,3.0625 0.09375,0 0.125,-0.046875 0.125,-0.109375 z m 0,0"
   id="path23" />&#10;    </g>&#10;  </g>&#10;  <g
   fill="#000000"
   fill-opacity="1"
   id="g16"
   transform="matrix(0.352778,0,0,0.352778,-92.018332,53.394757)">&#10;    <g
   id="use16"
   transform="translate(257.19699,24.707001)">&#10;      <path
   d="m 5.1875,-0.75 c -0.296875,0 -0.5625,0 -0.5625,-0.09375 0,-0.03125 0.296875,-1.65625 0.40625,-2.03125 0.546875,-2.203125 1.859375,-3.78125 3.359375,-3.78125 1.109375,0 1.625,0.84375 1.625,1.78125 0,1.96875 -2.203125,4.125 -4.828125,4.125 z m -0.75,0.890625 c 0.109375,0.015625 0.28125,0.03125 0.59375,0.03125 2.828125,0 5.421875,-2.71875 5.421875,-5.4375 0,-1.046875 -0.46875,-2.328125 -1.90625,-2.328125 -2.484375,0 -3.53125,3.5 -4.5,6.734375 -1.984375,-0.375 -2.8125,-1.4375 -2.8125,-2.578125 0,-0.46875 0.359375,-2.3125 1.359375,-3.546875 C 2.796875,-7.21875 2.796875,-7.25 2.796875,-7.28125 c 0,-0.140625 -0.140625,-0.140625 -0.171875,-0.140625 -0.46875,0 -1.78125,2.515625 -1.78125,4.15625 0,1.921875 1.515625,2.96875 2.90625,3.28125 L 2.859375,2.921875 C 2.765625,3.1875 2.765625,3.21875 2.765625,3.28125 c 0,0.421875 0.421875,0.4375 0.453125,0.4375 0.171875,0 0.484375,-0.0625 0.625,-0.40625 C 3.890625,3.15625 4.375,0.484375 4.4375,0.140625 Z m 0,0"
   id="path24" />&#10;    </g>&#10;  </g>&#10;  <g
   fill="#000000"
   fill-opacity="1"
   id="g17"
   transform="matrix(0.352778,0,0,0.352778,-92.018332,53.394757)">&#10;    <g
   id="use17"
   transform="translate(268.23901,24.707001)">&#10;      <path
   d="m 4.53125,-4.28125 c 0,-1.25 -0.125,-3.34375 -1.15625,-5.5625 -0.828125,-1.796875 -2.234375,-3.046875 -2.4375,-3.046875 -0.0625,0 -0.125,0.01563 -0.125,0.09375 0,0.03125 0.015625,0.0625 0.03125,0.09375 0.828125,0.859375 2.921875,3.046875 2.921875,8.390625 0,5.375 -2.078125,7.5625 -2.921875,8.421875 C 0.828125,4.15625 0.8125,4.171875 0.8125,4.203125 0.8125,4.28125 0.875,4.3125 0.9375,4.3125 1.125,4.3125 2.578125,3.03125 3.421875,1.140625 4.28125,-0.78125 4.53125,-2.640625 4.53125,-4.28125 Z m 0,0"
   id="path25" />&#10;    </g>&#10;  </g>&#10;<g
   inkscape:label=""
   transform="translate(56.064865,24.128355)"
   id="g78"><g
   fill="#000000"
   fill-opacity="1"
   id="g64"
   transform="matrix(0.352778,0,0,0.352778,-66.7783,-4.16855)">&#10;    <g
   id="g63"
   transform="translate(188.82401,24.707001)">&#10;      <path
   d="m 4.53125,1.921875 c -0.46875,0.65625 -1.140625,1.25 -1.984375,1.25 -0.203125,0 -1.03125,-0.03125 -1.296875,-0.828125 0.0625,0.015625 0.140625,0.015625 0.171875,0.015625 0.53125,0 0.875,-0.453125 0.875,-0.84375 0,-0.390625 -0.328125,-0.53125 -0.59375,-0.53125 -0.28125,0 -0.875,0.203125 -0.875,1.046875 0,0.875 0.734375,1.484375 1.71875,1.484375 1.71875,0 3.46875,-1.59375 3.9375,-3.5 l 1.6875,-6.71875 c 0.03125,-0.078125 0.0625,-0.1875 0.0625,-0.28125 0,-0.265625 -0.203125,-0.4375 -0.46875,-0.4375 -0.15625,0 -0.515625,0.0625 -0.65625,0.59375 L 5.84375,-1.78125 C 5.75,-1.46875 5.75,-1.421875 5.609375,-1.234375 5.265625,-0.75 4.703125,-0.171875 3.875,-0.171875 c -0.96875,0 -1.046875,-0.953125 -1.046875,-1.40625 0,-0.984375 0.453125,-2.3125 0.921875,-3.546875 0.1875,-0.5 0.296875,-0.75 0.296875,-1.09375 0,-0.71875 -0.515625,-1.375 -1.359375,-1.375 -1.578125,0 -2.21875,2.5 -2.21875,2.640625 0,0.0625 0.0625,0.15625 0.1875,0.15625 0.15625,0 0.171875,-0.078125 0.234375,-0.3125 C 1.3125,-6.5625 1.96875,-7.25 2.640625,-7.25 c 0.15625,0 0.4375,0 0.4375,0.5625 0,0.453125 -0.1875,0.953125 -0.4375,1.609375 -0.84375,2.25 -0.84375,2.828125 -0.84375,3.234375 0,1.640625 1.171875,2.015625 2.03125,2.015625 0.5,0 1.109375,-0.15625 1.71875,-0.796875 L 5.5625,-0.609375 C 5.296875,0.40625 5.125,1.078125 4.53125,1.921875 Z m 0,0"
   id="path63" />&#10;    </g>&#10;  </g>&#10;  <g
   fill="#000000"
   fill-opacity="1"
   id="g66"
   transform="matrix(0.352778,0,0,0.352778,-66.7783,-4.16855)">&#10;    <g
   id="g65"
   transform="translate(202.44299,24.707001)">&#10;      <path
   d="m 11.078125,-5.53125 c 0.25,0 0.515625,0 0.515625,-0.28125 C 11.59375,-6.125 11.296875,-6.125 11,-6.125 H 1.375 c -0.296875,0 -0.578125,0 -0.578125,0.3125 0,0.28125 0.25,0.28125 0.515625,0.28125 z M 11,-2.46875 c 0.296875,0 0.59375,0 0.59375,-0.296875 0,-0.296875 -0.265625,-0.296875 -0.515625,-0.296875 H 1.3125 c -0.265625,0 -0.515625,0 -0.515625,0.296875 0,0.296875 0.28125,0.296875 0.578125,0.296875 z m 0,0"
   id="path64" />&#10;    </g>&#10;  </g>&#10;  <g
   fill="#000000"
   fill-opacity="1"
   id="g68"
   transform="matrix(0.352778,0,0,0.352778,-66.7783,-4.16855)">&#10;    <g
   id="g67"
   transform="translate(219.617,24.707001)">&#10;      <path
   d="m 6.703125,-7.046875 c -0.53125,0.109375 -0.8125,0.484375 -0.8125,0.859375 0,0.421875 0.328125,0.5625 0.5625,0.5625 0.484375,0 0.875,-0.421875 0.875,-0.9375 0,-0.546875 -0.53125,-1.03125 -1.390625,-1.03125 -0.6875,0 -1.484375,0.3125 -2.203125,1.359375 -0.125,-0.90625 -0.8125,-1.359375 -1.5,-1.359375 -0.671875,0 -1.015625,0.515625 -1.21875,0.890625 -0.296875,0.625 -0.546875,1.65625 -0.546875,1.75 0,0.0625 0.0625,0.15625 0.1875,0.15625 0.140625,0 0.15625,-0.03125 0.25,-0.421875 C 1.171875,-6.25 1.5,-7.25 2.1875,-7.25 c 0.40625,0 0.53125,0.296875 0.53125,0.796875 0,0.375 -0.171875,1.046875 -0.296875,1.578125 l -0.46875,1.859375 C 1.875,-2.6875 1.6875,-1.90625 1.59375,-1.59375 c -0.109375,0.4375 -0.296875,1.25 -0.296875,1.328125 0,0.25 0.1875,0.4375 0.4375,0.4375 0.1875,0 0.515625,-0.125 0.625,-0.46875 0.046875,-0.140625 0.6875,-2.734375 0.796875,-3.125 0.078125,-0.390625 0.1875,-0.75 0.265625,-1.125 C 3.5,-4.78125 3.5625,-5.0625 3.609375,-5.28125 3.671875,-5.4375 4.125,-6.28125 4.5625,-6.65625 4.765625,-6.859375 5.21875,-7.25 5.921875,-7.25 c 0.28125,0 0.546875,0.046875 0.78125,0.203125 z m 0,0"
   id="path66" />&#10;    </g>&#10;  </g>&#10;  <g
   fill="#000000"
   fill-opacity="1"
   id="g73"
   transform="matrix(0.352778,0,0,0.352778,-66.7783,-4.16855)">&#10;    <g
   id="g69"
   transform="translate(230.55099,24.707001)">&#10;      <path
   d="m 5.328125,-7.265625 c 0,-0.3125 -0.03125,-0.328125 -0.125,-0.328125 -0.078125,0 -0.09375,0.015625 -0.296875,0.28125 -0.046875,0.0625 -0.203125,0.234375 -0.25,0.296875 -0.5625,-0.578125 -1.328125,-0.59375 -1.625,-0.59375 -1.90625,0 -2.59375,1 -2.59375,2 0,1.546875 1.75,1.90625 2.25,2.015625 C 3.765625,-3.375 4.15625,-3.3125 4.515625,-3 c 0.21875,0.203125 0.59375,0.59375 0.59375,1.203125 0,0.734375 -0.40625,1.65625 -2,1.65625 -1.484375,0 -2.03125,-1.140625 -2.328125,-2.65625 -0.0625,-0.234375 -0.0625,-0.25 -0.203125,-0.25 -0.125,0 -0.140625,0.015625 -0.140625,0.359375 v 2.484375 c 0,0.3125 0.015625,0.328125 0.109375,0.328125 0.09375,0 0.109375,-0.015625 0.1875,-0.15625 0.109375,-0.15625 0.375,-0.578125 0.46875,-0.75 0.34375,0.46875 0.953125,0.921875 1.90625,0.921875 1.71875,0 2.625,-0.9375 2.625,-2.28125 0,-0.875 -0.46875,-1.34375 -0.6875,-1.546875 C 4.53125,-4.21875 3.921875,-4.34375 3.203125,-4.484375 2.25,-4.6875 1.046875,-4.921875 1.046875,-5.96875 c 0,-0.453125 0.25,-1.40625 1.984375,-1.40625 1.84375,0 1.9375,1.734375 1.984375,2.28125 C 5.03125,-5.015625 5.109375,-5 5.171875,-5 c 0.15625,0 0.15625,-0.046875 0.15625,-0.34375 z m 0,0"
   id="path68" />&#10;    </g>&#10;    <g
   id="g70"
   transform="translate(236.73822,24.707001)">&#10;      <path
   d="m 2.671875,-10.609375 c 0,-0.375 -0.3125,-0.703125 -0.703125,-0.703125 -0.390625,0 -0.71875,0.3125 -0.71875,0.703125 0,0.375 0.3125,0.703125 0.71875,0.703125 0.375,0 0.703125,-0.296875 0.703125,-0.703125 z m -2.015625,3.25 v 0.453125 c 0.96875,0 1.09375,0.109375 1.09375,0.9375 v 4.78125 c 0,0.65625 -0.0625,0.734375 -1.171875,0.734375 V 0 C 1,-0.03125 1.734375,-0.03125 2.171875,-0.03125 c 0.40625,0 1.109375,0 1.515625,0.03125 v -0.453125 c -1.015625,0 -1.046875,-0.09375 -1.046875,-0.71875 v -6.375 z m 0,0"
   id="path69" />&#10;    </g>&#10;    <g
   id="g71"
   transform="translate(241.03517,24.707001)">&#10;      <path
   d="m 7.140625,-5.234375 c 0,-0.875 -0.171875,-2.3125 -2.203125,-2.3125 -1.359375,0 -2.0625,1.0625 -2.3125,1.75 H 2.59375 v -1.75 l -2.03125,0.1875 v 0.453125 c 1.015625,0 1.171875,0.109375 1.171875,0.9375 v 4.78125 c 0,0.65625 -0.0625,0.734375 -1.171875,0.734375 V 0 c 0.421875,-0.03125 1.171875,-0.03125 1.625,-0.03125 0.453125,0 1.21875,0 1.640625,0.03125 v -0.453125 c -1.109375,0 -1.171875,-0.0625 -1.171875,-0.734375 V -4.5 c 0,-1.578125 0.953125,-2.765625 2.171875,-2.765625 1.265625,0 1.40625,1.140625 1.40625,1.96875 V -1.1875 c 0,0.65625 -0.0625,0.734375 -1.171875,0.734375 V 0 c 0.40625,-0.03125 1.171875,-0.03125 1.625,-0.03125 0.4375,0 1.21875,0 1.625,0.03125 v -0.453125 c -1.09375,0 -1.171875,-0.0625 -1.171875,-0.734375 z m 0,0"
   id="path70" />&#10;    </g>&#10;    <g
   id="g72"
   transform="translate(249.83052,24.707001)">&#10;      <path
   d="m 5.265625,4.203125 c 0,-0.015625 0,-0.046875 -0.046875,-0.109375 -0.796875,-0.8125 -2.90625,-3.015625 -2.90625,-8.375 0,-5.375 2.078125,-7.5625 2.921875,-8.421875 0,-0.01563 0.03125,-0.0625 0.03125,-0.109375 0,-0.04687 -0.046875,-0.07813 -0.125,-0.07813 -0.1875,0 -1.640625,1.265625 -2.484375,3.15625 -0.859375,1.921875 -1.109375,3.78125 -1.109375,5.421875 0,1.25 0.125,3.34375 1.15625,5.5625 0.828125,1.796875 2.234375,3.0625 2.4375,3.0625 0.09375,0 0.125,-0.046875 0.125,-0.109375 z m 0,0"
   id="path71" />&#10;    </g>&#10;  </g>&#10;  <g
   fill="#000000"
   fill-opacity="1"
   id="g75"
   transform="matrix(0.352778,0,0,0.352778,-66.7783,-4.16855)">&#10;    <g
   id="g74"
   transform="translate(255.92599,24.707001)">&#10;      <path
   d="m 5.1875,-0.75 c -0.296875,0 -0.5625,0 -0.5625,-0.09375 0,-0.03125 0.296875,-1.65625 0.40625,-2.03125 0.546875,-2.203125 1.859375,-3.78125 3.359375,-3.78125 1.109375,0 1.625,0.84375 1.625,1.78125 0,1.96875 -2.203125,4.125 -4.828125,4.125 z m -0.75,0.890625 c 0.109375,0.015625 0.28125,0.03125 0.59375,0.03125 2.828125,0 5.421875,-2.71875 5.421875,-5.4375 0,-1.046875 -0.46875,-2.328125 -1.90625,-2.328125 -2.484375,0 -3.53125,3.5 -4.5,6.734375 -1.984375,-0.375 -2.8125,-1.4375 -2.8125,-2.578125 0,-0.46875 0.359375,-2.3125 1.359375,-3.546875 C 2.796875,-7.21875 2.796875,-7.25 2.796875,-7.28125 c 0,-0.140625 -0.140625,-0.140625 -0.171875,-0.140625 -0.46875,0 -1.78125,2.515625 -1.78125,4.15625 0,1.921875 1.515625,2.96875 2.90625,3.28125 L 2.859375,2.921875 C 2.765625,3.1875 2.765625,3.21875 2.765625,3.28125 c 0,0.421875 0.421875,0.4375 0.453125,0.4375 0.171875,0 0.484375,-0.0625 0.625,-0.40625 C 3.890625,3.15625 4.375,0.484375 4.4375,0.140625 Z m 0,0"
   id="path73" />&#10;    </g>&#10;  </g>&#10;  <g
   fill="#000000"
   fill-opacity="1"
   id="g77"
   transform="matrix(0.352778,0,0,0.352778,-66.7783,-4.16855)">&#10;    <g
   id="g76"
   transform="translate(266.96899,24.707001)">&#10;      <path
   d="m 4.53125,-4.28125 c 0,-1.25 -0.125,-3.34375 -1.15625,-5.5625 -0.828125,-1.796875 -2.234375,-3.046875 -2.4375,-3.046875 -0.0625,0 -0.125,0.01563 -0.125,0.09375 0,0.03125 0.015625,0.0625 0.03125,0.09375 0.828125,0.859375 2.921875,3.046875 2.921875,8.390625 0,5.375 -2.078125,7.5625 -2.921875,8.421875 C 0.828125,4.15625 0.8125,4.171875 0.8125,4.203125 0.8125,4.28125 0.875,4.3125 0.9375,4.3125 1.125,4.3125 2.578125,3.03125 3.421875,1.140625 4.28125,-0.78125 4.53125,-2.640625 4.53125,-4.28125 Z m 0,0"
   id="path75" />&#10;    </g>&#10;  </g>&#10;</g><g
   inkscape:label=""
   transform="translate(7.9842197,-34.771328)"
   id="g79"><g
   fill="#000000"
   fill-opacity="1"
   id="g3"
   transform="matrix(0.352778,0,0,0.352778,-79.3614,-4.91821)">&#10;    <g
   id="use2"
   transform="translate(224.274,24.707001)">&#10;      <path
   d="m 6.734375,-6.46875 c -0.328125,0 -0.484375,0 -0.71875,0.203125 -0.109375,0.078125 -0.296875,0.34375 -0.296875,0.625 0,0.34375 0.25,0.546875 0.578125,0.546875 0.421875,0 0.890625,-0.34375 0.890625,-1.03125 0,-0.828125 -0.796875,-1.46875 -1.984375,-1.46875 -2.265625,0 -4.515625,2.46875 -4.515625,4.90625 0,1.5 0.9375,2.859375 2.6875,2.859375 2.34375,0 3.828125,-1.828125 3.828125,-2.046875 0,-0.109375 -0.109375,-0.1875 -0.171875,-0.1875 -0.0625,0 -0.078125,0.015625 -0.234375,0.171875 -1.09375,1.453125 -2.734375,1.71875 -3.390625,1.71875 -1.1875,0 -1.5625,-1.03125 -1.5625,-1.890625 0,-0.609375 0.296875,-2.28125 0.90625,-3.453125 C 3.203125,-6.3125 4.125,-7.25 5.21875,-7.25 c 0.21875,0 1.171875,0.03125 1.515625,0.78125 z m 0,0"
   id="path79" />&#10;    </g>&#10;    <g
   id="use3"
   transform="translate(231.52856,24.707001)">&#10;      <path
   d="m 3.46875,-6.921875 h 1.578125 c 0.328125,0 0.5,0 0.5,-0.3125 0,-0.1875 -0.109375,-0.1875 -0.453125,-0.1875 H 3.578125 L 4.21875,-9.9375 c 0.0625,-0.234375 0.0625,-0.265625 0.0625,-0.390625 0,-0.28125 -0.21875,-0.4375 -0.4375,-0.4375 -0.140625,0 -0.53125,0.0625 -0.671875,0.609375 L 2.5,-7.421875 H 0.875 c -0.34375,0 -0.5,0 -0.5,0.328125 0,0.171875 0.125,0.171875 0.453125,0.171875 h 1.53125 L 1.21875,-2.375 c -0.140625,0.59375 -0.1875,0.78125 -0.1875,1 0,0.8125 0.5625,1.546875 1.53125,1.546875 1.75,0 2.671875,-2.515625 2.671875,-2.640625 0,-0.09375 -0.0625,-0.15625 -0.171875,-0.15625 -0.03125,0 -0.109375,0 -0.140625,0.078125 -0.015625,0.015625 -0.03125,0.03125 -0.15625,0.3125 -0.359375,0.859375 -1.15625,2.0625 -2.140625,2.0625 -0.53125,0 -0.5625,-0.4375 -0.5625,-0.8125 0,-0.015625 0,-0.34375 0.0625,-0.546875 z m 0,0"
   id="path4" />&#10;    </g>&#10;  </g>&#10;</g></g></g></g></svg>
