<?xml version="1.0" encoding="UTF-8" standalone="no"?>
<!-- Created with Inkscape (http://www.inkscape.org/) -->

<svg
   width="142.435mm"
   height="116.268mm"
   viewBox="0 0 142.43499 116.268"
   version="1.1"
   id="svg1"
   inkscape:version="1.3 (0e150ed6c4, 2023-07-21)"
   sodipodi:docname="Emision-GW-2.svg"
   xmlns:inkscape="http://www.inkscape.org/namespaces/inkscape"
   xmlns:sodipodi="http://sodipodi.sourceforge.net/DTD/sodipodi-0.dtd"
   xmlns:xlink="http://www.w3.org/1999/xlink"
   xmlns="http://www.w3.org/2000/svg"
   xmlns:svg="http://www.w3.org/2000/svg">
  <sodipodi:namedview
     id="namedview1"
     pagecolor="#ffffff"
     bordercolor="#000000"
     borderopacity="0.25"
     inkscape:showpageshadow="2"
     inkscape:pageopacity="0.0"
     inkscape:pagecheckerboard="0"
     inkscape:deskcolor="#d1d1d1"
     inkscape:document-units="mm"
     inkscape:zoom="1.0544998"
     inkscape:cx="201.51735"
     inkscape:cy="161.68803"
     inkscape:window-width="1920"
     inkscape:window-height="1051"
     inkscape:window-x="-9"
     inkscape:window-y="-9"
     inkscape:window-maximized="1"
     inkscape:current-layer="layer2" />
  <defs
     id="defs1">
    <marker
       style="overflow:visible"
       id="ArrowWide"
       refX="0"
       refY="0"
       orient="auto-start-reverse"
       inkscape:stockid="Wide arrow"
       markerWidth="1"
       markerHeight="1"
       viewBox="0 0 1 1"
       inkscape:isstock="true"
       inkscape:collect="always"
       preserveAspectRatio="xMidYMid">
      <path
         style="fill:none;stroke:context-stroke;stroke-width:1;stroke-linecap:butt"
         d="M 3,-3 0,0 3,3"
         transform="rotate(180,0.125,0)"
         sodipodi:nodetypes="ccc"
         id="path43" />
    </marker>
    <inkscape:path-effect
       effect="spiro"
       id="path-effect42"
       is_visible="true"
       lpeversion="1" />
    <inkscape:path-effect
       effect="spiro"
       id="path-effect5"
       is_visible="true"
       lpeversion="1" />
    <inkscape:path-effect
       effect="spiro"
       id="path-effect2"
       is_visible="true"
       lpeversion="1" />
    <radialGradient
       inkscape:collect="always"
       xlink:href="#linearGradient4"
       id="radialGradient5"
       cx="116.90907"
       cy="91.014297"
       fx="116.90907"
       fy="91.014297"
       r="43.303539"
       gradientTransform="matrix(0.36666307,1.6118783,-1.503358,0.34197734,208.0489,-121.03361)"
       gradientUnits="userSpaceOnUse" />
    <linearGradient
       id="linearGradient4"
       inkscape:collect="always">
      <stop
         style="stop-color:#00fff8;stop-opacity:0;"
         offset="0"
         id="stop5" />
      <stop
         style="stop-color:#00fff8;stop-opacity:1;"
         offset="1"
         id="stop4" />
    </linearGradient>
    <inkscape:path-effect
       effect="spiro"
       id="path-effect4"
       is_visible="true"
       lpeversion="1" />
    <inkscape:path-effect
       effect="spiro"
       id="path-effect4-9"
       is_visible="true"
       lpeversion="1" />
  </defs>
  <g
     inkscape:label="Capa 1"
     inkscape:groupmode="layer"
     id="layer1"
     sodipodi:insensitive="true"
     style="display:none"
     transform="translate(-49.383226,-60.53)">
    <path
       d="M 0,0 V 296.99999 M 10.583333,0 V 296.99999 M 21.166666,0 V 296.99999 M 31.749999,0 V 296.99999 M 42.333332,0 V 296.99999 M 52.916665,0 V 296.99999 M 63.499999,0 V 296.99999 M 74.083332,0 V 296.99999 M 84.666665,0 V 296.99999 M 95.249998,0 V 296.99999 M 105.83333,0 V 296.99999 M 116.41666,0 V 296.99999 M 127,0 V 296.99999 M 137.58333,0 V 296.99999 M 148.16666,0 V 296.99999 M 158.75,0 V 296.99999 M 169.33333,0 V 296.99999 M 179.91666,0 V 296.99999 M 190.5,0 V 296.99999 M 201.08333,0 V 296.99999 M 0,0 H 210 M 0,10.583333 H 210 M 0,21.166666 H 210 M 0,31.749999 H 210 M 0,42.333332 H 210 M 0,52.916665 H 210 M 0,63.499999 H 210 M 0,74.083332 H 210 M 0,84.666665 H 210 M 0,95.249998 H 210 M 0,105.83333 H 210 M 0,116.41666 H 210 M 0,127 H 210 M 0,137.58333 H 210 M 0,148.16666 H 210 M 0,158.75 H 210 M 0,169.33333 H 210 M 0,179.91666 H 210 M 0,190.5 H 210 M 0,201.08333 H 210 M 0,211.66666 H 210 M 0,222.24999 H 210 M 0,232.83333 H 210 M 0,243.41666 H 210 M 0,253.99999 H 210 M 0,264.58333 H 210 M 0,275.16666 H 210 M 0,285.74999 H 210 M 0,296.33333 h 210"
       style="fill:none;stroke:#000000;stroke-width:0.264583px"
       id="path1" />
  </g>
  <g
     inkscape:groupmode="layer"
     id="layer2"
     inkscape:label="Distribucion"
     transform="translate(-49.383226,-60.53)">
    <path
       style="fill:url(#radialGradient5);stroke:#004543;stroke-width:0.5;stroke-dasharray:none;stroke-opacity:0.733333"
       d="m 53.506314,98.230818 c -2.394025,2.932692 -3.408996,6.945362 -2.697271,10.663622 0.656964,3.43217 2.712745,6.51249 5.406772,8.73816 2.694027,2.22568 5.994356,3.63804 9.39685,4.43456 4.20164,0.9836 8.679119,1.09446 12.545444,3.01091 2.30215,1.14112 4.271265,2.87756 5.93096,4.83905 1.659694,1.9615 3.026861,4.15108 4.332726,6.36395 2.61173,4.42573 5.116324,9.11364 9.181749,12.25697 0.790009,0.61083 1.630882,1.15554 2.509086,1.63091 5.41793,2.93274 12.08711,3.0523 17.93999,1.12909 6.44661,-2.11831 12.09629,-6.69199 15.30544,-12.6709 2.04948,-3.81834 3.09946,-8.13475 3.29839,-12.46378 0.19892,-4.32903 -0.43708,-8.67303 -1.6118,-12.84437 -2.34944,-8.34269 -6.79058,-15.918972 -11.22113,-23.368167 -2.75863,-4.638145 -5.63153,-9.383135 -9.9109,-12.670895 -4.06886,-3.126028 -9.20294,-4.715013 -14.329841,-4.921462 -5.126896,-0.206449 -10.249497,0.915776 -15.026495,2.788735 -6.487825,2.543738 -12.367073,6.443081 -17.814528,10.789081 -4.711521,3.758869 -9.139956,7.872487 -13.235442,12.294536 z"
       id="path4"
       inkscape:path-effect="#path-effect4"
       inkscape:original-d="m 53.506314,98.230818 c -1.989949,2.977522 -3.319621,6.840622 -2.697271,10.663622 1.094105,6.72092 8.933907,11.46072 14.803622,13.17272 4.191032,1.22238 8.688594,0.65394 12.545444,3.01091 9.545926,5.83362 11.629686,18.36274 19.445435,23.45997 0.469834,0.30642 1.948225,1.429 2.509086,1.63091 1.8518,0.66665 15.78431,2.10894 17.93999,1.12909 4.56435,-2.07471 13.69903,-7.6732 15.30544,-12.6709 5.71841,-17.7906 0.27447,-33.76661 -9.53454,-48.676317 -2.81337,-4.276325 -5.62353,-9.64452 -9.9109,-12.670895 C 104.73639,70.802589 94.435992,72.21988 84.556284,75.147201 76.261755,77.604839 73.038922,80.727363 66.741756,85.936282 61.133724,90.57516 55.805523,95.905316 53.506314,98.230818 Z"
       sodipodi:nodetypes="csssssssssssc"
       transform="matrix(0.7830302,0,0,0.72298248,44.42757,32.857674)" />
    <path
       style="fill:none;stroke:#004543;stroke-width:0.415708;stroke-dasharray:2.49425, 2.49425;stroke-dashoffset:0;stroke-opacity:0.733333"
       d="m 53.506314,98.230818 c -2.394025,2.932692 -3.408996,6.945362 -2.697271,10.663622 0.656964,3.43217 2.712745,6.51249 5.406772,8.73816 2.694027,2.22568 5.994356,3.63804 9.39685,4.43456 4.20164,0.9836 8.679119,1.09446 12.545444,3.01091 2.30215,1.14112 4.271265,2.87756 5.93096,4.83905 1.659694,1.9615 3.026861,4.15108 4.332726,6.36395 2.61173,4.42573 5.116324,9.11364 9.181749,12.25697 0.790009,0.61083 1.630882,1.15554 2.509086,1.63091 5.41793,2.93274 12.08711,3.0523 17.93999,1.12909 6.44661,-2.11831 12.09629,-6.69199 15.30544,-12.6709 2.04948,-3.81834 3.09946,-8.13475 3.29839,-12.46378 0.19892,-4.32903 -0.43708,-8.67303 -1.6118,-12.84437 -2.34944,-8.34269 -6.79058,-15.918972 -11.22113,-23.368167 -2.75863,-4.638145 -5.63153,-9.383135 -9.9109,-12.670895 -4.06886,-3.126028 -9.20294,-4.715013 -14.329841,-4.921462 -5.126896,-0.206449 -10.249497,0.915776 -15.026495,2.788735 -6.487825,2.543738 -12.367073,6.443081 -17.814528,10.789081 -4.711521,3.758869 -9.139956,7.872487 -13.235442,12.294536 z"
       id="path4-0"
       inkscape:path-effect="#path-effect4-9"
       inkscape:original-d="m 53.506314,98.230818 c -1.989949,2.977522 -3.319621,6.840622 -2.697271,10.663622 1.094105,6.72092 8.933907,11.46072 14.803622,13.17272 4.191032,1.22238 8.688594,0.65394 12.545444,3.01091 9.545926,5.83362 11.629686,18.36274 19.445435,23.45997 0.469834,0.30642 1.948225,1.429 2.509086,1.63091 1.8518,0.66665 15.78431,2.10894 17.93999,1.12909 4.56435,-2.07471 13.69903,-7.6732 15.30544,-12.6709 5.71841,-17.7906 0.27447,-33.76661 -9.53454,-48.676317 -2.81337,-4.276325 -5.62353,-9.64452 -9.9109,-12.670895 C 104.73639,70.802589 94.435992,72.21988 84.556284,75.147201 76.261755,77.604839 73.038922,80.727363 66.741756,85.936282 61.133724,90.57516 55.805523,95.905316 53.506314,98.230818 Z"
       sodipodi:nodetypes="csssssssssssc"
       transform="matrix(1.4835746,0,0,1.4041597,-23.768828,-39.68841)" />
    <path
       style="fill:none;fill-opacity:0.72549;stroke:#004443;stroke-width:0.600001;stroke-linecap:round;stroke-linejoin:round;stroke-dasharray:none;stroke-dashoffset:0;stroke-opacity:0.733333;marker-end:url(#ArrowWide)"
       d="m 165.06724,96.782611 c 1.69168,0.04257 3.39255,-0.35465 4.8904,-1.142087 1.49784,-0.787437 2.78935,-1.963352 3.71336,-3.381024 0.95675,-1.4679 1.51663,-3.191816 1.60495,-4.941761"
       id="path42"
       inkscape:path-effect="#path-effect42"
       inkscape:original-d="m 165.06724,96.782611 c -3.09091,-3.833847 6.85164,-1.836447 8.60376,-4.523111 0.80724,-1.237809 1.60495,-3.491088 1.60495,-4.941761"
       sodipodi:nodetypes="csc"
       transform="translate(8.3620391,13.227413)" />
  </g>
  <g
     inkscape:groupmode="layer"
     id="layer3"
     inkscape:label="LaTeX"
     transform="translate(-49.383262,-60.530008)">
    <g
       inkscape:label=""
       transform="translate(127.02274,151.24895)"
       id="g27">
      <g
         fill="#000000"
         fill-opacity="1"
         id="g9"
         transform="matrix(0.352778,0,0,0.352778,-63.0536,-3.95332)">
        <g
           id="g12"
           transform="translate(178.14101,30.684999)">
          <path
             d="m 10.328125,-15.109375 c 0.15625,-0.609375 0.203125,-0.828125 0.578125,-0.921875 0.203125,-0.04687 1.015625,-0.04687 1.53125,-0.04687 2.484375,0 3.640625,0.09375 3.640625,2.03125 0,0.375 -0.09375,1.3125 -0.25,2.21875 l -0.01563,0.3125 c 0,0.09375 0.09375,0.234375 0.25,0.234375 0.25,0 0.25,-0.125 0.3125,-0.515625 l 0.71875,-4.390625 c 0.0625,-0.21875 0.0625,-0.265625 0.0625,-0.34375 0,-0.265625 -0.15625,-0.265625 -0.65625,-0.265625 H 2.953125 c -0.578125,0 -0.59375,0.01563 -0.75,0.46875 L 0.6875,-11.875 c -0.015625,0.04687 -0.09375,0.328125 -0.09375,0.359375 0,0.109375 0.09375,0.234375 0.25,0.234375 0.203125,0 0.25,-0.09375 0.34375,-0.421875 1.046875,-2.984375 1.5625,-4.375 4.859375,-4.375 h 1.65625 c 0.59375,0 0.84375,0 0.84375,0.265625 0,0.07813 0,0.125 -0.125,0.578125 L 5.109375,-1.9375 c -0.25,0.96875 -0.296875,1.21875 -2.921875,1.21875 -0.625,0 -0.796875,0 -0.796875,0.46875 C 1.390625,0 1.65625,0 1.78125,0 2.40625,0 3.046875,-0.046875 3.671875,-0.046875 H 7.53125 C 8.15625,-0.046875 8.828125,0 9.4375,0 c 0.28125,0 0.53125,0 0.53125,-0.46875 0,-0.25 -0.1875,-0.25 -0.828125,-0.25 -2.234375,0 -2.234375,-0.21875 -2.234375,-0.59375 0,-0.03125 0,-0.203125 0.109375,-0.59375 z m 0,0"
             id="path15" />
        </g>
      </g>
      <g
         fill="#000000"
         fill-opacity="1"
         id="g10"
         transform="matrix(0.352778,0,0,0.352778,-63.0536,-3.95332)">
        <g
           id="g13"
           transform="translate(195.737,18.799999)">
          <path
             d="m 2.484375,-0.375 c 0.421875,0.390625 1.0625,0.546875 1.640625,0.546875 1.109375,0 1.859375,-0.734375 2.265625,-1.28125 0.171875,0.921875 0.890625,1.28125 1.5,1.28125 0.515625,0 0.921875,-0.3125 1.234375,-0.921875 0.28125,-0.59375 0.515625,-1.640625 0.515625,-1.71875 0,-0.078125 -0.0625,-0.15625 -0.171875,-0.15625 -0.15625,0 -0.171875,0.09375 -0.234375,0.359375 -0.265625,1.015625 -0.59375,2.09375 -1.296875,2.09375 -0.5,0 -0.53125,-0.453125 -0.53125,-0.796875 0,-0.390625 0.15625,-1.015625 0.265625,-1.53125 L 8.15625,-4.359375 C 8.234375,-4.6875 8.421875,-5.453125 8.5,-5.765625 c 0.109375,-0.421875 0.296875,-1.15625 0.296875,-1.21875 0,-0.265625 -0.203125,-0.4375 -0.46875,-0.4375 -0.15625,0 -0.515625,0.0625 -0.65625,0.59375 l -1.203125,4.78125 c -0.078125,0.34375 -0.078125,0.375 -0.296875,0.65625 -0.21875,0.28125 -0.890625,1.21875 -1.96875,1.21875 -0.96875,0 -1.28125,-0.703125 -1.28125,-1.515625 0,-0.5 0.15625,-1.109375 0.234375,-1.390625 L 3.921875,-6.1875 c 0.09375,-0.328125 0.234375,-0.875 0.234375,-0.96875 0,-0.28125 -0.234375,-0.4375 -0.453125,-0.4375 -0.15625,0 -0.53125,0.046875 -0.671875,0.609375 l -2.5,9.96875 c -0.015625,0.078125 -0.046875,0.1875 -0.046875,0.28125 0,0.265625 0.203125,0.4375 0.46875,0.4375 0.5,0 0.59375,-0.390625 0.71875,-0.875 z m 0,0"
             id="path16" />
        </g>
        <g
           id="g14"
           transform="translate(205.87859,18.799999)">
          <path
             d="m 3.78125,-7.421875 c 0,-0.0625 -0.046875,-0.171875 -0.1875,-0.171875 -0.109375,0 -1.734375,0.15625 -2,0.171875 -0.1875,0.015625 -0.359375,0.03125 -0.359375,0.34375 0,0.171875 0.140625,0.171875 0.390625,0.171875 0.796875,0 0.859375,0.125 0.859375,0.3125 0,0.0625 -0.046875,0.28125 -0.0625,0.34375 L 0.90625,-0.171875 C 0.90625,-0.109375 0.96875,0 1.078125,0 h 0.375 C 1.6875,0 4.3125,-0.625 6.3125,-2.6875 c 2.234375,-2.28125 2.53125,-4.40625 2.53125,-4.46875 0,-0.28125 -0.21875,-0.4375 -0.4375,-0.4375 -0.5,0 -0.625,0.46875 -0.65625,0.578125 -1.015625,3.609375 -3.375,5.734375 -5.671875,6.5 z m 0,0"
             id="path17" />
        </g>
      </g>
      <g
         fill="#000000"
         fill-opacity="1"
         id="g22"
         transform="matrix(0.352778,0,0,0.352778,-63.0536,-3.95332)">
        <g
           id="g16"
           transform="translate(192.366,38.868999)">
          <path
             d="m 5.265625,4.203125 c 0,-0.015625 0,-0.046875 -0.046875,-0.109375 -0.796875,-0.8125 -2.90625,-3.015625 -2.90625,-8.375 0,-5.375 2.078125,-7.5625 2.921875,-8.421875 0,-0.01563 0.03125,-0.0625 0.03125,-0.109375 0,-0.04687 -0.046875,-0.07813 -0.125,-0.07813 -0.1875,0 -1.640625,1.265625 -2.484375,3.15625 -0.859375,1.921875 -1.109375,3.78125 -1.109375,5.421875 0,1.25 0.125,3.34375 1.15625,5.5625 0.828125,1.796875 2.234375,3.0625 2.4375,3.0625 0.09375,0 0.125,-0.046875 0.125,-0.109375 z m 0,0"
             id="path14" />
        </g>
        <g
           id="use12"
           transform="translate(198.46198,38.868999)">
          <path
             d="m 7.234375,-5.53125 c 0,-1.046875 -0.015625,-2.84375 -0.75,-4.21875 -0.625,-1.203125 -1.640625,-1.625 -2.546875,-1.625 -0.828125,0 -1.875,0.375 -2.53125,1.609375 -0.6875,1.296875 -0.75,2.890625 -0.75,4.234375 0,0.984375 0.015625,2.484375 0.546875,3.796875 0.75,1.765625 2.0625,2.015625 2.734375,2.015625 0.796875,0 2,-0.328125 2.703125,-1.96875 0.515625,-1.1875 0.59375,-2.578125 0.59375,-3.84375 z M 3.9375,0 C 2.84375,0 2.1875,-0.953125 1.953125,-2.25 1.75,-3.265625 1.75,-4.75 1.75,-5.71875 c 0,-1.328125 0,-2.421875 0.234375,-3.46875 0.328125,-1.46875 1.28125,-1.921875 1.953125,-1.921875 0.71875,0 1.625,0.46875 1.953125,1.875 C 6.109375,-8.25 6.125,-7.09375 6.125,-5.71875 c 0,1.125 0,2.5 -0.203125,3.515625 C 5.5625,-0.328125 4.546875,0 3.9375,0 Z m 0,0"
             id="path21" />
        </g>
        <g
           id="use13"
           transform="translate(206.35695,38.868999)">
          <path
             d="m 4.53125,-4.28125 c 0,-1.25 -0.125,-3.34375 -1.15625,-5.5625 -0.828125,-1.796875 -2.234375,-3.046875 -2.4375,-3.046875 -0.0625,0 -0.125,0.01563 -0.125,0.09375 0,0.03125 0.015625,0.0625 0.03125,0.09375 0.828125,0.859375 2.921875,3.046875 2.921875,8.390625 0,5.375 -2.078125,7.5625 -2.921875,8.421875 C 0.828125,4.15625 0.8125,4.171875 0.8125,4.203125 0.8125,4.28125 0.875,4.3125 0.9375,4.3125 1.125,4.3125 2.578125,3.03125 3.421875,1.140625 4.28125,-0.78125 4.53125,-2.640625 4.53125,-4.28125 Z m 0,0"
             id="path22" />
        </g>
      </g>
      <g
         fill="#000000"
         fill-opacity="1"
         id="g25"
         transform="matrix(0.352778,0,0,0.352778,-63.0536,-3.95332)">
        <g
           id="use14"
           transform="translate(222.677,30.684999)">
          <path
             d="m 15.9375,-7.953125 c 0.375,0 0.734375,0 0.734375,-0.421875 0,-0.453125 -0.421875,-0.453125 -0.84375,-0.453125 H 1.984375 c -0.421875,0 -0.84375,0 -0.84375,0.453125 0,0.421875 0.375,0.421875 0.75,0.421875 z m -0.109375,4.40625 c 0.421875,0 0.84375,0 0.84375,-0.4375 0,-0.421875 -0.359375,-0.421875 -0.734375,-0.421875 H 1.890625 c -0.375,0 -0.75,0 -0.75,0.421875 0,0.4375 0.421875,0.4375 0.84375,0.4375 z m 0,0"
             id="path24" />
        </g>
      </g>
      <g
         fill="#000000"
         fill-opacity="1"
         id="g26"
         transform="matrix(0.352778,0,0,0.352778,-63.0536,-3.95332)">
        <g
           id="use15"
           transform="translate(247.40956,30.684999)">
          <path
             d="m 10.40625,-7.953125 c 0,-1.515625 -0.01563,-4.09375 -1.0625,-6.078125 -0.921875,-1.734375 -2.375,-2.34375 -3.671875,-2.34375 -1.1875,0 -2.703125,0.546875 -3.640625,2.328125 -0.984375,1.859375 -1.09375,4.15625 -1.09375,6.09375 0,1.40625 0.03125,3.5625 0.796875,5.453125 1.0625,2.546875 2.96875,2.890625 3.9375,2.890625 1.140625,0 2.875,-0.46875 3.890625,-2.8125 0.75,-1.71875 0.84375,-3.71875 0.84375,-5.53125 z M 5.671875,0 C 4.09375,0 3.140625,-1.359375 2.796875,-3.25 2.53125,-4.703125 2.53125,-6.84375 2.53125,-8.234375 c 0,-1.90625 0,-3.484375 0.3125,-5 0.484375,-2.109375 1.859375,-2.75 2.828125,-2.75 1.015625,0 2.328125,0.671875 2.796875,2.703125 0.328125,1.40625 0.359375,3.078125 0.359375,5.046875 0,1.625 0,3.59375 -0.296875,5.0625 C 8,-0.46875 6.546875,0 5.671875,0 Z m 0,0"
             id="path25" />
        </g>
      </g>
    </g>
    <g
       inkscape:label=""
       transform="translate(105.73241,107.07153)"
       id="g40">
      <g
         fill="#000000"
         fill-opacity="1"
         id="g29"
         transform="matrix(0.352778,0,0,0.352778,-63.0536,-3.95332)">
        <g
           id="g28"
           transform="translate(178.14101,30.684999)">
          <path
             d="m 10.328125,-15.109375 c 0.15625,-0.609375 0.203125,-0.828125 0.578125,-0.921875 0.203125,-0.04687 1.015625,-0.04687 1.53125,-0.04687 2.484375,0 3.640625,0.09375 3.640625,2.03125 0,0.375 -0.09375,1.3125 -0.25,2.21875 l -0.01563,0.3125 c 0,0.09375 0.09375,0.234375 0.25,0.234375 0.25,0 0.25,-0.125 0.3125,-0.515625 l 0.71875,-4.390625 c 0.0625,-0.21875 0.0625,-0.265625 0.0625,-0.34375 0,-0.265625 -0.15625,-0.265625 -0.65625,-0.265625 H 2.953125 c -0.578125,0 -0.59375,0.01563 -0.75,0.46875 L 0.6875,-11.875 c -0.015625,0.04687 -0.09375,0.328125 -0.09375,0.359375 0,0.109375 0.09375,0.234375 0.25,0.234375 0.203125,0 0.25,-0.09375 0.34375,-0.421875 1.046875,-2.984375 1.5625,-4.375 4.859375,-4.375 h 1.65625 c 0.59375,0 0.84375,0 0.84375,0.265625 0,0.07813 0,0.125 -0.125,0.578125 L 5.109375,-1.9375 c -0.25,0.96875 -0.296875,1.21875 -2.921875,1.21875 -0.625,0 -0.796875,0 -0.796875,0.46875 C 1.390625,0 1.65625,0 1.78125,0 2.40625,0 3.046875,-0.046875 3.671875,-0.046875 H 7.53125 C 8.15625,-0.046875 8.828125,0 9.4375,0 c 0.28125,0 0.53125,0 0.53125,-0.46875 0,-0.25 -0.1875,-0.25 -0.828125,-0.25 -2.234375,0 -2.234375,-0.21875 -2.234375,-0.59375 0,-0.03125 0,-0.203125 0.109375,-0.59375 z m 0,0"
             id="path27" />
        </g>
      </g>
      <g
         fill="#000000"
         fill-opacity="1"
         id="g32"
         transform="matrix(0.352778,0,0,0.352778,-63.0536,-3.95332)">
        <g
           id="g30"
           transform="translate(195.737,18.799999)">
          <path
             d="m 2.484375,-0.375 c 0.421875,0.390625 1.0625,0.546875 1.640625,0.546875 1.109375,0 1.859375,-0.734375 2.265625,-1.28125 0.171875,0.921875 0.890625,1.28125 1.5,1.28125 0.515625,0 0.921875,-0.3125 1.234375,-0.921875 0.28125,-0.59375 0.515625,-1.640625 0.515625,-1.71875 0,-0.078125 -0.0625,-0.15625 -0.171875,-0.15625 -0.15625,0 -0.171875,0.09375 -0.234375,0.359375 -0.265625,1.015625 -0.59375,2.09375 -1.296875,2.09375 -0.5,0 -0.53125,-0.453125 -0.53125,-0.796875 0,-0.390625 0.15625,-1.015625 0.265625,-1.53125 L 8.15625,-4.359375 C 8.234375,-4.6875 8.421875,-5.453125 8.5,-5.765625 c 0.109375,-0.421875 0.296875,-1.15625 0.296875,-1.21875 0,-0.265625 -0.203125,-0.4375 -0.46875,-0.4375 -0.15625,0 -0.515625,0.0625 -0.65625,0.59375 l -1.203125,4.78125 c -0.078125,0.34375 -0.078125,0.375 -0.296875,0.65625 -0.21875,0.28125 -0.890625,1.21875 -1.96875,1.21875 -0.96875,0 -1.28125,-0.703125 -1.28125,-1.515625 0,-0.5 0.15625,-1.109375 0.234375,-1.390625 L 3.921875,-6.1875 c 0.09375,-0.328125 0.234375,-0.875 0.234375,-0.96875 0,-0.28125 -0.234375,-0.4375 -0.453125,-0.4375 -0.15625,0 -0.53125,0.046875 -0.671875,0.609375 l -2.5,9.96875 c -0.015625,0.078125 -0.046875,0.1875 -0.046875,0.28125 0,0.265625 0.203125,0.4375 0.46875,0.4375 0.5,0 0.59375,-0.390625 0.71875,-0.875 z m 0,0"
             id="path29" />
        </g>
        <g
           id="g31"
           transform="translate(205.87859,18.799999)">
          <path
             d="m 3.78125,-7.421875 c 0,-0.0625 -0.046875,-0.171875 -0.1875,-0.171875 -0.109375,0 -1.734375,0.15625 -2,0.171875 -0.1875,0.015625 -0.359375,0.03125 -0.359375,0.34375 0,0.171875 0.140625,0.171875 0.390625,0.171875 0.796875,0 0.859375,0.125 0.859375,0.3125 0,0.0625 -0.046875,0.28125 -0.0625,0.34375 L 0.90625,-0.171875 C 0.90625,-0.109375 0.96875,0 1.078125,0 h 0.375 C 1.6875,0 4.3125,-0.625 6.3125,-2.6875 c 2.234375,-2.28125 2.53125,-4.40625 2.53125,-4.46875 0,-0.28125 -0.21875,-0.4375 -0.4375,-0.4375 -0.5,0 -0.625,0.46875 -0.65625,0.578125 -1.015625,3.609375 -3.375,5.734375 -5.671875,6.5 z m 0,0"
             id="path30" />
        </g>
      </g>
      <g
         fill="#000000"
         fill-opacity="1"
         id="g36"
         transform="matrix(0.352778,0,0,0.352778,-63.0536,-3.95332)">
        <g
           id="g33"
           transform="translate(192.366,38.868999)">
          <path
             d="m 5.265625,4.203125 c 0,-0.015625 0,-0.046875 -0.046875,-0.109375 -0.796875,-0.8125 -2.90625,-3.015625 -2.90625,-8.375 0,-5.375 2.078125,-7.5625 2.921875,-8.421875 0,-0.01563 0.03125,-0.0625 0.03125,-0.109375 0,-0.04687 -0.046875,-0.07813 -0.125,-0.07813 -0.1875,0 -1.640625,1.265625 -2.484375,3.15625 -0.859375,1.921875 -1.109375,3.78125 -1.109375,5.421875 0,1.25 0.125,3.34375 1.15625,5.5625 0.828125,1.796875 2.234375,3.0625 2.4375,3.0625 0.09375,0 0.125,-0.046875 0.125,-0.109375 z m 0,0"
             id="path32" />
        </g>
        <g
           id="g34"
           transform="translate(198.46198,38.868999)">
          <path
             d="m 7.234375,-5.53125 c 0,-1.046875 -0.015625,-2.84375 -0.75,-4.21875 -0.625,-1.203125 -1.640625,-1.625 -2.546875,-1.625 -0.828125,0 -1.875,0.375 -2.53125,1.609375 -0.6875,1.296875 -0.75,2.890625 -0.75,4.234375 0,0.984375 0.015625,2.484375 0.546875,3.796875 0.75,1.765625 2.0625,2.015625 2.734375,2.015625 0.796875,0 2,-0.328125 2.703125,-1.96875 0.515625,-1.1875 0.59375,-2.578125 0.59375,-3.84375 z M 3.9375,0 C 2.84375,0 2.1875,-0.953125 1.953125,-2.25 1.75,-3.265625 1.75,-4.75 1.75,-5.71875 c 0,-1.328125 0,-2.421875 0.234375,-3.46875 0.328125,-1.46875 1.28125,-1.921875 1.953125,-1.921875 0.71875,0 1.625,0.46875 1.953125,1.875 C 6.109375,-8.25 6.125,-7.09375 6.125,-5.71875 c 0,1.125 0,2.5 -0.203125,3.515625 C 5.5625,-0.328125 4.546875,0 3.9375,0 Z m 0,0"
             id="path33" />
        </g>
        <g
           id="g35"
           transform="translate(206.35695,38.868999)">
          <path
             d="m 4.53125,-4.28125 c 0,-1.25 -0.125,-3.34375 -1.15625,-5.5625 -0.828125,-1.796875 -2.234375,-3.046875 -2.4375,-3.046875 -0.0625,0 -0.125,0.01563 -0.125,0.09375 0,0.03125 0.015625,0.0625 0.03125,0.09375 0.828125,0.859375 2.921875,3.046875 2.921875,8.390625 0,5.375 -2.078125,7.5625 -2.921875,8.421875 C 0.828125,4.15625 0.8125,4.171875 0.8125,4.203125 0.8125,4.28125 0.875,4.3125 0.9375,4.3125 1.125,4.3125 2.578125,3.03125 3.421875,1.140625 4.28125,-0.78125 4.53125,-2.640625 4.53125,-4.28125 Z m 0,0"
             id="path34" />
        </g>
      </g>
      <g
         fill="#000000"
         fill-opacity="1"
         id="g38"
         transform="matrix(0.352778,0,0,0.352778,-63.0536,-3.95332)">
        <g
           id="g37"
           transform="translate(222.677,30.684999)">
          <path
             d="M 15.609375,-16.78125 C 15.8125,-17.125 15.8125,-17.171875 15.8125,-17.25 c 0,-0.171875 -0.15625,-0.5 -0.5,-0.5 -0.296875,0 -0.375,0.15625 -0.546875,0.5 L 3.640625,4.390625 C 3.4375,4.734375 3.4375,4.78125 3.4375,4.859375 c 0,0.203125 0.1875,0.5 0.5,0.5 0.296875,0 0.375,-0.15625 0.546875,-0.5 z m 0,0"
             id="path36" />
        </g>
      </g>
      <g
         fill="#000000"
         fill-opacity="1"
         id="g39"
         transform="matrix(0.352778,0,0,0.352778,-63.0536,-3.95332)">
        <g
           id="use16"
           transform="translate(222.677,30.684999)">
          <path
             d="m 15.9375,-7.953125 c 0.375,0 0.734375,0 0.734375,-0.421875 0,-0.453125 -0.421875,-0.453125 -0.84375,-0.453125 H 1.984375 c -0.421875,0 -0.84375,0 -0.84375,0.453125 0,0.421875 0.375,0.421875 0.75,0.421875 z m -0.109375,4.40625 c 0.421875,0 0.84375,0 0.84375,-0.4375 0,-0.421875 -0.359375,-0.421875 -0.734375,-0.421875 H 1.890625 c -0.375,0 -0.75,0 -0.75,0.421875 0,0.4375 0.421875,0.4375 0.84375,0.4375 z m 0,0"
             id="path38" />
        </g>
      </g>
      <g
         fill="#000000"
         fill-opacity="1"
         id="g17"
         transform="matrix(0.352778,0,0,0.352778,-63.0536,-3.95332)">
        <g
           id="use17"
           transform="translate(247.40956,30.684999)">
          <path
             d="m 10.40625,-7.953125 c 0,-1.515625 -0.01563,-4.09375 -1.0625,-6.078125 -0.921875,-1.734375 -2.375,-2.34375 -3.671875,-2.34375 -1.1875,0 -2.703125,0.546875 -3.640625,2.328125 -0.984375,1.859375 -1.09375,4.15625 -1.09375,6.09375 0,1.40625 0.03125,3.5625 0.796875,5.453125 1.0625,2.546875 2.96875,2.890625 3.9375,2.890625 1.140625,0 2.875,-0.46875 3.890625,-2.8125 0.75,-1.71875 0.84375,-3.71875 0.84375,-5.53125 z M 5.671875,0 C 4.09375,0 3.140625,-1.359375 2.796875,-3.25 2.53125,-4.703125 2.53125,-6.84375 2.53125,-8.234375 c 0,-1.90625 0,-3.484375 0.3125,-5 0.484375,-2.109375 1.859375,-2.75 2.828125,-2.75 1.015625,0 2.328125,0.671875 2.796875,2.703125 0.328125,1.40625 0.359375,3.078125 0.359375,5.046875 0,1.625 0,3.59375 -0.296875,5.0625 C 8,-0.46875 6.546875,0 5.671875,0 Z m 0,0"
             id="path39" />
        </g>
      </g>
    </g>
    <g
       inkscape:label=""
       transform="translate(129.86145,72.652174)"
       id="g41"
       style="fill:#004443;fill-opacity:0.733333">
      <g
         fill="#000000"
         fill-opacity="1"
         id="g2"
         transform="matrix(0.352778,0,0,0.352778,-74.0935,-4.85497)"
         style="fill:#004443;fill-opacity:0.733333">
        <g
           id="use1"
           transform="translate(208.685,30.684)"
           style="fill:#004443;fill-opacity:0.733333">
          <path
             d="m 15.34375,-14.171875 c 0.84375,-1.34375 1.609375,-1.9375 2.875,-2.03125 0.25,-0.03125 0.4375,-0.03125 0.4375,-0.46875 0,-0.109375 -0.04687,-0.25 -0.265625,-0.25 -0.453125,0 -1.515625,0.04687 -1.953125,0.04687 -0.71875,0 -1.46875,-0.04687 -2.15625,-0.04687 -0.203125,0 -0.453125,0 -0.453125,0.46875 0,0.21875 0.21875,0.25 0.328125,0.25 0.90625,0.07813 1.015625,0.515625 1.015625,0.8125 0,0.375 -0.359375,0.9375 -0.375,0.96875 L 7.015625,-2.078125 5.28125,-15.4375 c 0,-0.71875 1.28125,-0.765625 1.5625,-0.765625 0.375,0 0.59375,0 0.59375,-0.46875 0,-0.25 -0.28125,-0.25 -0.34375,-0.25 -0.421875,0 -0.921875,0.04687 -1.34375,0.04687 H 4.359375 c -1.8125,0 -2.546875,-0.04687 -2.578125,-0.04687 -0.140625,0 -0.4375,0 -0.4375,0.4375 0,0.28125 0.171875,0.28125 0.5625,0.28125 1.265625,0 1.34375,0.21875 1.421875,0.84375 l 1.96875,15.28125 C 5.375,0.453125 5.375,0.515625 5.71875,0.515625 c 0.296875,0 0.421875,-0.0625 0.671875,-0.46875 z m 0,0"
             id="path2"
             style="fill:#004443;fill-opacity:0.733333" />
        </g>
      </g>
    </g>
    <g
       inkscape:label=""
       transform="translate(179.16231,90.412728)"
       id="g42"
       style="fill:#004442;fill-opacity:0.72549">
      <g
         fill="#000000"
         fill-opacity="1"
         id="g3"
         transform="matrix(0.352778,0,0,0.352778,-71.4525,-4.57385)"
         style="fill:#004442;fill-opacity:0.72549">
        <g
           id="use2"
           transform="translate(201.605,30.684)"
           style="fill:#004442;fill-opacity:0.72549">
          <path
             d="m 11.25,-8.28125 c -0.140625,-1.390625 -1.015625,-3.046875 -3.25,-3.046875 -3.484375,0 -7.0625,3.546875 -7.0625,7.484375 0,1.515625 1.046875,4.359375 4.421875,4.359375 5.84375,0 8.34375,-8.515625 8.34375,-11.921875 0,-3.5625 -2,-6.3125 -5.171875,-6.3125 -3.59375,0 -4.671875,3.140625 -4.671875,3.8125 0,0.234375 0.15625,0.765625 0.84375,0.765625 0.875,0 1.25,-0.78125 1.25,-1.203125 0,-0.765625 -0.78125,-0.765625 -1.09375,-0.765625 C 5.875,-16.953125 7.75,-17.125 8.421875,-17.125 c 2.1875,0 3.578125,1.734375 3.578125,4.515625 0,1.578125 -0.484375,3.421875 -0.71875,4.328125 z m -5.828125,8.125 c -2.328125,0 -2.71875,-1.828125 -2.71875,-2.859375 0,-1.09375 0.6875,-3.65625 1.0625,-4.5625 0.328125,-0.75 1.734375,-3.25 4.3125,-3.25 2.25,0 2.78125,1.953125 2.78125,3.296875 0,1.828125 -1.609375,7.375 -5.4375,7.375 z m 0,0"
             id="path41"
             style="fill:#004442;fill-opacity:0.72549" />
        </g>
      </g>
      <g
         fill="#000000"
         fill-opacity="1"
         id="g4"
         transform="matrix(0.352778,0,0,0.352778,-71.4525,-4.57385)"
         style="fill:#004442;fill-opacity:0.72549">
        <g
           id="use3"
           transform="translate(215.75595,30.684)"
           style="fill:#004442;fill-opacity:0.72549">
          <path
             d="m 15.34375,-14.171875 c 0.84375,-1.34375 1.609375,-1.9375 2.875,-2.03125 0.25,-0.03125 0.4375,-0.03125 0.4375,-0.46875 0,-0.109375 -0.04687,-0.25 -0.265625,-0.25 -0.453125,0 -1.515625,0.04687 -1.953125,0.04687 -0.71875,0 -1.46875,-0.04687 -2.15625,-0.04687 -0.203125,0 -0.453125,0 -0.453125,0.46875 0,0.21875 0.21875,0.25 0.328125,0.25 0.90625,0.07813 1.015625,0.515625 1.015625,0.8125 0,0.375 -0.359375,0.9375 -0.375,0.96875 L 7.015625,-2.078125 5.28125,-15.4375 c 0,-0.71875 1.28125,-0.765625 1.5625,-0.765625 0.375,0 0.59375,0 0.59375,-0.46875 0,-0.25 -0.28125,-0.25 -0.34375,-0.25 -0.421875,0 -0.921875,0.04687 -1.34375,0.04687 H 4.359375 c -1.8125,0 -2.546875,-0.04687 -2.578125,-0.04687 -0.140625,0 -0.4375,0 -0.4375,0.4375 0,0.28125 0.171875,0.28125 0.5625,0.28125 1.265625,0 1.34375,0.21875 1.421875,0.84375 l 1.96875,15.28125 C 5.375,0.453125 5.375,0.515625 5.71875,0.515625 c 0.296875,0 0.421875,-0.0625 0.671875,-0.46875 z m 0,0"
             id="path5"
             style="fill:#004442;fill-opacity:0.72549" />
        </g>
      </g>
    </g>
  </g>
</svg>
