<?xml version="1.0" encoding="UTF-8" standalone="no"?>
<!-- Created with Inkscape (http://www.inkscape.org/) -->

<svg
   width="165.21201mm"
   height="81.084999mm"
   viewBox="0 0 165.212 81.084999"
   version="1.1"
   id="svg1"
   inkscape:version="1.3 (0e150ed6c4, 2023-07-21)"
   sodipodi:docname="Emision-GW-1.svg"
   xmlns:inkscape="http://www.inkscape.org/namespaces/inkscape"
   xmlns:sodipodi="http://sodipodi.sourceforge.net/DTD/sodipodi-0.dtd"
   xmlns:xlink="http://www.w3.org/1999/xlink"
   xmlns="http://www.w3.org/2000/svg"
   xmlns:svg="http://www.w3.org/2000/svg">
  <sodipodi:namedview
     id="namedview1"
     pagecolor="#ffffff"
     bordercolor="#000000"
     borderopacity="0.25"
     inkscape:showpageshadow="2"
     inkscape:pageopacity="0.0"
     inkscape:pagecheckerboard="0"
     inkscape:deskcolor="#d1d1d1"
     inkscape:document-units="mm"
     inkscape:zoom="1.4912879"
     inkscape:cx="290.68833"
     inkscape:cy="116.34239"
     inkscape:window-width="1920"
     inkscape:window-height="1051"
     inkscape:window-x="-9"
     inkscape:window-y="-9"
     inkscape:window-maximized="1"
     inkscape:current-layer="layer2" />
  <defs
     id="defs1">
    <inkscape:path-effect
       effect="spiro"
       id="path-effect5"
       is_visible="true"
       lpeversion="1" />
    <marker
       style="overflow:visible"
       id="ConcaveTriangle"
       refX="0"
       refY="0"
       orient="auto-start-reverse"
       inkscape:stockid="Concave triangle arrow"
       markerWidth="1"
       markerHeight="1"
       viewBox="0 0 1 1"
       inkscape:isstock="true"
       inkscape:collect="always"
       preserveAspectRatio="xMidYMid">
      <path
         transform="scale(0.7)"
         d="M -2,-4 9,0 -2,4 c 2,-2.33 2,-5.66 0,-8 z"
         style="fill:context-stroke;fill-rule:evenodd;stroke:none"
         id="path7" />
    </marker>
    <inkscape:path-effect
       effect="spiro"
       id="path-effect2"
       is_visible="true"
       lpeversion="1" />
    <radialGradient
       inkscape:collect="always"
       xlink:href="#linearGradient4"
       id="radialGradient5"
       cx="116.90907"
       cy="91.014297"
       fx="116.90907"
       fy="91.014297"
       r="43.303539"
       gradientTransform="matrix(0.36666307,1.6118783,-1.503358,0.34197734,208.0489,-121.03361)"
       gradientUnits="userSpaceOnUse" />
    <linearGradient
       id="linearGradient4"
       inkscape:collect="always">
      <stop
         style="stop-color:#00fff8;stop-opacity:0;"
         offset="0"
         id="stop5" />
      <stop
         style="stop-color:#00fff8;stop-opacity:1;"
         offset="1"
         id="stop4" />
    </linearGradient>
    <inkscape:path-effect
       effect="spiro"
       id="path-effect4"
       is_visible="true"
       lpeversion="1" />
  </defs>
  <g
     inkscape:label="Capa 1"
     inkscape:groupmode="layer"
     id="layer1"
     sodipodi:insensitive="true"
     style="display:none"
     transform="translate(-40.362964,-82.327392)">
    <path
       d="M 0,0 V 296.99999 M 10.583333,0 V 296.99999 M 21.166666,0 V 296.99999 M 31.749999,0 V 296.99999 M 42.333332,0 V 296.99999 M 52.916665,0 V 296.99999 M 63.499999,0 V 296.99999 M 74.083332,0 V 296.99999 M 84.666665,0 V 296.99999 M 95.249998,0 V 296.99999 M 105.83333,0 V 296.99999 M 116.41666,0 V 296.99999 M 127,0 V 296.99999 M 137.58333,0 V 296.99999 M 148.16666,0 V 296.99999 M 158.75,0 V 296.99999 M 169.33333,0 V 296.99999 M 179.91666,0 V 296.99999 M 190.5,0 V 296.99999 M 201.08333,0 V 296.99999 M 0,0 H 210 M 0,10.583333 H 210 M 0,21.166666 H 210 M 0,31.749999 H 210 M 0,42.333332 H 210 M 0,52.916665 H 210 M 0,63.499999 H 210 M 0,74.083332 H 210 M 0,84.666665 H 210 M 0,95.249998 H 210 M 0,105.83333 H 210 M 0,116.41666 H 210 M 0,127 H 210 M 0,137.58333 H 210 M 0,148.16666 H 210 M 0,158.75 H 210 M 0,169.33333 H 210 M 0,179.91666 H 210 M 0,190.5 H 210 M 0,201.08333 H 210 M 0,211.66666 H 210 M 0,222.24999 H 210 M 0,232.83333 H 210 M 0,243.41666 H 210 M 0,253.99999 H 210 M 0,264.58333 H 210 M 0,275.16666 H 210 M 0,285.74999 H 210 M 0,296.33333 h 210"
       style="fill:none;stroke:#000000;stroke-width:0.264583px"
       id="path1" />
  </g>
  <g
     inkscape:groupmode="layer"
     id="layer2"
     inkscape:label="Distribucion"
     transform="translate(-40.363, -82.3274)">
    <path
       style="fill:url(#radialGradient5);stroke:#004543;stroke-width:0.5;stroke-dasharray:none;stroke-opacity:0.733333"
       d="m 53.506314,98.230818 c -2.394025,2.932692 -3.408996,6.945362 -2.697271,10.663622 0.656964,3.43217 2.712745,6.51249 5.406772,8.73816 2.694027,2.22568 5.994356,3.63804 9.39685,4.43456 4.20164,0.9836 8.679119,1.09446 12.545444,3.01091 2.30215,1.14112 4.271265,2.87756 5.93096,4.83905 1.659694,1.9615 3.026861,4.15108 4.332726,6.36395 2.61173,4.42573 5.116324,9.11364 9.181749,12.25697 0.790009,0.61083 1.630882,1.15554 2.509086,1.63091 5.41793,2.93274 12.08711,3.0523 17.93999,1.12909 6.44661,-2.11831 12.09629,-6.69199 15.30544,-12.6709 2.04948,-3.81834 3.09946,-8.13475 3.29839,-12.46378 0.19892,-4.32903 -0.43708,-8.67303 -1.6118,-12.84437 -2.34944,-8.34269 -6.79058,-15.918972 -11.22113,-23.368167 -2.75863,-4.638145 -5.63153,-9.383135 -9.9109,-12.670895 -4.06886,-3.126028 -9.20294,-4.715013 -14.329841,-4.921462 -5.126896,-0.206449 -10.249497,0.915776 -15.026495,2.788735 -6.487825,2.543738 -12.367073,6.443081 -17.814528,10.789081 -4.711521,3.758869 -9.139956,7.872487 -13.235442,12.294536 z"
       id="path4"
       inkscape:path-effect="#path-effect4"
       inkscape:original-d="m 53.506314,98.230818 c -1.989949,2.977522 -3.319621,6.840622 -2.697271,10.663622 1.094105,6.72092 8.933907,11.46072 14.803622,13.17272 4.191032,1.22238 8.688594,0.65394 12.545444,3.01091 9.545926,5.83362 11.629686,18.36274 19.445435,23.45997 0.469834,0.30642 1.948225,1.429 2.509086,1.63091 1.8518,0.66665 15.78431,2.10894 17.93999,1.12909 4.56435,-2.07471 13.69903,-7.6732 15.30544,-12.6709 5.71841,-17.7906 0.27447,-33.76661 -9.53454,-48.676317 -2.81337,-4.276325 -5.62353,-9.64452 -9.9109,-12.670895 C 104.73639,70.802589 94.435992,72.21988 84.556284,75.147201 76.261755,77.604839 73.038922,80.727363 66.741756,85.936282 61.133724,90.57516 55.805523,95.905316 53.506314,98.230818 Z"
       sodipodi:nodetypes="csssssssssssc"
       transform="matrix(0.7830302,0,0,0.72298248,42.840069,31.79934)" />
    <path
       style="opacity:1;fill:none;stroke:#000000;stroke-width:0.5;stroke-linecap:round;stroke-linejoin:round;stroke-dasharray:none;stroke-dashoffset:8.16378;marker-start:url(#ConcaveTriangle);marker-end:url(#ConcaveTriangle)"
       d="M 95.096773,105.56452 42.403225,158.79032 187.6814,96.222805"
       id="path2"
       inkscape:path-effect="#path-effect2"
       inkscape:original-d="M 95.096773,105.56452 42.403225,158.79032 187.6814,96.222805"
       sodipodi:nodetypes="ccc"
       transform="translate(13.758336,1.5875)" />
    <circle
       style="opacity:1;fill:#000000;fill-opacity:1;stroke:#000000;stroke-width:0.499999;stroke-linecap:round;stroke-linejoin:round;stroke-dasharray:none;stroke-dashoffset:8.16378"
       id="path3"
       cx="56.094383"
       cy="160.34959"
       r="1.4" />
    <path
       style="opacity:1;fill:#000000;fill-opacity:1;stroke:#000000;stroke-width:0.5;stroke-linecap:round;stroke-linejoin:round;stroke-dasharray:2, 2;stroke-dashoffset:0"
       d="m 97.09274,103.52419 92.54027,-7.98954"
       id="path5"
       inkscape:path-effect="#path-effect5"
       inkscape:original-d="m 97.09274,103.52419 92.54027,-7.98954"
       sodipodi:nodetypes="cc"
       transform="translate(13.758336,1.5875)" />
    <g
       inkscape:label=""
       transform="rotate(-5.4232483,1044.9367,-1471.4947)"
       id="g1">
      <g
         fill="#000000"
         fill-opacity="1"
         id="g6"
         transform="matrix(0.352778,0,0,0.352778,-68.392,-4.14386)">
        <g
           id="use5"
           transform="translate(191.414,28.294001)">
          <path
             d="m 3.28125,-14.75 c 0,-0.375 0,-0.75 -0.40625,-0.75 -0.421875,0 -0.421875,0.375 -0.421875,0.75 V 4.421875 c 0,0.375 0,0.75 0.421875,0.75 0.40625,0 0.40625,-0.375 0.40625,-0.75 z m 0,0"
             id="path13" />
        </g>
      </g>
      <g
         fill="#000000"
         fill-opacity="1"
         id="g7"
         transform="matrix(0.352778,0,0,0.352778,-68.392,-4.14386)">
        <g
           id="use6"
           transform="translate(196.817,28.294001)">
          <path
             d="m 11.046875,-12.328125 c -0.25,0.21875 -1.015625,0.953125 -1.015625,1.234375 0,0.203125 0.1875,0.390625 0.40625,0.390625 0.1875,0 0.265625,-0.125 0.40625,-0.328125 0.5,-0.625 1.046875,-1.015625 1.53125,-1.28125 0.203125,-0.125 0.34375,-0.1875 0.34375,-0.40625 0,-0.1875 -0.15625,-0.296875 -0.28125,-0.390625 -0.578125,-0.40625 -0.71875,-0.953125 -0.78125,-1.203125 -0.0625,-0.171875 -0.125,-0.421875 -0.421875,-0.421875 -0.125,0 -0.375,0.09375 -0.375,0.40625 0,0.171875 0.125,0.671875 0.515625,1.234375 H 4.4375 c -0.34375,0 -0.703125,0 -0.703125,0.390625 0,0.375 0.375,0.375 0.703125,0.375 z m 0,0"
             id="path14" />
        </g>
      </g>
      <g
         fill="#000000"
         fill-opacity="1"
         id="g8"
         transform="matrix(0.352778,0,0,0.352778,-68.392,-4.14386)">
        <g
           id="use7"
           transform="translate(197.16,28.294001)">
          <path
             d="m 9.796875,-8.421875 c -0.671875,0.125 -0.921875,0.609375 -0.921875,1 0,0.5 0.40625,0.671875 0.6875,0.671875 0.625,0 1.0625,-0.546875 1.0625,-1.09375 0,-0.875 -1,-1.265625 -1.859375,-1.265625 -1.265625,0 -1.96875,1.234375 -2.15625,1.625 -0.46875,-1.546875 -1.75,-1.625 -2.125,-1.625 -2.109375,0 -3.21875,2.703125 -3.21875,3.15625 0,0.09375 0.078125,0.1875 0.21875,0.1875 0.171875,0 0.203125,-0.125 0.25,-0.203125 0.703125,-2.296875 2.09375,-2.734375 2.6875,-2.734375 0.921875,0 1.109375,0.875 1.109375,1.375 0,0.453125 -0.125,0.921875 -0.359375,1.921875 L 4.46875,-2.578125 c -0.3125,1.234375 -0.921875,2.375 -2.015625,2.375 -0.09375,0 -0.609375,0 -1.046875,-0.265625 C 2.140625,-0.625 2.3125,-1.234375 2.3125,-1.484375 2.3125,-1.90625 2,-2.140625 1.609375,-2.140625 c -0.5,0 -1.03125,0.421875 -1.03125,1.09375 0,0.859375 0.96875,1.25 1.859375,1.25 0.984375,0 1.6875,-0.78125 2.125,-1.625 0.328125,1.21875 1.359375,1.625 2.125,1.625 2.109375,0 3.234375,-2.703125 3.234375,-3.15625 0,-0.109375 -0.09375,-0.1875 -0.21875,-0.1875 -0.1875,0 -0.203125,0.109375 -0.265625,0.265625 -0.5625,1.828125 -1.75,2.671875 -2.6875,2.671875 -0.71875,0 -1.109375,-0.546875 -1.109375,-1.390625 0,-0.453125 0.078125,-0.78125 0.40625,-2.140625 l 0.734375,-2.8125 c 0.296875,-1.234375 1,-2.15625 1.953125,-2.15625 0.046875,0 0.625,0 1.0625,0.28125 z m 0,0"
             id="path15" />
        </g>
      </g>
      <g
         fill="#000000"
         fill-opacity="1"
         id="g9"
         transform="matrix(0.352778,0,0,0.352778,-68.392,-4.14386)">
        <g
           id="use8"
           transform="translate(213.242,28.294001)">
          <path
             d="m 13.609375,-4.75 c 0.359375,0 0.71875,0 0.71875,-0.421875 0,-0.40625 -0.359375,-0.40625 -0.71875,-0.40625 H 2.4375 c -0.34375,0 -0.71875,0 -0.71875,0.40625 0,0.421875 0.375,0.421875 0.71875,0.421875 z m 0,0"
             id="path16" />
        </g>
      </g>
      <g
         fill="#000000"
         fill-opacity="1"
         id="g10"
         transform="matrix(0.352778,0,0,0.352778,-68.392,-4.14386)">
        <g
           id="use9"
           transform="translate(233.56799,28.294001)">
          <path
             d="m 11.046875,-12.328125 c -0.25,0.21875 -1.015625,0.953125 -1.015625,1.234375 0,0.203125 0.1875,0.390625 0.40625,0.390625 0.1875,0 0.265625,-0.125 0.40625,-0.328125 0.5,-0.625 1.046875,-1.015625 1.53125,-1.28125 0.203125,-0.125 0.34375,-0.1875 0.34375,-0.40625 0,-0.1875 -0.15625,-0.296875 -0.28125,-0.390625 -0.578125,-0.40625 -0.71875,-0.953125 -0.78125,-1.203125 -0.0625,-0.171875 -0.125,-0.421875 -0.421875,-0.421875 -0.125,0 -0.375,0.09375 -0.375,0.40625 0,0.171875 0.125,0.671875 0.515625,1.234375 H 4.4375 c -0.34375,0 -0.703125,0 -0.703125,0.390625 0,0.375 0.375,0.375 0.703125,0.375 z m 0,0"
             id="path17" />
        </g>
      </g>
      <g
         fill="#000000"
         fill-opacity="1"
         id="g11"
         transform="matrix(0.352778,0,0,0.352778,-68.392,-4.14386)">
        <g
           id="use10"
           transform="translate(233.911,28.294001)">
          <path
             d="m 9.796875,-8.421875 c -0.671875,0.125 -0.921875,0.609375 -0.921875,1 0,0.5 0.40625,0.671875 0.6875,0.671875 0.625,0 1.0625,-0.546875 1.0625,-1.09375 0,-0.875 -1,-1.265625 -1.859375,-1.265625 -1.265625,0 -1.96875,1.234375 -2.15625,1.625 -0.46875,-1.546875 -1.75,-1.625 -2.125,-1.625 -2.109375,0 -3.21875,2.703125 -3.21875,3.15625 0,0.09375 0.078125,0.1875 0.21875,0.1875 0.171875,0 0.203125,-0.125 0.25,-0.203125 0.703125,-2.296875 2.09375,-2.734375 2.6875,-2.734375 0.921875,0 1.109375,0.875 1.109375,1.375 0,0.453125 -0.125,0.921875 -0.359375,1.921875 L 4.46875,-2.578125 c -0.3125,1.234375 -0.921875,2.375 -2.015625,2.375 -0.09375,0 -0.609375,0 -1.046875,-0.265625 C 2.140625,-0.625 2.3125,-1.234375 2.3125,-1.484375 2.3125,-1.90625 2,-2.140625 1.609375,-2.140625 c -0.5,0 -1.03125,0.421875 -1.03125,1.09375 0,0.859375 0.96875,1.25 1.859375,1.25 0.984375,0 1.6875,-0.78125 2.125,-1.625 0.328125,1.21875 1.359375,1.625 2.125,1.625 2.109375,0 3.234375,-2.703125 3.234375,-3.15625 0,-0.109375 -0.09375,-0.1875 -0.21875,-0.1875 -0.1875,0 -0.203125,0.109375 -0.265625,0.265625 -0.5625,1.828125 -1.75,2.671875 -2.6875,2.671875 -0.71875,0 -1.109375,-0.546875 -1.109375,-1.390625 0,-0.453125 0.078125,-0.78125 0.40625,-2.140625 l 0.734375,-2.8125 c 0.296875,-1.234375 1,-2.15625 1.953125,-2.15625 0.046875,0 0.625,0 1.0625,0.28125 z m 0,0"
             id="path18" />
        </g>
      </g>
      <g
         fill="#000000"
         fill-opacity="1"
         id="g12"
         transform="matrix(0.352778,0,0,0.352778,-68.392,-4.14386)">
        <g
           id="use11"
           transform="translate(248.845,19.761999)">
          <path
             d="m 3.625,-6.8125 c 0.078125,-0.171875 0.140625,-0.296875 0.140625,-0.453125 0,-0.40625 -0.375,-0.75 -0.828125,-0.75 -0.40625,0 -0.65625,0.265625 -0.75,0.640625 l -1.71875,6.265625 c 0,0.03125 -0.046875,0.1875 -0.046875,0.203125 0,0.15625 0.359375,0.265625 0.484375,0.265625 0.078125,0 0.09375,-0.046875 0.1875,-0.234375 z m 0,0"
             id="path19" />
        </g>
      </g>
      <g
         fill="#000000"
         fill-opacity="1"
         id="g13"
         transform="matrix(0.352778,0,0,0.352778,-68.392,-4.14386)">
        <g
           id="use12"
           transform="translate(253.289,28.294001)">
          <path
             d="m 3.28125,-14.75 c 0,-0.375 0,-0.75 -0.40625,-0.75 -0.421875,0 -0.421875,0.375 -0.421875,0.75 V 4.421875 c 0,0.375 0,0.75 0.421875,0.75 0.40625,0 0.40625,-0.375 0.40625,-0.75 z m 0,0"
             id="path20" />
        </g>
      </g>
    </g>
  </g>
  <g
     inkscape:groupmode="layer"
     id="layer3"
     inkscape:label="LaTeX"
     transform="translate(-40.362964,-82.327392)">
    <g
       inkscape:label=""
       transform="translate(128.63742,119.30834)"
       id="g2">
      <g
         fill="#000000"
         fill-opacity="1"
         id="g23"
         transform="matrix(0.352778,0,0,0.352778,-81.1403,-4.15749)">
        <g
           id="g22"
           transform="translate(229.17599,23.91)">
          <path
             d="m -198.72669,83.48177 c 0,-2.84375 -1.85937,-4.578125 -4.26562,-4.578125 -3.6875,0 -7.40625,3.96875 -7.40625,7.9375 0,2.703125 1.79687,4.546875 4.28125,4.546875 3.625,0 7.39062,-3.765625 7.39062,-7.90625 z m -7.28125,7.515625 c -1.40625,0 -2.90625,-1.03125 -2.90625,-3.71875 0,-1.578125 0.5625,-4.140625 1.96875,-5.859375 1.26563,-1.515625 2.70313,-2.140625 3.85938,-2.140625 1.51562,0 2.98437,1.109375 2.98437,3.59375 0,1.53125 -0.65625,3.921875 -1.8125,5.5625 -1.25,1.75 -2.82812,2.5625 -4.09375,2.5625 z m 0,0"
             id="path6" />
        </g>
      </g>
    </g>
    <g
       inkscape:label=""
       transform="translate(61.8306,124.637)"
       id="g34">
      <g
         fill="#000000"
         fill-opacity="1"
         id="g4"
         transform="matrix(0.352778,0,0,0.352778,-61.062203,-3.3065254)">
        <g
           id="use3"
           transform="translate(215.192,26.899)">
          <path
             d="m 11.046875,-12.328125 c -0.25,0.21875 -1.015625,0.953125 -1.015625,1.234375 0,0.203125 0.1875,0.390625 0.40625,0.390625 0.1875,0 0.265625,-0.125 0.40625,-0.328125 0.5,-0.625 1.046875,-1.015625 1.53125,-1.28125 0.203125,-0.125 0.34375,-0.1875 0.34375,-0.40625 0,-0.1875 -0.15625,-0.296875 -0.28125,-0.390625 -0.578125,-0.40625 -0.71875,-0.953125 -0.78125,-1.203125 -0.0625,-0.171875 -0.125,-0.421875 -0.421875,-0.421875 -0.125,0 -0.375,0.09375 -0.375,0.40625 0,0.171875 0.125,0.671875 0.515625,1.234375 H 4.4375 c -0.34375,0 -0.703125,0 -0.703125,0.390625 0,0.375 0.375,0.375 0.703125,0.375 z m 0,0"
             id="path8" />
        </g>
      </g>
      <g
         fill="#000000"
         fill-opacity="1"
         id="g5"
         transform="matrix(0.352778,0,0,0.352778,-61.062203,-3.3065254)">
        <g
           id="use4"
           transform="translate(215.535,26.899)">
          <path
             d="m 9.796875,-8.421875 c -0.671875,0.125 -0.921875,0.609375 -0.921875,1 0,0.5 0.40625,0.671875 0.6875,0.671875 0.625,0 1.0625,-0.546875 1.0625,-1.09375 0,-0.875 -1,-1.265625 -1.859375,-1.265625 -1.265625,0 -1.96875,1.234375 -2.15625,1.625 -0.46875,-1.546875 -1.75,-1.625 -2.125,-1.625 -2.109375,0 -3.21875,2.703125 -3.21875,3.15625 0,0.09375 0.078125,0.1875 0.21875,0.1875 0.171875,0 0.203125,-0.125 0.25,-0.203125 0.703125,-2.296875 2.09375,-2.734375 2.6875,-2.734375 0.921875,0 1.109375,0.875 1.109375,1.375 0,0.453125 -0.125,0.921875 -0.359375,1.921875 L 4.46875,-2.578125 c -0.3125,1.234375 -0.921875,2.375 -2.015625,2.375 -0.09375,0 -0.609375,0 -1.046875,-0.265625 C 2.140625,-0.625 2.3125,-1.234375 2.3125,-1.484375 2.3125,-1.90625 2,-2.140625 1.609375,-2.140625 c -0.5,0 -1.03125,0.421875 -1.03125,1.09375 0,0.859375 0.96875,1.25 1.859375,1.25 0.984375,0 1.6875,-0.78125 2.125,-1.625 0.328125,1.21875 1.359375,1.625 2.125,1.625 2.109375,0 3.234375,-2.703125 3.234375,-3.15625 0,-0.109375 -0.09375,-0.1875 -0.21875,-0.1875 -0.1875,0 -0.203125,0.109375 -0.265625,0.265625 -0.5625,1.828125 -1.75,2.671875 -2.6875,2.671875 -0.71875,0 -1.109375,-0.546875 -1.109375,-1.390625 0,-0.453125 0.078125,-0.78125 0.40625,-2.140625 l 0.734375,-2.8125 c 0.296875,-1.234375 1,-2.15625 1.953125,-2.15625 0.046875,0 0.625,0 1.0625,0.28125 z m 0,0"
             id="path9" />
        </g>
      </g>
      <g
         fill="#000000"
         fill-opacity="1"
         id="g15"
         transform="matrix(0.352778,0,0,0.352778,-61.062203,-3.3065254)">
        <g
           id="g14"
           transform="translate(230.47,18.368)">
          <path
             d="m 3.625,-6.8125 c 0.078125,-0.171875 0.140625,-0.296875 0.140625,-0.453125 0,-0.40625 -0.375,-0.75 -0.828125,-0.75 -0.40625,0 -0.65625,0.265625 -0.75,0.640625 l -1.71875,6.265625 c 0,0.03125 -0.046875,0.1875 -0.046875,0.203125 0,0.15625 0.359375,0.265625 0.484375,0.265625 0.078125,0 0.09375,-0.046875 0.1875,-0.234375 z m 0,0"
             id="path10" />
        </g>
      </g>
      <g
         inkscape:label=""
         transform="translate(73.486529,4.9363063)"
         id="g18">
        <g
           fill="#000000"
           fill-opacity="1"
           id="g3"
           transform="matrix(0.352778,0,0,0.352778,-77.6313,-4.29141)">
          <g
             id="use2"
             transform="translate(219.136,26.899)">
            <path
               d="m 11.046875,-12.328125 c -0.25,0.21875 -1.015625,0.953125 -1.015625,1.234375 0,0.203125 0.1875,0.390625 0.40625,0.390625 0.1875,0 0.265625,-0.125 0.40625,-0.328125 0.5,-0.625 1.046875,-1.015625 1.53125,-1.28125 0.203125,-0.125 0.34375,-0.1875 0.34375,-0.40625 0,-0.1875 -0.15625,-0.296875 -0.28125,-0.390625 -0.578125,-0.40625 -0.71875,-0.953125 -0.78125,-1.203125 -0.0625,-0.171875 -0.125,-0.421875 -0.421875,-0.421875 -0.125,0 -0.375,0.09375 -0.375,0.40625 0,0.171875 0.125,0.671875 0.515625,1.234375 H 4.4375 c -0.34375,0 -0.703125,0 -0.703125,0.390625 0,0.375 0.375,0.375 0.703125,0.375 z m 0,0"
               id="path21" />
          </g>
        </g>
        <g
           fill="#000000"
           fill-opacity="1"
           id="g17"
           transform="matrix(0.352778,0,0,0.352778,-77.6313,-4.29141)">
          <g
             id="g16"
             transform="translate(219.479,26.899)">
            <path
               d="m 9.796875,-8.421875 c -0.671875,0.125 -0.921875,0.609375 -0.921875,1 0,0.5 0.40625,0.671875 0.6875,0.671875 0.625,0 1.0625,-0.546875 1.0625,-1.09375 0,-0.875 -1,-1.265625 -1.859375,-1.265625 -1.265625,0 -1.96875,1.234375 -2.15625,1.625 -0.46875,-1.546875 -1.75,-1.625 -2.125,-1.625 -2.109375,0 -3.21875,2.703125 -3.21875,3.15625 0,0.09375 0.078125,0.1875 0.21875,0.1875 0.171875,0 0.203125,-0.125 0.25,-0.203125 0.703125,-2.296875 2.09375,-2.734375 2.6875,-2.734375 0.921875,0 1.109375,0.875 1.109375,1.375 0,0.453125 -0.125,0.921875 -0.359375,1.921875 L 4.46875,-2.578125 c -0.3125,1.234375 -0.921875,2.375 -2.015625,2.375 -0.09375,0 -0.609375,0 -1.046875,-0.265625 C 2.140625,-0.625 2.3125,-1.234375 2.3125,-1.484375 2.3125,-1.90625 2,-2.140625 1.609375,-2.140625 c -0.5,0 -1.03125,0.421875 -1.03125,1.09375 0,0.859375 0.96875,1.25 1.859375,1.25 0.984375,0 1.6875,-0.78125 2.125,-1.625 0.328125,1.21875 1.359375,1.625 2.125,1.625 2.109375,0 3.234375,-2.703125 3.234375,-3.15625 0,-0.109375 -0.09375,-0.1875 -0.21875,-0.1875 -0.1875,0 -0.203125,0.109375 -0.265625,0.265625 -0.5625,1.828125 -1.75,2.671875 -2.6875,2.671875 -0.71875,0 -1.109375,-0.546875 -1.109375,-1.390625 0,-0.453125 0.078125,-0.78125 0.40625,-2.140625 l 0.734375,-2.8125 c 0.296875,-1.234375 1,-2.15625 1.953125,-2.15625 0.046875,0 0.625,0 1.0625,0.28125 z m 0,0"
               id="path22" />
          </g>
        </g>
      </g>
      <g
         inkscape:label=""
         transform="matrix(1.1304181,0,0,1.0929657,57.701168,-12.810118)"
         id="g33">
        <g
           fill="#000000"
           fill-opacity="1"
           id="g25"
           transform="matrix(0.352778,0,0,0.352778,-74.0795,-3.76233)">
          <g
             id="g24"
             transform="translate(209.489,26.899)">
            <path
               d="m 8.609375,-12.59375 c 0.125,-0.5 0.171875,-0.6875 0.484375,-0.765625 0.15625,-0.04687 0.84375,-0.04687 1.28125,-0.04687 2.0625,0 3.03125,0.07813 3.03125,1.6875 0,0.3125 -0.07813,1.09375 -0.203125,1.859375 l -0.03125,0.25 c 0,0.09375 0.09375,0.203125 0.21875,0.203125 0.203125,0 0.203125,-0.09375 0.265625,-0.421875 L 14.25,-13.48437 c 0.04687,-0.1875 0.04687,-0.234375 0.04687,-0.296875 C 14.296875,-14 14.171875,-14 13.75,-14 H 2.453125 c -0.46875,0 -0.484375,0.01563 -0.609375,0.390625 l -1.265625,3.71875 C 0.5625,-9.859375 0.5,-9.625 0.5,-9.609375 0.5,-9.5 0.578125,-9.40625 0.703125,-9.40625 c 0.171875,0 0.203125,-0.078125 0.28125,-0.34375 0.875,-2.5 1.3125,-3.65625 4.0625,-3.65625 h 1.375 c 0.5,0 0.703125,0 0.703125,0.234375 0,0.0625 0,0.09375 -0.109375,0.46875 L 4.25,-1.609375 C 4.046875,-0.8125 4,-0.59375 1.8125,-0.59375 c -0.515625,0 -0.65625,0 -0.65625,0.390625 C 1.15625,0 1.390625,0 1.484375,0 2,0 2.546875,-0.046875 3.0625,-0.046875 H 6.28125 C 6.796875,-0.046875 7.359375,0 7.875,0 8.09375,0 8.296875,0 8.296875,-0.390625 8.296875,-0.59375 8.15625,-0.59375 7.625,-0.59375 c -1.859375,0 -1.859375,-0.1875 -1.859375,-0.5 0,-0.015625 0,-0.171875 0.078125,-0.5 z m 0,0"
               id="path11" />
          </g>
        </g>
        <g
           fill="#000000"
           fill-opacity="1"
           id="g28"
           transform="matrix(0.352778,0,0,0.352778,-74.0795,-3.76233)">
          <g
             id="g26"
             transform="translate(224.157,16.993)">
            <path
               d="m 2.0625,-0.3125 c 0.359375,0.328125 0.890625,0.453125 1.375,0.453125 0.921875,0 1.546875,-0.609375 1.890625,-1.0625 0.140625,0.765625 0.734375,1.0625 1.234375,1.0625 0.4375,0 0.78125,-0.25 1.046875,-0.765625 C 7.828125,-1.125 8.03125,-2 8.03125,-2.046875 8.03125,-2.125 7.96875,-2.1875 7.890625,-2.1875 c -0.125,0 -0.140625,0.078125 -0.203125,0.296875 -0.21875,0.84375 -0.484375,1.75 -1.078125,1.75 -0.40625,0 -0.4375,-0.375 -0.4375,-0.65625 0,-0.34375 0.125,-0.859375 0.21875,-1.28125 L 6.796875,-3.625 c 0.0625,-0.28125 0.21875,-0.921875 0.28125,-1.1875 0.09375,-0.34375 0.25,-0.953125 0.25,-1.015625 0,-0.203125 -0.171875,-0.359375 -0.390625,-0.359375 -0.125,0 -0.421875,0.0625 -0.546875,0.5 l -1,3.984375 c -0.0625,0.28125 -0.0625,0.3125 -0.25,0.546875 C 4.96875,-0.921875 4.40625,-0.140625 3.5,-0.140625 c -0.796875,0 -1.0625,-0.59375 -1.0625,-1.265625 0,-0.421875 0.125,-0.921875 0.1875,-1.15625 l 0.640625,-2.59375 c 0.078125,-0.265625 0.1875,-0.71875 0.1875,-0.8125 0,-0.234375 -0.1875,-0.359375 -0.375,-0.359375 -0.125,0 -0.4375,0.046875 -0.546875,0.5 l -2.09375,8.3125 c 0,0.0625 -0.03125,0.15625 -0.03125,0.234375 0,0.21875 0.171875,0.359375 0.375,0.359375 0.421875,0 0.515625,-0.328125 0.609375,-0.71875 z m 0,0"
               id="path12" />
          </g>
          <g
             id="g27"
             transform="translate(232.60835,16.993)">
            <path
               d="m 3.15625,-6.1875 c 0,-0.046875 -0.046875,-0.140625 -0.15625,-0.140625 -0.109375,0 -1.453125,0.125 -1.671875,0.140625 -0.15625,0.015625 -0.296875,0.03125 -0.296875,0.296875 0,0.140625 0.109375,0.140625 0.3125,0.140625 0.671875,0 0.71875,0.09375 0.71875,0.25 0,0.0625 -0.03125,0.234375 -0.046875,0.296875 l -1.25,5.0625 C 0.765625,-0.09375 0.796875,0 0.90625,0 h 0.296875 c 0.203125,0 2.375,-0.515625 4.0625,-2.234375 C 7.109375,-4.140625 7.375,-5.90625 7.375,-5.96875 7.375,-6.203125 7.1875,-6.328125 7,-6.328125 c -0.421875,0 -0.515625,0.390625 -0.546875,0.484375 -0.84375,3 -2.8125,4.78125 -4.71875,5.40625 z m 0,0"
               id="path26" />
          </g>
        </g>
        <g
           fill="#000000"
           fill-opacity="1"
           id="g32"
           transform="matrix(0.352778,0,0,0.352778,-74.0795,-3.76233)">
          <g
             id="g29"
             transform="translate(221.347,33.848)">
            <path
               d="m 4.65625,3.484375 c 0,-0.046875 0,-0.078125 -0.234375,-0.3125 -1.4375,-1.453125 -2.234375,-3.8125 -2.234375,-6.75 0,-2.78125 0.671875,-5.171875 2.328125,-6.859375 0.140625,-0.140625 0.140625,-0.15625 0.140625,-0.203125 0,-0.09375 -0.0625,-0.109375 -0.125,-0.109375 -0.1875,0 -1.359375,1.03125 -2.0625,2.4375 -0.734375,1.4375 -1.0625,2.984375 -1.0625,4.734375 0,1.28125 0.203125,2.984375 0.953125,4.53125 0.84375,1.71875 2.015625,2.640625 2.171875,2.640625 0.0625,0 0.125,-0.015625 0.125,-0.109375 z m 0,0"
               id="path28" />
          </g>
          <g
             id="g30"
             transform="translate(226.81003,33.848)">
            <path
               d="m 6.421875,-4.59375 c 0,-1.1875 -0.0625,-2.34375 -0.578125,-3.4375 -0.59375,-1.1875 -1.625,-1.5 -2.328125,-1.5 -0.828125,0 -1.859375,0.40625 -2.375,1.59375 -0.40625,0.90625 -0.546875,1.796875 -0.546875,3.34375 0,1.390625 0.09375,2.4375 0.609375,3.453125 0.5625,1.09375 1.546875,1.4375 2.296875,1.4375 1.25,0 1.96875,-0.734375 2.375,-1.578125 0.515625,-1.078125 0.546875,-2.484375 0.546875,-3.3125 z M 3.5,0.015625 C 3.046875,0.015625 2.109375,-0.25 1.84375,-1.8125 1.671875,-2.671875 1.671875,-3.765625 1.671875,-4.765625 1.671875,-5.9375 1.671875,-7 1.90625,-7.84375 2.15625,-8.8125 2.890625,-9.25 3.5,-9.25 c 0.546875,0 1.375,0.328125 1.65625,1.5625 0.171875,0.8125 0.171875,1.953125 0.171875,2.921875 0,0.96875 0,2.046875 -0.15625,2.921875 C 4.90625,-0.265625 4,0.015625 3.5,0.015625 Z m 0,0"
               id="path29" />
          </g>
          <g
             id="g31"
             transform="translate(233.83394,33.848)">
            <path
               d="M 4.046875,-3.578125 C 4.046875,-4.65625 3.90625,-6.4375 3.09375,-8.109375 2.25,-9.828125 1.078125,-10.75 0.921875,-10.75 c -0.0625,0 -0.140625,0.01563 -0.140625,0.109375 0,0.04687 0,0.0625 0.25,0.3125 1.4375,1.453125 2.234375,3.8125 2.234375,6.75 0,2.78125 -0.671875,5.171875 -2.328125,6.859375 -0.15625,0.125 -0.15625,0.15625 -0.15625,0.203125 0,0.09375 0.078125,0.109375 0.140625,0.109375 0.1875,0 1.359375,-1.03125 2.0625,-2.4375 0.734375,-1.453125 1.0625,-3 1.0625,-4.734375 z m 0,0"
               id="path23" />
          </g>
        </g>
      </g>
    </g>
  </g>
</svg>
