<?xml version="1.0" encoding="UTF-8" standalone="no"?>
<!-- Created with Inkscape (http://www.inkscape.org/) -->

<svg
   width="213.37399mm"
   height="172.98599mm"
   viewBox="0 0 213.37399 172.98599"
   version="1.1"
   id="svg1"
   xml:space="preserve"
   inkscape:version="1.3 (0e150ed6c4, 2023-07-21)"
   sodipodi:docname="Desvio-Luz.svg"
   xmlns:inkscape="http://www.inkscape.org/namespaces/inkscape"
   xmlns:sodipodi="http://sodipodi.sourceforge.net/DTD/sodipodi-0.dtd"
   xmlns:xlink="http://www.w3.org/1999/xlink"
   xmlns="http://www.w3.org/2000/svg"
   xmlns:svg="http://www.w3.org/2000/svg"><sodipodi:namedview
     id="namedview1"
     pagecolor="#ffffff"
     bordercolor="#000000"
     borderopacity="0.25"
     inkscape:showpageshadow="2"
     inkscape:pageopacity="0.0"
     inkscape:pagecheckerboard="0"
     inkscape:deskcolor="#d1d1d1"
     inkscape:document-units="mm"
     inkscape:zoom="1.0544998"
     inkscape:cx="229.01854"
     inkscape:cy="280.22765"
     inkscape:window-width="1920"
     inkscape:window-height="1051"
     inkscape:window-x="-9"
     inkscape:window-y="-9"
     inkscape:window-maximized="1"
     inkscape:current-layer="g13" /><defs
     id="defs1"><inkscape:path-effect
       effect="spiro"
       id="path-effect19"
       is_visible="true"
       lpeversion="1" /><marker
       style="overflow:visible"
       id="marker18"
       refX="0"
       refY="0"
       orient="auto-start-reverse"
       inkscape:stockid="Concave triangle arrow"
       markerWidth="1"
       markerHeight="1"
       viewBox="0 0 1 1"
       inkscape:isstock="true"
       inkscape:collect="always"
       preserveAspectRatio="xMidYMid"><path
         transform="scale(0.7)"
         d="M -2,-4 9,0 -2,4 c 2,-2.33 2,-5.66 0,-8 z"
         style="fill:context-stroke;fill-rule:evenodd;stroke:none"
         id="path18" /></marker><inkscape:path-effect
       effect="spiro"
       id="path-effect17"
       is_visible="true"
       lpeversion="1" /><marker
       style="overflow:visible"
       id="ConcaveTriangle"
       refX="0"
       refY="0"
       orient="auto-start-reverse"
       inkscape:stockid="Concave triangle arrow"
       markerWidth="1"
       markerHeight="1"
       viewBox="0 0 1 1"
       inkscape:isstock="true"
       inkscape:collect="always"
       preserveAspectRatio="xMidYMid"><path
         transform="scale(0.7)"
         d="M -2,-4 9,0 -2,4 c 2,-2.33 2,-5.66 0,-8 z"
         style="fill:context-stroke;fill-rule:evenodd;stroke:none"
         id="path16" /></marker><inkscape:path-effect
       effect="spiro"
       id="path-effect15"
       is_visible="true"
       lpeversion="1" /><marker
       style="overflow:visible"
       id="marker14"
       refX="0"
       refY="0"
       orient="auto-start-reverse"
       inkscape:stockid="Wide, rounded arrow"
       markerWidth="1"
       markerHeight="1"
       viewBox="0 0 1 1"
       inkscape:isstock="true"
       inkscape:collect="always"
       preserveAspectRatio="xMidYMid"><path
         style="fill:none;stroke:context-stroke;stroke-width:1;stroke-linecap:round"
         d="M 3,-3 0,0 3,3"
         transform="rotate(180,0.125,0)"
         sodipodi:nodetypes="ccc"
         id="path14" /></marker><inkscape:path-effect
       effect="spiro"
       id="path-effect13"
       is_visible="true"
       lpeversion="1" /><marker
       style="overflow:visible"
       id="marker12"
       refX="0"
       refY="0"
       orient="auto-start-reverse"
       inkscape:stockid="Wide, rounded arrow"
       markerWidth="1"
       markerHeight="1"
       viewBox="0 0 1 1"
       inkscape:isstock="true"
       inkscape:collect="always"
       preserveAspectRatio="xMidYMid"><path
         style="fill:none;stroke:context-stroke;stroke-width:1;stroke-linecap:round"
         d="M 0.45710678,3 -2.5428932,0 0.45710678,-3"
         sodipodi:nodetypes="ccc"
         id="path12" /></marker><marker
       style="overflow:visible"
       id="ArrowWideRounded"
       refX="0"
       refY="0"
       orient="auto-start-reverse"
       inkscape:stockid="Wide, rounded arrow"
       markerWidth="1"
       markerHeight="1"
       viewBox="0 0 1 1"
       inkscape:isstock="true"
       inkscape:collect="always"
       preserveAspectRatio="xMidYMid"><path
         style="fill:none;stroke:context-stroke;stroke-width:1;stroke-linecap:round"
         d="M 3,-3 0,0 3,3"
         transform="rotate(180,0.125,0)"
         sodipodi:nodetypes="ccc"
         id="path10" /></marker><inkscape:path-effect
       effect="spiro"
       id="path-effect9"
       is_visible="true"
       lpeversion="1" /><inkscape:path-effect
       effect="spiro"
       id="path-effect8"
       is_visible="true"
       lpeversion="1" /><marker
       style="overflow:visible"
       id="ArrowWideHeavy"
       refX="0"
       refY="0"
       orient="auto-start-reverse"
       inkscape:stockid="Wide, heavy arrow"
       markerWidth="1"
       markerHeight="1"
       viewBox="0 0 1 1"
       inkscape:isstock="true"
       inkscape:collect="always"
       preserveAspectRatio="xMidYMid"><path
         style="fill:context-stroke;fill-rule:evenodd;stroke:none"
         d="m 1,0 -3,3 h -2 l 3,-3 -3,-3 h 2 z"
         id="path7" /></marker><inkscape:path-effect
       effect="spiro"
       id="path-effect3"
       is_visible="true"
       lpeversion="1" /><linearGradient
       id="linearGradient2"
       inkscape:collect="always"><stop
         style="stop-color:#000000;stop-opacity:0;"
         offset="0"
         id="stop3" /><stop
         style="stop-color:#000000;stop-opacity:1;"
         offset="1"
         id="stop2" /></linearGradient><radialGradient
       inkscape:collect="always"
       xlink:href="#linearGradient2"
       id="radialGradient3"
       cx="102.81451"
       cy="140.95967"
       fx="102.81451"
       fy="140.95967"
       r="20.299999"
       gradientUnits="userSpaceOnUse"
       gradientTransform="matrix(1.8263207,-4.1057998e-8,4.1057998e-8,1.8263207,-181.73902,-72.753449)" /><inkscape:path-effect
       effect="spiro"
       id="path-effect9-3"
       is_visible="true"
       lpeversion="1" /><inkscape:path-effect
       effect="spiro"
       id="path-effect3-4"
       is_visible="true"
       lpeversion="1" /><inkscape:path-effect
       effect="spiro"
       id="path-effect3-4-7"
       is_visible="true"
       lpeversion="1" /><inkscape:path-effect
       effect="spiro"
       id="path-effect3-0"
       is_visible="true"
       lpeversion="1" /><marker
       style="overflow:visible"
       id="marker14-9"
       refX="0"
       refY="0"
       orient="auto-start-reverse"
       inkscape:stockid="Wide, rounded arrow"
       markerWidth="1"
       markerHeight="1"
       viewBox="0 0 1 1"
       inkscape:isstock="true"
       inkscape:collect="always"
       preserveAspectRatio="xMidYMid"><path
         style="fill:none;stroke:context-stroke;stroke-width:1;stroke-linecap:round"
         d="M 3,-3 0,0 3,3"
         transform="rotate(180,0.125,0)"
         sodipodi:nodetypes="ccc"
         id="path14-8" /></marker><inkscape:path-effect
       effect="spiro"
       id="path-effect13-2"
       is_visible="true"
       lpeversion="1" /><marker
       style="overflow:visible"
       id="marker14-9-3"
       refX="0"
       refY="0"
       orient="auto-start-reverse"
       inkscape:stockid="Wide, rounded arrow"
       markerWidth="1"
       markerHeight="1"
       viewBox="0 0 1 1"
       inkscape:isstock="true"
       inkscape:collect="always"
       preserveAspectRatio="xMidYMid"><path
         style="fill:none;stroke:context-stroke;stroke-width:1;stroke-linecap:round"
         d="M 3,-3 0,0 3,3"
         transform="rotate(180,0.125,0)"
         sodipodi:nodetypes="ccc"
         id="path14-8-9" /></marker><inkscape:path-effect
       effect="spiro"
       id="path-effect13-2-0"
       is_visible="true"
       lpeversion="1" /><inkscape:path-effect
       effect="spiro"
       id="path-effect17-3"
       is_visible="true"
       lpeversion="1" /><marker
       style="overflow:visible"
       id="marker14-4"
       refX="0"
       refY="0"
       orient="auto-start-reverse"
       inkscape:stockid="Wide, rounded arrow"
       markerWidth="1"
       markerHeight="1"
       viewBox="0 0 1 1"
       inkscape:isstock="true"
       inkscape:collect="always"
       preserveAspectRatio="xMidYMid"><path
         style="fill:none;stroke:context-stroke;stroke-width:1;stroke-linecap:round"
         d="M 3,-3 0,0 3,3"
         transform="rotate(180,0.125,0)"
         sodipodi:nodetypes="ccc"
         id="path14-4" /></marker><inkscape:path-effect
       effect="spiro"
       id="path-effect13-4"
       is_visible="true"
       lpeversion="1" /><inkscape:path-effect
       effect="spiro"
       id="path-effect15-4"
       is_visible="true"
       lpeversion="1" /><marker
       style="overflow:visible"
       id="marker14-9-1"
       refX="0"
       refY="0"
       orient="auto-start-reverse"
       inkscape:stockid="Wide, rounded arrow"
       markerWidth="1"
       markerHeight="1"
       viewBox="0 0 1 1"
       inkscape:isstock="true"
       inkscape:collect="always"
       preserveAspectRatio="xMidYMid"><path
         style="fill:none;stroke:context-stroke;stroke-width:1;stroke-linecap:round"
         d="M 3,-3 0,0 3,3"
         transform="rotate(180,0.125,0)"
         sodipodi:nodetypes="ccc"
         id="path14-8-7" /></marker><inkscape:path-effect
       effect="spiro"
       id="path-effect13-2-2"
       is_visible="true"
       lpeversion="1" /></defs><g
     inkscape:label="Capa 1"
     inkscape:groupmode="layer"
     id="layer1"
     sodipodi:insensitive="true"
     style="display:none"
     transform="translate(-5.2241721,-54.325694)"><path
       d="M 0,0 V 296.99999 M 10.583333,0 V 296.99999 M 21.166666,0 V 296.99999 M 31.749999,0 V 296.99999 M 42.333332,0 V 296.99999 M 52.916665,0 V 296.99999 M 63.499999,0 V 296.99999 M 74.083332,0 V 296.99999 M 84.666665,0 V 296.99999 M 95.249998,0 V 296.99999 M 105.83333,0 V 296.99999 M 116.41666,0 V 296.99999 M 127,0 V 296.99999 M 137.58333,0 V 296.99999 M 148.16666,0 V 296.99999 M 158.75,0 V 296.99999 M 169.33333,0 V 296.99999 M 179.91666,0 V 296.99999 M 190.5,0 V 296.99999 M 201.08333,0 V 296.99999 M 0,0 H 210 M 0,10.583333 H 210 M 0,21.166666 H 210 M 0,31.749999 H 210 M 0,42.333332 H 210 M 0,52.916665 H 210 M 0,63.499999 H 210 M 0,74.083332 H 210 M 0,84.666665 H 210 M 0,95.249998 H 210 M 0,105.83333 H 210 M 0,116.41666 H 210 M 0,127 H 210 M 0,137.58333 H 210 M 0,148.16666 H 210 M 0,158.75 H 210 M 0,169.33333 H 210 M 0,179.91666 H 210 M 0,190.5 H 210 M 0,201.08333 H 210 M 0,211.66666 H 210 M 0,222.24999 H 210 M 0,232.83333 H 210 M 0,243.41666 H 210 M 0,253.99999 H 210 M 0,264.58333 H 210 M 0,275.16666 H 210 M 0,285.74999 H 210 M 0,296.33333 h 210"
       style="fill:none;stroke:#000000;stroke-width:0.264583px"
       id="path1" /></g><g
     inkscape:groupmode="layer"
     id="layer2"
     inkscape:label="Sun"
     transform="translate(-5.2241721,-54.325694)"><circle
       style="opacity:0.703;fill:url(#radialGradient3);fill-opacity:1;stroke:#000000;stroke-width:1.09579;stroke-linecap:round;stroke-dasharray:none"
       id="path2"
       cx="6.0332208"
       cy="184.68376"
       transform="rotate(-36.017156)"
       r="30" /><g
       inkscape:label=""
       transform="translate(42.934606,8.6836783)"
       id="g36"><g
   fill="#0f886e"
   fill-opacity="1"
   id="g35"
   transform="matrix(0.352778,0,0,0.352778,-66.131803,-11.383926)">&#10;    <g
   id="g34"
   transform="translate(194.612,37.856998)">&#10;      <path
   d="m 9.640625,-10.140625 c -0.765625,0.15625 -1.171875,0.703125 -1.171875,1.25 0,0.59375 0.484375,0.78125 0.828125,0.78125 0.6875,0 1.265625,-0.59375 1.265625,-1.328125 0,-0.796875 -0.78125,-1.484375 -2.015625,-1.484375 -0.984375,0 -2.125,0.4375 -3.171875,1.953125 -0.171875,-1.3125 -1.15625,-1.953125 -2.15625,-1.953125 -0.96875,0 -1.453125,0.734375 -1.75,1.28125 -0.421875,0.890625 -0.796875,2.375 -0.796875,2.5 0,0.109375 0.09375,0.234375 0.265625,0.234375 0.203125,0 0.234375,-0.03125 0.375,-0.609375 C 1.6875,-9 2.15625,-10.4375 3.140625,-10.4375 c 0.59375,0 0.78125,0.421875 0.78125,1.140625 0,0.546875 -0.25,1.515625 -0.421875,2.28125 L 2.796875,-4.34375 c -0.09375,0.484375 -0.375,1.59375 -0.5,2.046875 C 2.125,-1.65625 1.859375,-0.5 1.859375,-0.375 1.859375,-0.03125 2.125,0.25 2.5,0.25 2.78125,0.25 3.25,0.078125 3.390625,-0.421875 3.46875,-0.625 4.390625,-4.359375 4.53125,-4.9375 4.65625,-5.484375 4.8125,-6 4.9375,-6.546875 c 0.09375,-0.34375 0.1875,-0.734375 0.265625,-1.0625 0.078125,-0.21875 0.75,-1.4375 1.359375,-1.984375 0.296875,-0.265625 0.953125,-0.84375 1.96875,-0.84375 0.390625,0 0.78125,0.07813 1.109375,0.296875 z m 0,0"
   id="path34" />&#10;    </g>&#10;  </g>&#10;</g><g
       inkscape:label=""
       transform="translate(34.152786,26.059138)"
       id="g37"><g
   fill="#0f886e"
   fill-opacity="1"
   id="g2"
   transform="matrix(0.352778,0,0,0.352778,-68.3284,-9.50247)">&#10;    <g
   id="use1"
   transform="translate(192.468,37.858002)">&#10;      <path
   d="m 7.453125,-1.09375 c -0.421875,0 -0.78125,0 -0.78125,-0.125 0,-0.046875 0.421875,-2.375 0.5625,-2.921875 C 8.03125,-7.3125 9.90625,-9.59375 12.0625,-9.59375 c 1.609375,0 2.359375,1.21875 2.359375,2.578125 0,2.828125 -3.171875,5.921875 -6.96875,5.921875 z m -1.0625,1.296875 C 6.546875,0.21875 6.796875,0.25 7.234375,0.25 c 4.0625,0 7.8125,-3.921875 7.8125,-7.828125 0,-1.515625 -0.671875,-3.34375 -2.75,-3.34375 -3.578125,0 -5.078125,5.03125 -6.46875,9.6875 -2.859375,-0.546875 -4.046875,-2.0625 -4.046875,-3.71875 0,-0.671875 0.515625,-3.328125 1.953125,-5.109375 0.28125,-0.328125 0.28125,-0.375 0.28125,-0.421875 0,-0.203125 -0.203125,-0.203125 -0.25,-0.203125 -0.671875,0 -2.546875,3.625 -2.546875,5.984375 0,2.765625 2.171875,4.28125 4.1875,4.734375 l -1.296875,4.1875 c -0.125,0.359375 -0.125,0.421875 -0.125,0.515625 0,0.59375 0.59375,0.625 0.65625,0.625 C 4.875,5.359375 5.328125,5.25 5.53125,4.765625 5.59375,4.53125 6.296875,0.6875 6.390625,0.203125 Z m 0,0"
   id="path37" />&#10;    </g>&#10;  </g>&#10;</g></g><g
     inkscape:groupmode="layer"
     id="layer3"
     inkscape:label="Rays"
     transform="translate(-5.2241721,-54.325694)"><path
       style="opacity:0.75;fill:#000000;fill-opacity:1;stroke:#0900ff;stroke-width:0.8;stroke-linecap:round;stroke-dasharray:none;stroke-opacity:1;marker-end:url(#ArrowWideHeavy)"
       d="M 21.112903,127.03226 210.24193,126.85484"
       id="path3"
       inkscape:path-effect="#path-effect3"
       inkscape:original-d="M 21.112903,127.03226 210.24193,126.85484"
       transform="rotate(-36.017156,95.947815,156.18751)" /><path
       style="opacity:1;fill:none;fill-opacity:1;stroke:#ff2000;stroke-width:0.8;stroke-linecap:round;stroke-dasharray:none;stroke-opacity:1;marker-mid:url(#ArrowWideRounded)"
       d="m 10.024193,158.96774 c 15.179893,-10.18392 31.838227,-18.16033 49.289342,-23.60092 15.021774,-4.68321 30.627494,-7.49003 46.339685,-8.33456"
       id="path9"
       inkscape:path-effect="#path-effect9"
       inkscape:original-d="m 10.024193,158.96774 c 4.680724,-19.63713 31.049104,-20.99517 49.289342,-23.60092 7.518048,-1.07401 38.835875,-8.33456 46.339685,-8.33456"
       sodipodi:nodetypes="csc"
       transform="rotate(-36.017156,90.656147,139.90972)" /><path
       style="fill:none;fill-opacity:1;stroke:#ff2000;stroke-width:0.806584;stroke-linecap:round;stroke-dasharray:none;stroke-opacity:1;marker-mid:url(#marker12)"
       d="m 10.024193,158.96774 c 15.179893,-10.18392 31.838227,-18.16033 49.289342,-23.60092 15.021774,-4.68321 30.627494,-7.49003 46.339685,-8.33456"
       id="path9-8"
       inkscape:path-effect="#path-effect9-3"
       inkscape:original-d="m 10.024193,158.96774 c 4.680724,-19.63713 31.049104,-20.99517 49.289342,-23.60092 7.518048,-1.07401 38.835875,-8.33456 46.339685,-8.33456"
       sodipodi:nodetypes="csc"
       transform="matrix(-0.79554739,0.57836304,0.58813267,0.80898566,104.74238,-43.319625)" /><path
       style="opacity:0.8;fill:#000000;fill-opacity:1;stroke:#ff2000;stroke-width:0.7;stroke-linecap:round;stroke-dasharray:4.20000026,4.20000026;stroke-dashoffset:6.09000045;stroke-opacity:1"
       d="M 21.112903,127.03226 210.24193,126.85484"
       id="path3-8"
       inkscape:path-effect="#path-effect3-4"
       inkscape:original-d="M 21.112903,127.03226 210.24193,126.85484"
       transform="rotate(-5.864577,-170.73884,28.492607)" /><path
       style="opacity:0.8;fill:#000000;fill-opacity:1;stroke:#ff2000;stroke-width:0.70347028;stroke-linecap:round;stroke-dasharray:4.22081924,4.22081924;stroke-dashoffset:5.55742168;stroke-opacity:1"
       d="M 21.112903,127.03226 210.24193,126.85484"
       id="path3-8-5"
       inkscape:path-effect="#path-effect3-4-7"
       inkscape:original-d="M 21.112903,127.03226 210.24193,126.85484"
       transform="matrix(-0.3971245,0.90974015,0.91075001,0.40695628,-6.4715311,-16.048971)" /><path
       style="opacity:0.8;fill:none;fill-opacity:1;stroke:#ff2000;stroke-width:0.749111;stroke-linecap:round;stroke-dasharray:none;stroke-dashoffset:1.25;stroke-opacity:1;marker-start:url(#marker14);marker-end:url(#marker14)"
       d="m 133.50806,114.70161 c 1.35699,-1.73947 2.43896,-3.69303 3.19355,-5.76613 2.22628,-6.11633 1.414,-13.257637 -2.12903,-18.71774"
       id="path13"
       inkscape:path-effect="#path-effect13"
       inkscape:original-d="m 133.50806,114.70161 c 1.03723,-1.87083 2.49488,-3.6701 3.19355,-5.76613 1.53891,-4.61673 1.14954,-15.439166 -2.12903,-18.71774"
       transform="matrix(0.56992899,-0.41433844,0.37178107,0.51139066,-19.80623,94.363823)" /><path
       style="opacity:0.8;fill:none;fill-opacity:1;stroke:#ff2000;stroke-width:1.20833;stroke-linecap:round;stroke-dasharray:none;stroke-dashoffset:1.25;stroke-opacity:1;marker-start:url(#marker14-9);marker-end:url(#marker14-9)"
       d="m 133.50806,114.70161 c 1.35699,-1.73947 2.43896,-3.69303 3.19355,-5.76613 2.22628,-6.11633 1.414,-13.257637 -2.12903,-18.71774"
       id="path13-8"
       inkscape:path-effect="#path-effect13-2"
       inkscape:original-d="m 133.50806,114.70161 c 1.03723,-1.87083 2.49488,-3.6701 3.19355,-5.76613 1.53891,-4.61673 1.14954,-15.439166 -2.12903,-18.71774"
       transform="matrix(0.35741465,-0.25984049,0.22785412,0.3134169,81.585571,89.657017)" /><path
       style="opacity:0.8;fill:none;fill-opacity:1;stroke:#ff2000;stroke-width:1.20833;stroke-linecap:round;stroke-dasharray:none;stroke-dashoffset:1.25;stroke-opacity:1;marker-start:url(#marker14-9-3);marker-end:url(#marker14-9-3)"
       d="m 133.50806,114.70161 c 1.35699,-1.73947 2.43896,-3.69303 3.19355,-5.76613 2.22628,-6.11633 1.414,-13.257637 -2.12903,-18.71774"
       id="path13-8-7"
       inkscape:path-effect="#path-effect13-2-0"
       inkscape:original-d="m 133.50806,114.70161 c 1.03723,-1.87083 2.49488,-3.6701 3.19355,-5.76613 1.53891,-4.61673 1.14954,-15.439166 -2.12903,-18.71774"
       transform="matrix(-0.37283103,0.2710482,0.22732129,0.31268398,70.943756,97.155856)" /><path
       style="opacity:0.8;fill:none;fill-opacity:1;stroke:#00875c;stroke-width:0.749111;stroke-linecap:round;stroke-dasharray:none;stroke-dashoffset:1.25;stroke-opacity:1;marker-start:url(#marker14-4);marker-end:url(#marker14-4)"
       d="m 133.50806,114.70161 c 1.35699,-1.73947 2.43896,-3.69303 3.19355,-5.76613 2.22628,-6.11633 1.414,-13.257637 -2.12903,-18.71774"
       id="path13-9"
       inkscape:path-effect="#path-effect13-4"
       inkscape:original-d="m 133.50806,114.70161 c 1.03723,-1.87083 2.49488,-3.6701 3.19355,-5.76613 1.53891,-4.61673 1.14954,-15.439166 -2.12903,-18.71774"
       transform="matrix(0.61073816,-0.06824155,0.06579458,0.51000915,-48.419064,-15.732701)" /><path
       style="opacity:0.8;fill:none;fill-opacity:1;stroke:#000000;stroke-width:0.69314675;stroke-linecap:round;stroke-dasharray:none;stroke-dashoffset:1.25;stroke-opacity:1;marker-start:url(#marker14-9-1);marker-end:url(#marker14-9-1)"
       d="m 133.50806,114.70161 c 1.35699,-1.73947 2.43896,-3.69303 3.19355,-5.76613 2.22628,-6.11633 1.414,-13.257637 -2.12903,-18.71774"
       id="path13-8-77"
       inkscape:path-effect="#path-effect13-2-2"
       inkscape:original-d="m 133.50806,114.70161 c 1.03723,-1.87083 2.49488,-3.6701 3.19355,-5.76613 1.53891,-4.61673 1.14954,-15.439166 -2.12903,-18.71774"
       transform="matrix(0.74409114,-0.07909443,0.065365,0.69235185,20.84627,48.610293)" /></g><g
     inkscape:groupmode="layer"
     id="layer5"
     inkscape:label="Ejes 1"
     transform="translate(-5.2241721,-54.325694)"
     style="display:inline"><path
       style="fill:none;fill-opacity:1;stroke:#00875c;stroke-width:0.6;stroke-linecap:round;stroke-dasharray:none;stroke-dashoffset:20.9009;stroke-opacity:1;marker-end:url(#marker18)"
       d="M 95.096773,137.32258 170.32257,92.612903"
       id="path17"
       inkscape:path-effect="#path-effect17-3"
       inkscape:original-d="M 95.096773,137.32258 170.32257,92.612903"
       transform="translate(-19.684673,-93.988068)"
       sodipodi:nodetypes="cc" /><path
       style="opacity:1;fill:none;fill-opacity:1;stroke:#00875c;stroke-width:0.48103188;stroke-linecap:round;stroke-dasharray:1.92412435,1.92412435;stroke-dashoffset:0;stroke-opacity:1"
       d="M 95.362902,137.67742 85.849148,123.21851"
       id="path19"
       inkscape:path-effect="#path-effect19"
       inkscape:original-d="M 95.362902,137.67742 85.849148,123.21851"
       transform="matrix(1.703541,0,0,1.6562367,-49.161004,-82.290054)"
       sodipodi:nodetypes="cc" /></g><g
     inkscape:groupmode="layer"
     id="layer4"
     inkscape:label="Ejes"
     style="display:inline;opacity:0.7"
     transform="translate(-5.2241721,-54.325694)"><path
       style="opacity:1;fill:none;fill-opacity:1;stroke:#000000;stroke-width:0.8;stroke-linecap:round;stroke-dasharray:none;stroke-dashoffset:5.53002;stroke-opacity:1;marker-start:url(#ConcaveTriangle);marker-end:url(#ConcaveTriangle)"
       d="m 95.345365,84.305374 -0.125455,53.192676 52.92525,-0.17547"
       id="path15"
       inkscape:path-effect="#path-effect15"
       inkscape:original-d="m 95.345365,84.305374 -0.125455,53.192676 52.92525,-0.17547"
       transform="translate(-175.02287,-81.401491)" /><path
       style="display:inline;fill:none;fill-opacity:1;stroke:#000000;stroke-width:0.77258531;stroke-linecap:round;stroke-dasharray:3.09034124,3.09034124;stroke-dashoffset:0;stroke-opacity:1"
       d="m 95.21991,137.49805 52.92525,-0.17547"
       id="path15-1"
       inkscape:path-effect="#path-effect15-4"
       inkscape:original-d="m 95.21991,137.49805 52.92525,-0.17547"
       transform="matrix(1.2791718,0,0,0.83822036,-39.687382,4.6476406)"
       sodipodi:nodetypes="cc" /></g><g
     inkscape:groupmode="layer"
     id="layer6"
     inkscape:label="LaTeX"
     transform="translate(-11.7, -71.358)"><g
       inkscape:label=""
       transform="translate(94.621708,107.54217)"
       id="g20"><g
   fill="#ff0000"
   fill-opacity="1"
   id="g33"
   transform="matrix(0.352778,0,0,0.352778,-68.9901,-7.14842)">&#10;    <g
   id="g32"
   transform="translate(194.578,37.856998)">&#10;      <path
   d="m 6.4375,-10.796875 c -3.171875,0.765625 -5.453125,4.0625 -5.453125,6.953125 0,2.65625 1.796875,4.140625 3.78125,4.140625 2.921875,0 4.90625,-4.015625 4.90625,-7.3125 C 9.671875,-9.25 8.625,-10.609375 8,-11.421875 7.09375,-12.59375 5.59375,-14.5 5.59375,-15.6875 c 0,-0.421875 0.328125,-1.15625 1.421875,-1.15625 0.765625,0 1.234375,0.265625 1.984375,0.6875 0.21875,0.140625 0.78125,0.46875 1.109375,0.46875 C 10.625,-15.6875 11,-16.203125 11,-16.609375 c 0,-0.46875 -0.375,-0.546875 -1.234375,-0.734375 -1.171875,-0.25 -1.515625,-0.25 -1.9375,-0.25 -0.421875,0 -2.84375,0 -2.84375,2.53125 0,1.203125 0.609375,2.625 1.453125,4.265625 z m 0.28125,0.46875 c 0.9375,1.953125 1.3125,2.703125 1.3125,4.3125 0,1.921875 -1.046875,5.8125 -3.25,5.8125 -0.96875,0 -2.359375,-0.640625 -2.359375,-2.9375 0,-1.625 0.921875,-6.296875 4.296875,-7.1875 z m 0,0"
   id="path20" />&#10;    </g>&#10;  </g>&#10;</g><g
       inkscape:label=""
       transform="translate(51.43384,175.14219)"
       id="g21"><g
   fill="#ff0000"
   fill-opacity="1"
   id="g3"
   transform="matrix(0.352778,0,0,0.352778,-67.3948,-6.72685)">&#10;    <g
   id="use2"
   transform="translate(190.056,36.661999)">&#10;      <path
   d="m 6.4375,-10.796875 c -3.171875,0.765625 -5.453125,4.0625 -5.453125,6.953125 0,2.65625 1.796875,4.140625 3.78125,4.140625 2.921875,0 4.90625,-4.015625 4.90625,-7.3125 C 9.671875,-9.25 8.625,-10.609375 8,-11.421875 7.09375,-12.59375 5.59375,-14.5 5.59375,-15.6875 c 0,-0.421875 0.328125,-1.15625 1.421875,-1.15625 0.765625,0 1.234375,0.265625 1.984375,0.6875 0.21875,0.140625 0.78125,0.46875 1.109375,0.46875 C 10.625,-15.6875 11,-16.203125 11,-16.609375 c 0,-0.46875 -0.375,-0.546875 -1.234375,-0.734375 -1.171875,-0.25 -1.515625,-0.25 -1.9375,-0.25 -0.421875,0 -2.84375,0 -2.84375,2.53125 0,1.203125 0.609375,2.625 1.453125,4.265625 z m 0.28125,0.46875 c 0.9375,1.953125 1.3125,2.703125 1.3125,4.3125 0,1.921875 -1.046875,5.8125 -3.25,5.8125 -0.96875,0 -2.359375,-0.640625 -2.359375,-2.9375 0,-1.625 0.921875,-6.296875 4.296875,-7.1875 z m 0,0"
   id="path4" />&#10;    </g>&#10;  </g>&#10;  <g
   fill="#ff0000"
   fill-opacity="1"
   id="g4"
   transform="matrix(0.352778,0,0,0.352778,-67.3948,-6.72685)">&#10;    <g
   id="use3"
   transform="translate(200.80499,41.443001)">&#10;      <path
   d="m 5.5,-13.203125 c 0,-0.4375 -0.03125,-0.453125 -0.3125,-0.453125 C 4.375,-12.6875 3.15625,-12.375 2,-12.328125 c -0.0625,0 -0.15625,0 -0.1875,0.03125 -0.015625,0.04687 -0.015625,0.09375 -0.015625,0.515625 0.640625,0 1.71875,-0.109375 2.546875,-0.609375 v 10.875 c 0,0.734375 -0.046875,0.984375 -1.828125,0.984375 H 1.90625 V 0 C 2.890625,-0.015625 3.921875,-0.046875 4.921875,-0.046875 5.90625,-0.046875 6.9375,-0.015625 7.9375,0 V -0.53125 H 7.3125 C 5.53125,-0.53125 5.5,-0.765625 5.5,-1.515625 Z m 0,0"
   id="path5" />&#10;    </g>&#10;  </g>&#10;</g><g
       inkscape:label=""
       transform="translate(150.51718,101.99452)"
       id="g26"><g
   fill="#ff0000"
   fill-opacity="1"
   id="g23"
   transform="matrix(0.352778,0,0,0.352778,-68.022072,-6.0995779)">&#10;    <g
   id="g22"
   transform="translate(190.056,36.661999)">&#10;      <path
   d="m 6.4375,-10.796875 c -3.171875,0.765625 -5.453125,4.0625 -5.453125,6.953125 0,2.65625 1.796875,4.140625 3.78125,4.140625 2.921875,0 4.90625,-4.015625 4.90625,-7.3125 C 9.671875,-9.25 8.625,-10.609375 8,-11.421875 7.09375,-12.59375 5.59375,-14.5 5.59375,-15.6875 c 0,-0.421875 0.328125,-1.15625 1.421875,-1.15625 0.765625,0 1.234375,0.265625 1.984375,0.6875 0.21875,0.140625 0.78125,0.46875 1.109375,0.46875 C 10.625,-15.6875 11,-16.203125 11,-16.609375 c 0,-0.46875 -0.375,-0.546875 -1.234375,-0.734375 -1.171875,-0.25 -1.515625,-0.25 -1.9375,-0.25 -0.421875,0 -2.84375,0 -2.84375,2.53125 0,1.203125 0.609375,2.625 1.453125,4.265625 z m 0.28125,0.46875 c 0.9375,1.953125 1.3125,2.703125 1.3125,4.3125 0,1.921875 -1.046875,5.8125 -3.25,5.8125 -0.96875,0 -2.359375,-0.640625 -2.359375,-2.9375 0,-1.625 0.921875,-6.296875 4.296875,-7.1875 z m 0,0"
   id="path21" />&#10;    </g>&#10;  </g>&#10;  <g
   fill="#ff0000"
   fill-opacity="1"
   id="g25"
   transform="matrix(0.352778,0,0,0.352778,-68.022072,-6.0995779)">&#10;    <g
   id="g24"
   transform="translate(200.80499,41.443001)">&#10;      <path
   d="m 8.609375,-3.203125 h -0.375 c -0.203125,1.46875 -0.359375,1.71875 -0.453125,1.84375 -0.09375,0.15625 -1.578125,0.15625 -1.875,0.15625 H 1.9375 C 2.6875,-2 4.125,-3.46875 5.890625,-5.171875 c 1.25,-1.1875 2.71875,-2.59375 2.71875,-4.640625 0,-2.4375 -1.9375,-3.84375 -4.109375,-3.84375 -2.265625,0 -3.65625,2 -3.65625,3.859375 0,0.8125 0.609375,0.921875 0.84375,0.921875 0.21875,0 0.828125,-0.125 0.828125,-0.859375 0,-0.640625 -0.53125,-0.828125 -0.828125,-0.828125 -0.125,0 -0.234375,0.03125 -0.328125,0.0625 0.390625,-1.75 1.59375,-2.609375 2.859375,-2.609375 1.796875,0 2.96875,1.421875 2.96875,3.296875 0,1.796875 -1.046875,3.34375 -2.234375,4.6875 L 0.84375,-0.46875 V 0 H 8.125 Z m 0,0"
   id="path23" />&#10;    </g>&#10;  </g>&#10;</g><g
       inkscape:label=""
       transform="matrix(1.4973131,0,0,1.5951523,113.67507,133.96322)"
       id="g38"><g
   fill="#0f886e"
   fill-opacity="1"
   id="g30"
   transform="matrix(0.352778,0,0,0.352778,-77.822032,4.7457974)">&#10;    <g
   id="g29"
   transform="translate(190.005,36.661999)">&#10;      <path
   d="m 3.890625,-1.828125 c -0.21875,0.859375 -0.265625,1.109375 -2,1.109375 -0.484375,0 -0.71875,0 -0.71875,0.453125 C 1.171875,0 1.3125,0 1.8125,0 h 7.859375 c 5,0 9.875,-5.171875 9.875,-10.703125 0,-3.578125 -2.125,-6.21875 -5.671875,-6.21875 H 5.921875 c -0.46875,0 -0.6875,0 -0.6875,0.46875 0,0.25 0.21875,0.25 0.59375,0.25 1.5,0 1.5,0.1875 1.5,0.46875 0,0.04687 0,0.203125 -0.09375,0.5625 z M 9.125,-15.234375 c 0.21875,-0.921875 0.3125,-0.96875 1.28125,-0.96875 h 2.734375 c 2.328125,0 4.453125,1.265625 4.453125,4.6875 0,1.234375 -0.5,5.546875 -2.90625,8.265625 C 14,-2.421875 12.125,-0.71875 9.265625,-0.71875 H 6.4375 c -0.34375,0 -0.390625,0 -0.546875,-0.03125 C 5.625,-0.765625 5.59375,-0.8125 5.59375,-1.015625 c 0,-0.171875 0.0625,-0.328125 0.109375,-0.546875 z m 0,0"
   id="path29" />&#10;    </g>&#10;  </g>&#10;</g><g
       inkscape:label=""
       transform="translate(138.98163,132.87209)"
       id="g43"><g
   fill="#000000"
   fill-opacity="1"
   id="g40"
   transform="matrix(0.352778,0,0,0.352778,-82.627267,-17.029736)">&#10;    <g
   id="g39"
   transform="translate(187.481,37.858002)">&#10;      <path
   d="m 7.453125,-1.09375 c -0.421875,0 -0.78125,0 -0.78125,-0.125 0,-0.046875 0.421875,-2.375 0.5625,-2.921875 C 8.03125,-7.3125 9.90625,-9.59375 12.0625,-9.59375 c 1.609375,0 2.359375,1.21875 2.359375,2.578125 0,2.828125 -3.171875,5.921875 -6.96875,5.921875 z m -1.0625,1.296875 C 6.546875,0.21875 6.796875,0.25 7.234375,0.25 c 4.0625,0 7.8125,-3.921875 7.8125,-7.828125 0,-1.515625 -0.671875,-3.34375 -2.75,-3.34375 -3.578125,0 -5.078125,5.03125 -6.46875,9.6875 -2.859375,-0.546875 -4.046875,-2.0625 -4.046875,-3.71875 0,-0.671875 0.515625,-3.328125 1.953125,-5.109375 0.28125,-0.328125 0.28125,-0.375 0.28125,-0.421875 0,-0.203125 -0.203125,-0.203125 -0.25,-0.203125 -0.671875,0 -2.546875,3.625 -2.546875,5.984375 0,2.765625 2.171875,4.28125 4.1875,4.734375 l -1.296875,4.1875 c -0.125,0.359375 -0.125,0.421875 -0.125,0.515625 0,0.59375 0.59375,0.625 0.65625,0.625 C 4.875,5.359375 5.328125,5.25 5.53125,4.765625 5.59375,4.53125 6.296875,0.6875 6.390625,0.203125 Z m 0,0"
   id="path38" />&#10;    </g>&#10;  </g>&#10;  <g
   fill="#000000"
   fill-opacity="1"
   id="g42"
   transform="matrix(0.352778,0,0,0.352778,-82.627267,-17.029736)">&#10;    <g
   id="g41"
   transform="translate(203.38,42.639)">&#10;      <path
   d="m 8.671875,-6.625 c 0,-1.265625 -0.015625,-3.40625 -0.890625,-5.0625 -0.765625,-1.453125 -1.984375,-1.96875 -3.046875,-1.96875 -1,0 -2.25,0.453125 -3.046875,1.9375 -0.8125,1.5625 -0.90625,3.484375 -0.90625,5.09375 0,1.171875 0.03125,2.96875 0.671875,4.53125 0.875,2.140625 2.46875,2.421875 3.28125,2.421875 C 5.6875,0.328125 7.125,-0.0625 7.96875,-2.03125 8.59375,-3.453125 8.671875,-5.125 8.671875,-6.625 Z M 4.734375,0 C 3.40625,0 2.625,-1.140625 2.328125,-2.703125 c -0.21875,-1.21875 -0.21875,-3 -0.21875,-4.15625 0,-1.59375 0,-2.90625 0.265625,-4.171875 0.390625,-1.75 1.546875,-2.296875 2.359375,-2.296875 0.84375,0 1.9375,0.5625 2.328125,2.25 0.265625,1.1875 0.296875,2.5625 0.296875,4.21875 0,1.34375 0,3 -0.25,4.21875 C 6.671875,-0.390625 5.453125,0 4.734375,0 Z m 0,0"
   id="path40" />&#10;    </g>&#10;  </g>&#10;</g><ellipse
       style="opacity:1;fill:#000000;fill-opacity:1;stroke:#000000;stroke-width:0.499999;stroke-linecap:round;stroke-opacity:1"
       id="path6"
       cx="119.71626"
       cy="162.93974"
       rx="1.5"
       ry="1.6" /><g
       inkscape:label=""
       transform="translate(122.40604,163.84952)"
       id="g13"><g
   fill="#000000"
   fill-opacity="1"
   id="g12"
   transform="matrix(0.352778,0,0,0.352778,-69.013558,-10.165965)">&#10;    <g
   id="g11"
   transform="translate(200.728,35.466)">&#10;      <path
   d="m 17.984375,-10.859375 c 0,-4.078125 -2.671875,-6.59375 -6.140625,-6.59375 -5.296875,0 -10.65625,5.703125 -10.65625,11.4375 0,3.890625 2.578125,6.53125 6.171875,6.53125 5.203125,0 10.625,-5.421875 10.625,-11.375 z m -10.46875,10.8125 c -2.03125,0 -4.1875,-1.484375 -4.1875,-5.359375 0,-2.25 0.8125,-5.9375 2.84375,-8.421875 1.8125,-2.1875 3.890625,-3.078125 5.546875,-3.078125 2.1875,0 4.296875,1.59375 4.296875,5.15625 0,2.203125 -0.953125,5.65625 -2.609375,8.015625 -1.8125,2.515625 -4.0625,3.6875 -5.890625,3.6875 z m 0,0"
   id="path11" />&#10;    </g>&#10;  </g>&#10;</g></g></svg>
