<?xml version="1.0" encoding="UTF-8" standalone="no"?>
<!-- Created with Inkscape (http://www.inkscape.org/) -->

<svg
   width="99.692001mm"
   height="108.68mm"
   viewBox="0 0 99.692001 108.68"
   version="1.1"
   id="svg1"
   inkscape:version="1.3 (0e150ed6c4, 2023-07-21)"
   sodipodi:docname="Efecto-GW-4.svg"
   xmlns:inkscape="http://www.inkscape.org/namespaces/inkscape"
   xmlns:sodipodi="http://sodipodi.sourceforge.net/DTD/sodipodi-0.dtd"
   xmlns:xlink="http://www.w3.org/1999/xlink"
   xmlns="http://www.w3.org/2000/svg"
   xmlns:svg="http://www.w3.org/2000/svg">
  <sodipodi:namedview
     id="namedview1"
     pagecolor="#ffffff"
     bordercolor="#000000"
     borderopacity="0.25"
     inkscape:showpageshadow="2"
     inkscape:pageopacity="0.0"
     inkscape:pagecheckerboard="0"
     inkscape:deskcolor="#d1d1d1"
     inkscape:document-units="mm"
     showguides="true"
     inkscape:zoom="1.28"
     inkscape:cx="148.04688"
     inkscape:cy="158.98438"
     inkscape:window-width="1920"
     inkscape:window-height="1051"
     inkscape:window-x="-9"
     inkscape:window-y="-9"
     inkscape:window-maximized="1"
     inkscape:current-layer="layer8" />
  <defs
     id="defs1">
    <linearGradient
       id="linearGradient4"
       inkscape:collect="always">
      <stop
         style="stop-color:#ffffff;stop-opacity:0;"
         offset="0"
         id="stop3" />
      <stop
         style="stop-color:#1e00ff;stop-opacity:1;"
         offset="1"
         id="stop4" />
    </linearGradient>
    <linearGradient
       id="linearGradient2"
       inkscape:collect="always">
      <stop
         style="stop-color:#ffffff;stop-opacity:0;"
         offset="0"
         id="stop1" />
      <stop
         style="stop-color:#555555;stop-opacity:1;"
         offset="1"
         id="stop2" />
    </linearGradient>
    <marker
       style="overflow:visible"
       id="ConcaveTriangle"
       refX="0"
       refY="0"
       orient="auto-start-reverse"
       inkscape:stockid="Concave triangle arrow"
       markerWidth="1"
       markerHeight="1"
       viewBox="0 0 1 1"
       inkscape:isstock="true"
       inkscape:collect="always"
       preserveAspectRatio="xMidYMid">
      <path
         transform="scale(0.7)"
         d="M -2,-4 9,0 -2,4 c 2,-2.33 2,-5.66 0,-8 z"
         style="fill:context-stroke;fill-rule:evenodd;stroke:none"
         id="path7" />
    </marker>
    <inkscape:path-effect
       effect="spiro"
       id="path-effect2"
       is_visible="true"
       lpeversion="1" />
    <inkscape:path-effect
       effect="bspline"
       id="path-effect8"
       is_visible="true"
       lpeversion="1.3"
       weight="33.333333"
       steps="2"
       helper_size="0"
       apply_no_weight="true"
       apply_with_weight="true"
       only_selected="false"
       uniform="false" />
    <inkscape:path-effect
       effect="bspline"
       id="path-effect8-9"
       is_visible="true"
       lpeversion="1.3"
       weight="33.333333"
       steps="2"
       helper_size="0"
       apply_no_weight="true"
       apply_with_weight="true"
       only_selected="false"
       uniform="false" />
    <inkscape:path-effect
       effect="spiro"
       id="path-effect6"
       is_visible="true"
       lpeversion="1" />
    <radialGradient
       inkscape:collect="always"
       xlink:href="#linearGradient2"
       id="radialGradient6-6-0"
       cx="148.95799"
       cy="87.766922"
       fx="148.95799"
       fy="87.766922"
       r="7.8000007"
       gradientUnits="userSpaceOnUse"
       gradientTransform="matrix(0.44190219,0.00368411,-0.00346084,0.40912148,-171.33246,56.0438)" />
    <radialGradient
       inkscape:collect="always"
       xlink:href="#linearGradient2"
       id="radialGradient6-6-0-6"
       cx="148.95799"
       cy="87.766922"
       fx="148.95799"
       fy="87.766922"
       r="7.8000007"
       gradientUnits="userSpaceOnUse"
       gradientTransform="matrix(0.44190219,0.00368411,-0.00346084,0.40912148,-196.28435,80.49374)" />
    <radialGradient
       inkscape:collect="always"
       xlink:href="#linearGradient2"
       id="radialGradient6-6-0-7"
       cx="148.95799"
       cy="87.766922"
       fx="148.95799"
       fy="87.766922"
       r="7.8000007"
       gradientUnits="userSpaceOnUse"
       gradientTransform="matrix(0.44190219,0.00368411,-0.00346084,0.40912148,-171.53573,105.99998)" />
    <inkscape:path-effect
       effect="spiro"
       id="path-effect6-4"
       is_visible="true"
       lpeversion="1" />
    <radialGradient
       inkscape:collect="always"
       xlink:href="#linearGradient4"
       id="radialGradient6-6-0-18-6"
       cx="148.95799"
       cy="87.766922"
       fx="148.95799"
       fy="87.766922"
       r="7.8000007"
       gradientUnits="userSpaceOnUse"
       gradientTransform="matrix(0.44190219,0.00368411,-0.00346084,0.40912148,-171.32798,63.902944)" />
    <inkscape:path-effect
       effect="spiro"
       id="path-effect6-4-5"
       is_visible="true"
       lpeversion="1" />
    <radialGradient
       inkscape:collect="always"
       xlink:href="#linearGradient2"
       id="radialGradient6-6-0-1-5"
       cx="148.95799"
       cy="87.766922"
       fx="148.95799"
       fy="87.766922"
       r="7.8000007"
       gradientUnits="userSpaceOnUse"
       gradientTransform="matrix(0.44190219,0.00368411,-0.00346084,0.40912148,-146.19344,80.19738)" />
    <radialGradient
       inkscape:collect="always"
       xlink:href="#linearGradient4"
       id="radialGradient6-6-0-18-6-7"
       cx="148.95799"
       cy="87.766922"
       fx="148.95799"
       fy="87.766922"
       r="7.8000007"
       gradientUnits="userSpaceOnUse"
       gradientTransform="matrix(0.44190219,0.00368411,-0.00346084,0.40912148,-139.489,80.215559)" />
    <radialGradient
       inkscape:collect="always"
       xlink:href="#linearGradient4"
       id="radialGradient6-6-0-18-6-7-7"
       cx="148.95799"
       cy="87.766922"
       fx="148.95799"
       fy="87.766922"
       r="7.8000007"
       gradientUnits="userSpaceOnUse"
       gradientTransform="matrix(0.44190219,0.00368411,-0.00346084,0.40912148,-203.85303,80.827403)" />
    <radialGradient
       inkscape:collect="always"
       xlink:href="#linearGradient4"
       id="radialGradient6-6-0-18-6-7-6"
       cx="148.95799"
       cy="87.766922"
       fx="148.95799"
       fy="87.766922"
       r="7.8000007"
       gradientUnits="userSpaceOnUse"
       gradientTransform="matrix(0.44190219,0.00368411,-0.00346084,0.40912148,-171.67308,97.413425)" />
  </defs>
  <g
     inkscape:label="Capa 1"
     inkscape:groupmode="layer"
     id="layer1"
     sodipodi:insensitive="true"
     style="display:none"
     transform="translate(-58.28365,-58.685082)">
    <path
       d="M 0,0 V 296.99999 M 10.583333,0 V 296.99999 M 21.166666,0 V 296.99999 M 31.749999,0 V 296.99999 M 42.333332,0 V 296.99999 M 52.916665,0 V 296.99999 M 63.499999,0 V 296.99999 M 74.083332,0 V 296.99999 M 84.666665,0 V 296.99999 M 95.249998,0 V 296.99999 M 105.83333,0 V 296.99999 M 116.41666,0 V 296.99999 M 127,0 V 296.99999 M 137.58333,0 V 296.99999 M 148.16666,0 V 296.99999 M 158.75,0 V 296.99999 M 169.33333,0 V 296.99999 M 179.91666,0 V 296.99999 M 190.5,0 V 296.99999 M 201.08333,0 V 296.99999 M 0,0 H 210 M 0,10.583333 H 210 M 0,21.166666 H 210 M 0,31.749999 H 210 M 0,42.333332 H 210 M 0,52.916665 H 210 M 0,63.499999 H 210 M 0,74.083332 H 210 M 0,84.666665 H 210 M 0,95.249998 H 210 M 0,105.83333 H 210 M 0,116.41666 H 210 M 0,127 H 210 M 0,137.58333 H 210 M 0,148.16666 H 210 M 0,158.75 H 210 M 0,169.33333 H 210 M 0,179.91666 H 210 M 0,190.5 H 210 M 0,201.08333 H 210 M 0,211.66666 H 210 M 0,222.24999 H 210 M 0,232.83333 H 210 M 0,243.41666 H 210 M 0,253.99999 H 210 M 0,264.58333 H 210 M 0,275.16666 H 210 M 0,285.74999 H 210 M 0,296.33333 h 210"
       style="fill:none;stroke:#000000;stroke-width:0.264583px"
       id="path1" />
  </g>
  <g
     inkscape:groupmode="layer"
     id="layer8"
     inkscape:label="Ejes"
     transform="translate(-58.28365,-58.685082)">
    <path
       style="fill:none;fill-opacity:0.72549;stroke:#000000;stroke-width:0.600001;stroke-linecap:round;stroke-linejoin:round;stroke-opacity:1;marker-start:url(#ConcaveTriangle);marker-end:url(#ConcaveTriangle)"
       d="m 105.78628,90.927418 0.17742,94.082992 m -40.847893,-48.24573 81.062443,0.45571"
       id="path2"
       inkscape:path-effect="#path-effect2"
       inkscape:original-d="m 105.78628,90.927418 0.17742,94.082992 M 65.115807,136.76468 c 16.87532,32.41725 63.379643,0.33741 81.062443,0.45571"
       transform="translate(1.0169456,-19.357473)"
       sodipodi:nodetypes="cccc" />
    <path
       style="fill:#ffffff;fill-opacity:1;stroke:#000000;stroke-width:0.600001;stroke-linecap:round;stroke-linejoin:round;stroke-dasharray:none;stroke-dashoffset:0;stroke-opacity:0.733333"
       d="m 105.88354,137.74896 17.81453,-16.55999"
       id="path6"
       inkscape:path-effect="#path-effect6"
       inkscape:original-d="m 105.88354,137.74896 17.81453,-16.55999"
       transform="translate(0.96989558,-19.624064)"
       sodipodi:nodetypes="cc" />
    <circle
       style="fill:none;fill-opacity:0.72549;stroke:#565656;stroke-width:0.600001;stroke-linecap:round;stroke-linejoin:round;stroke-dasharray:3.60001, 3.60001;stroke-dashoffset:0;stroke-opacity:1"
       id="path3"
       cx="106.71184"
       cy="118.14204"
       r="25" />
    <ellipse
       style="fill:#ffffff;fill-opacity:1;stroke:none;stroke-width:0.221442;stroke-linecap:round;stroke-linejoin:round;stroke-dasharray:none;stroke-dashoffset:0;stroke-opacity:0.733333"
       id="path4-9"
       cx="-106.72253"
       cy="93.233864"
       transform="scale(-1,1)"
       rx="2.77811"
       ry="2.7579613" />
    <ellipse
       style="fill:url(#radialGradient6-6-0);stroke:#303030;stroke-width:0.221442;stroke-linecap:round;stroke-linejoin:round;stroke-dasharray:none;stroke-dashoffset:0;stroke-opacity:1"
       id="path4-6-5"
       cx="-106.67094"
       cy="93.238029"
       transform="scale(-1,1)"
       rx="2.77811"
       ry="2.7579613" />
    <g
       inkscape:label=""
       transform="translate(161.30241,116.01628)"
       id="g16">
      <g
         fill="#000000"
         fill-opacity="1"
         id="g39"
         transform="matrix(0.352778,0,0,0.352778,-77.6288,-6.27578)">
        <g
           id="g33"
           transform="translate(219.472,26.899)">
          <path
             d="m -15.703109,-8.421875 c -0.671875,0.125 -0.921875,0.609375 -0.921875,1 0,0.5 0.40625,0.671875 0.6875,0.671875 0.625,0 1.0625,-0.546875 1.0625,-1.09375 0,-0.875 -1,-1.265625 -1.859375,-1.265625 -1.265625,0 -1.96875,1.234375 -2.15625,1.625 -0.46875,-1.546875 -1.75,-1.625 -2.125,-1.625 -2.109375,0 -3.21875,2.703125 -3.21875,3.15625 0,0.09375 0.07813,0.1875 0.21875,0.1875 0.171875,0 0.203125,-0.125 0.25,-0.203125 0.703125,-2.296875 2.09375,-2.734375 2.6875,-2.734375 0.921875,0 1.109375,0.875 1.109375,1.375 0,0.453125 -0.125,0.921875 -0.359375,1.921875 l -0.703125,2.828125 c -0.3125,1.234375 -0.921875,2.375 -2.015625,2.375 -0.09375,0 -0.609375,0 -1.046875,-0.265625 0.734375,-0.15625 0.90625,-0.765625 0.90625,-1.015625 0,-0.421875 -0.3125,-0.65625 -0.703125,-0.65625 -0.5,0 -1.03125,0.421875 -1.03125,1.09375 0,0.859375 0.96875,1.25 1.859375,1.25 0.984375,0 1.6875,-0.78125 2.125,-1.625 0.328125,1.21875 1.359375,1.625 2.125,1.625 2.109375,0 3.234375,-2.703125 3.234375,-3.15625 0,-0.109375 -0.09375,-0.1875 -0.21875,-0.1875 -0.1875,0 -0.203125,0.109375 -0.265625,0.265625 -0.5625,1.828125 -1.75,2.671875 -2.6875,2.671875 -0.71875,0 -1.109375,-0.546875 -1.109375,-1.390625 0,-0.453125 0.07813,-0.78125 0.40625,-2.140625 l 0.734375,-2.8125 c 0.296875,-1.234375 1,-2.15625 1.953125,-2.15625 0.04687,0 0.625,0 1.0625,0.28125 z m 0,0"
             id="path16" />
        </g>
      </g>
    </g>
    <g
       inkscape:label=""
       transform="translate(105.20388,60.272575)"
       id="g19">
      <g
         fill="#000000"
         fill-opacity="1"
         id="g18"
         transform="matrix(0.352778,0,0,0.352778,-77.7806,-6.27578)">
        <g
           id="g17"
           transform="translate(219.918,26.899)">
          <path
             d="m 5.4375,2.3125 c -0.5625,0.78125 -1.375,1.484375 -2.375,1.484375 -0.25,0 -1.25,-0.03125 -1.546875,-0.984375 C 1.5625,2.828125 1.671875,2.828125 1.71875,2.828125 2.328125,2.828125 2.75,2.296875 2.75,1.8125 2.75,1.34375 2.359375,1.171875 2.046875,1.171875 c -0.328125,0 -1.0625,0.25 -1.0625,1.265625 0,1.046875 0.890625,1.78125 2.078125,1.78125 2.0625,0 4.140625,-1.90625 4.71875,-4.203125 L 9.8125,-8.03125 c 0.015625,-0.109375 0.0625,-0.234375 0.0625,-0.359375 0,-0.3125 -0.25,-0.515625 -0.5625,-0.515625 -0.1875,0 -0.609375,0.09375 -0.78125,0.703125 L 7,-2.125 c -0.09375,0.375 -0.09375,0.40625 -0.265625,0.640625 -0.40625,0.578125 -1.09375,1.28125 -2.09375,1.28125 -1.15625,0 -1.25,-1.140625 -1.25,-1.703125 0,-1.171875 0.5625,-2.765625 1.109375,-4.25 0.234375,-0.59375 0.359375,-0.890625 0.359375,-1.296875 0,-0.875 -0.625,-1.65625 -1.640625,-1.65625 -1.890625,0 -2.65625,3 -2.65625,3.15625 0,0.09375 0.078125,0.1875 0.21875,0.1875 0.1875,0 0.203125,-0.078125 0.296875,-0.375 0.484375,-1.734375 1.28125,-2.5625 2.078125,-2.5625 0.1875,0 0.546875,0 0.546875,0.6875 0,0.53125 -0.234375,1.140625 -0.546875,1.921875 -1.015625,2.703125 -1.015625,3.390625 -1.015625,3.890625 0,1.953125 1.40625,2.40625 2.4375,2.40625 0.609375,0 1.34375,-0.1875 2.078125,-0.953125 l 0.015625,0.03125 C 6.359375,0.5 6.15625,1.296875 5.4375,2.3125 Z m 0,0"
             id="path17" />
        </g>
      </g>
    </g>
    <g
       inkscape:label=""
       transform="translate(232.44294,76.935139)"
       id="g31">
      <g
         fill="#000000"
         fill-opacity="1"
         id="g24"
         transform="matrix(0.352778,0,0,0.352778,-198.75489,22.104095)">
        <g
           id="g23"
           transform="translate(217.436,26.899)">
          <path
             d="m 7.59375,-12.703125 c 0.1875,-0.765625 0.28125,-0.8125 1.078125,-0.8125 h 1.484375 c 1.78125,0 3.109375,0.546875 3.109375,2.15625 0,1.046875 -0.546875,4.09375 -4.6875,4.09375 h -2.34375 z m 2.875,5.6875 c 2.5625,-0.5625 4.5625,-2.21875 4.5625,-4 0,-1.609375 -1.625,-3.09375 -4.5,-3.09375 H 4.9375 c -0.40625,0 -0.59375,0 -0.59375,0.390625 0,0.203125 0.140625,0.203125 0.53125,0.203125 1.234375,0 1.234375,0.171875 1.234375,0.40625 0,0.03125 0,0.15625 -0.078125,0.46875 L 3.25,-1.53125 c -0.1875,0.71875 -0.234375,0.9375 -1.65625,0.9375 -0.484375,0 -0.625,0 -0.625,0.390625 C 0.96875,0 1.203125,0 1.265625,0 1.625,0 2.0625,-0.046875 2.453125,-0.046875 h 2.4375 c 0.375,0 0.8125,0.046875 1.1875,0.046875 0.15625,0 0.390625,0 0.390625,-0.390625 0,-0.203125 -0.1875,-0.203125 -0.5,-0.203125 -1.265625,0 -1.265625,-0.171875 -1.265625,-0.375 0,-0.015625 0,-0.171875 0.046875,-0.328125 l 1.390625,-5.5625 h 2.46875 c 1.96875,0 2.34375,1.234375 2.34375,1.921875 0,0.3125 -0.21875,1.109375 -0.359375,1.65625 -0.21875,0.953125 -0.28125,1.171875 -0.28125,1.5625 0,1.46875 1.1875,2.15625 2.578125,2.15625 1.671875,0 2.390625,-2.046875 2.390625,-2.34375 0,-0.140625 -0.09375,-0.203125 -0.21875,-0.203125 -0.171875,0 -0.203125,0.125 -0.25,0.296875 -0.5,1.46875 -1.34375,1.828125 -1.859375,1.828125 -0.515625,0 -0.84375,-0.21875 -0.84375,-1.15625 0,-0.484375 0.25,-2.375 0.265625,-2.46875 0.09375,-0.765625 0.09375,-0.859375 0.09375,-1.015625 0,-1.515625 -1.21875,-2.15625 -2,-2.390625 z m 0,0"
             id="path22" />
        </g>
      </g>
    </g>
    <ellipse
       style="fill:#ffffff;fill-opacity:1;stroke:none;stroke-width:0.221442;stroke-linecap:round;stroke-linejoin:round;stroke-dasharray:none;stroke-dashoffset:0;stroke-opacity:0.733333"
       id="path4-9-3"
       cx="-131.67438"
       cy="117.68381"
       transform="scale(-1,1)"
       rx="2.77811"
       ry="2.7579613" />
    <ellipse
       style="fill:url(#radialGradient6-6-0-6);stroke:#303030;stroke-width:0.221442;stroke-linecap:round;stroke-linejoin:round;stroke-dasharray:none;stroke-dashoffset:0;stroke-opacity:1"
       id="path4-6-5-9"
       cx="-131.62277"
       cy="117.68798"
       transform="scale(-1,1)"
       rx="2.77811"
       ry="2.7579613" />
    <ellipse
       style="fill:#ffffff;fill-opacity:1;stroke:none;stroke-width:0.221442;stroke-linecap:round;stroke-linejoin:round;stroke-dasharray:none;stroke-dashoffset:0;stroke-opacity:0.733333"
       id="path4-9-67-2"
       cx="-81.583542"
       cy="117.38744"
       transform="scale(-1,1)"
       rx="2.77811"
       ry="2.7579613" />
    <ellipse
       style="fill:url(#radialGradient6-6-0-1-5);stroke:#303030;stroke-width:0.221442;stroke-linecap:round;stroke-linejoin:round;stroke-dasharray:none;stroke-dashoffset:0;stroke-opacity:1"
       id="path4-6-5-5-5"
       cx="-81.531944"
       cy="117.39159"
       transform="scale(-1,1)"
       rx="2.77811"
       ry="2.7579613" />
    <ellipse
       style="fill:#ffffff;fill-opacity:1;stroke:none;stroke-width:0.221442;stroke-linecap:round;stroke-linejoin:round;stroke-dasharray:none;stroke-dashoffset:0;stroke-opacity:0.733333"
       id="path4-9-8"
       cx="-106.92583"
       cy="143.19002"
       transform="scale(-1,1)"
       rx="2.77811"
       ry="2.7579613" />
    <ellipse
       style="fill:url(#radialGradient6-6-0-7);stroke:#303030;stroke-width:0.221442;stroke-linecap:round;stroke-linejoin:round;stroke-dasharray:none;stroke-dashoffset:0;stroke-opacity:1"
       id="path4-6-5-72"
       cx="-106.87421"
       cy="143.19418"
       transform="scale(-1,1)"
       rx="2.77811"
       ry="2.7579613" />
  </g>
  <g
     inkscape:groupmode="layer"
     id="layer9"
     inkscape:label="GW-Effect"
     transform="translate(-58.28365,-58.685082)">
    <ellipse
       style="fill:none;fill-opacity:0.72549;stroke:#0c00ff;stroke-width:0.600001;stroke-linecap:round;stroke-linejoin:round;stroke-dasharray:3.60001, 3.60001;stroke-dashoffset:1.8;stroke-opacity:1"
       id="path3-7"
       cx="106.97229"
       cy="118.0088"
       rx="32.5"
       ry="16.799999" />
    <ellipse
       style="fill:#ffffff;fill-opacity:1;stroke:none;stroke-width:0.221442;stroke-linecap:round;stroke-linejoin:round;stroke-dasharray:none;stroke-dashoffset:0;stroke-opacity:0.733333"
       id="path4-9-7-1"
       cx="-106.71805"
       cy="101.093"
       transform="scale(-1,1)"
       rx="2.77811"
       ry="2.7579613" />
    <ellipse
       style="fill:url(#radialGradient6-6-0-18-6);stroke:#0b077f;stroke-width:0.221442;stroke-linecap:round;stroke-linejoin:round;stroke-dasharray:none;stroke-dashoffset:0;stroke-opacity:1"
       id="path4-6-5-95-2"
       cx="-106.66644"
       cy="101.09717"
       transform="scale(-1,1)"
       rx="2.77811"
       ry="2.7579613" />
    <ellipse
       style="fill:#ffffff;fill-opacity:1;stroke:none;stroke-width:0.221442;stroke-linecap:round;stroke-linejoin:round;stroke-dasharray:none;stroke-dashoffset:0;stroke-opacity:0.733333"
       id="path4-9-7-1-19"
       cx="-74.879074"
       cy="117.40562"
       transform="scale(-1,1)"
       rx="2.77811"
       ry="2.7579613" />
    <ellipse
       style="fill:url(#radialGradient6-6-0-18-6-7);stroke:#0b077f;stroke-width:0.221442;stroke-linecap:round;stroke-linejoin:round;stroke-dasharray:none;stroke-dashoffset:0;stroke-opacity:1"
       id="path4-6-5-95-2-01"
       cx="-74.827469"
       cy="117.40979"
       transform="scale(-1,1)"
       rx="2.77811"
       ry="2.7579613" />
    <ellipse
       style="fill:#ffffff;fill-opacity:1;stroke:none;stroke-width:0.221442;stroke-linecap:round;stroke-linejoin:round;stroke-dasharray:none;stroke-dashoffset:0;stroke-opacity:0.733333"
       id="path4-9-7-1-19-3"
       cx="-139.24304"
       cy="118.01746"
       transform="scale(-1,1)"
       rx="2.77811"
       ry="2.7579613" />
    <ellipse
       style="fill:url(#radialGradient6-6-0-18-6-7-7);stroke:#0b077f;stroke-width:0.221442;stroke-linecap:round;stroke-linejoin:round;stroke-dasharray:none;stroke-dashoffset:0;stroke-opacity:1"
       id="path4-6-5-95-2-01-6"
       cx="-139.19144"
       cy="118.02163"
       transform="scale(-1,1)"
       rx="2.77811"
       ry="2.7579613" />
    <ellipse
       style="fill:#ffffff;fill-opacity:1;stroke:none;stroke-width:0.221442;stroke-linecap:round;stroke-linejoin:round;stroke-dasharray:none;stroke-dashoffset:0;stroke-opacity:0.733333"
       id="path4-9-7-1-19-5"
       cx="-107.06314"
       cy="134.60365"
       transform="scale(-1,1)"
       rx="2.77811"
       ry="2.7579613" />
    <ellipse
       style="fill:url(#radialGradient6-6-0-18-6-7-6);stroke:#0b077f;stroke-width:0.221442;stroke-linecap:round;stroke-linejoin:round;stroke-dasharray:none;stroke-dashoffset:0;stroke-opacity:1"
       id="path4-6-5-95-2-01-4"
       cx="-107.01153"
       cy="134.60782"
       transform="scale(-1,1)"
       rx="2.77811"
       ry="2.7579613" />
  </g>
</svg>
